<?xml version="1.0" encoding="UTF-8" standalone="no"?>
<!-- Generator: Adobe Illustrator 15.1.0, SVG Export Plug-In . SVG Version: 6.00 Build 0)  -->

<svg
   xmlns:dc="http://purl.org/dc/elements/1.1/"
   xmlns:cc="http://creativecommons.org/ns#"
   xmlns:rdf="http://www.w3.org/1999/02/22-rdf-syntax-ns#"
   xmlns:svg="http://www.w3.org/2000/svg"
   xmlns="http://www.w3.org/2000/svg"
   xmlns:sodipodi="http://sodipodi.sourceforge.net/DTD/sodipodi-0.dtd"
   xmlns:inkscape="http://www.inkscape.org/namespaces/inkscape"
   version="1.1"
   id="Layer_1"
   x="0px"
   y="0px"
   width="512px"
   height="512px"
   viewBox="0 0 512 512"
   enable-background="new 0 0 512 512"
   xml:space="preserve"
   sodipodi:docname="01d.svg"
   inkscape:version="0.92.2 (5c3e80d, 2017-08-06)"><metadata
     id="metadata3868"><rdf:RDF><cc:Work
         rdf:about=""><dc:format>image/svg+xml</dc:format><dc:type
           rdf:resource="http://purl.org/dc/dcmitype/StillImage" /></cc:Work></rdf:RDF></metadata><defs
     id="defs3866" /><sodipodi:namedview
     pagecolor="#ffffff"
     bordercolor="#666666"
     borderopacity="1"
     objecttolerance="10"
     gridtolerance="10"
     guidetolerance="10"
     inkscape:pageopacity="0"
     inkscape:pageshadow="2"
     inkscape:window-width="1366"
     inkscape:window-height="705"
     id="namedview3864"
     showgrid="false"
     inkscape:zoom="0.4609375"
     inkscape:cx="256"
     inkscape:cy="256"
     inkscape:window-x="-8"
     inkscape:window-y="-8"
     inkscape:window-maximized="1"
     inkscape:current-layer="Layer_1" /><g
     id="Grid_1_"><g
       id="Layer_1_1_"><g
         id="Grid"><g
           id="g3852"><rect
             fill="none"
             stroke="#A9CCDB"
             stroke-miterlimit="10"
             width="512"
             height="512"
             id="rect3790" /><line
             fill="none"
             stroke="#A9CCDB"
             stroke-miterlimit="10"
             x1="0"
             y1="480"
             x2="512"
             y2="480"
             id="line3792" /><line
             fill="none"
             stroke="#A9CCDB"
             stroke-miterlimit="10"
             x1="0"
             y1="448"
             x2="512"
             y2="448"
             id="line3794" /><line
             fill="none"
             stroke="#A9CCDB"
             stroke-miterlimit="10"
             x1="0"
             y1="416"
             x2="512"
             y2="416"
             id="line3796" /><line
             fill="none"
             stroke="#A9CCDB"
             stroke-miterlimit="10"
             x1="0"
             y1="384"
             x2="512"
             y2="384"
             id="line3798" /><line
             fill="none"
             stroke="#A9CCDB"
             stroke-miterlimit="10"
             x1="0"
             y1="352"
             x2="512"
             y2="352"
             id="line3800" /><line
             fill="none"
             stroke="#A9CCDB"
             stroke-miterlimit="10"
             x1="0"
             y1="320"
             x2="512"
             y2="320"
             id="line3802" /><line
             fill="none"
             stroke="#A9CCDB"
             stroke-miterlimit="10"
             x1="0"
             y1="288"
             x2="512"
             y2="288"
             id="line3804" /><line
             fill="none"
             stroke="#A9CCDB"
             stroke-miterlimit="10"
             x1="0"
             y1="256"
             x2="512"
             y2="256"
             id="line3806" /><line
             fill="none"
             stroke="#A9CCDB"
             stroke-miterlimit="10"
             x1="0"
             y1="224"
             x2="512"
             y2="224"
             id="line3808" /><line
             fill="none"
             stroke="#A9CCDB"
             stroke-miterlimit="10"
             x1="0"
             y1="192"
             x2="512"
             y2="192"
             id="line3810" /><line
             fill="none"
             stroke="#A9CCDB"
             stroke-miterlimit="10"
             x1="0"
             y1="160"
             x2="512"
             y2="160"
             id="line3812" /><line
             fill="none"
             stroke="#A9CCDB"
             stroke-miterlimit="10"
             x1="0"
             y1="128"
             x2="512"
             y2="128"
             id="line3814" /><line
             fill="none"
             stroke="#A9CCDB"
             stroke-miterlimit="10"
             x1="0"
             y1="96"
             x2="512"
             y2="96"
             id="line3816" /><line
             fill="none"
             stroke="#A9CCDB"
             stroke-miterlimit="10"
             x1="0"
             y1="64"
             x2="512"
             y2="64"
             id="line3818" /><line
             fill="none"
             stroke="#A9CCDB"
             stroke-miterlimit="10"
             x1="0"
             y1="32"
             x2="512"
             y2="32"
             id="line3820" /><line
             fill="none"
             stroke="#A9CCDB"
             stroke-miterlimit="10"
             x1="480"
             y1="0"
             x2="480"
             y2="512"
             id="line3822" /><line
             fill="none"
             stroke="#A9CCDB"
             stroke-miterlimit="10"
             x1="448"
             y1="0"
             x2="448"
             y2="512"
             id="line3824" /><line
             fill="none"
             stroke="#A9CCDB"
             stroke-miterlimit="10"
             x1="416"
             y1="0"
             x2="416"
             y2="512"
             id="line3826" /><line
             fill="none"
             stroke="#A9CCDB"
             stroke-miterlimit="10"
             x1="384"
             y1="0"
             x2="384"
             y2="512"
             id="line3828" /><line
             fill="none"
             stroke="#A9CCDB"
             stroke-miterlimit="10"
             x1="352"
             y1="0"
             x2="352"
             y2="512"
             id="line3830" /><line
             fill="none"
             stroke="#A9CCDB"
             stroke-miterlimit="10"
             x1="320"
             y1="0"
             x2="320"
             y2="512"
             id="line3832" /><line
             fill="none"
             stroke="#A9CCDB"
             stroke-miterlimit="10"
             x1="288"
             y1="0"
             x2="288"
             y2="512"
             id="line3834" /><line
             fill="none"
             stroke="#A9CCDB"
             stroke-miterlimit="10"
             x1="256"
             y1="0"
             x2="256"
             y2="512"
             id="line3836" /><line
             fill="none"
             stroke="#A9CCDB"
             stroke-miterlimit="10"
             x1="224"
             y1="0"
             x2="224"
             y2="512"
             id="line3838" /><line
             fill="none"
             stroke="#A9CCDB"
             stroke-miterlimit="10"
             x1="192"
             y1="0"
             x2="192"
             y2="512"
             id="line3840" /><line
             fill="none"
             stroke="#A9CCDB"
             stroke-miterlimit="10"
             x1="160"
             y1="0"
             x2="160"
             y2="512"
             id="line3842" /><line
             fill="none"
             stroke="#A9CCDB"
             stroke-miterlimit="10"
             x1="128"
             y1="0"
             x2="128"
             y2="512"
             id="line3844" /><line
             fill="none"
             stroke="#A9CCDB"
             stroke-miterlimit="10"
             x1="96"
             y1="0"
             x2="96"
             y2="512"
             id="line3846" /><line
             fill="none"
             stroke="#A9CCDB"
             stroke-miterlimit="10"
             x1="64"
             y1="0"
             x2="64"
             y2="512"
             id="line3848" /><line
             fill="none"
             stroke="#A9CCDB"
             stroke-miterlimit="10"
             x1="32"
             y1="0"
             x2="32"
             y2="512"
             id="line3850" /></g></g></g></g><g
     id="g3861"><g
       id="g3859"><path
         fill-rule="evenodd"
         clip-rule="evenodd"
         fill="#1D1D1B"
         d="M256,144c-61.75,0-112,50.25-112,112c0,61.75,50.25,112,112,112    s112-50.25,112-112C368,194.25,317.75,144,256,144z M256,336c-44.188,0-80-35.812-80-80s35.812-80,80-80s80,35.812,80,80    S300.188,336,256,336z M256,112c8.833,0,16-7.167,16-16V64c0-8.833-7.167-16-16-16s-16,7.167-16,16v32    C240,104.833,247.167,112,256,112z M256,400c-8.833,0-16,7.167-16,16v32c0,8.833,7.167,16,16,16s16-7.167,16-16v-32    C272,407.167,264.833,400,256,400z M380.438,154.167l22.625-22.625c6.25-6.25,6.25-16.375,0-22.625    c-6.25-6.25-16.375-6.25-22.625,0l-22.625,22.625c-6.25,6.25-6.25,16.375,0,22.625    C364.062,160.417,374.188,160.417,380.438,154.167z M131.562,357.834l-22.625,22.625c-6.25,6.249-6.25,16.374,0,22.624    s16.375,6.25,22.625,0l22.625-22.624c6.25-6.271,6.25-16.376,0-22.625C147.938,351.583,137.812,351.562,131.562,357.834z M112,256    c0-8.833-7.167-16-16-16H64c-8.833,0-16,7.167-16,16s7.167,16,16,16h32C104.833,272,112,264.833,112,256z M448,240h-32    c-8.833,0-16,7.167-16,16s7.167,16,16,16h32c8.833,0,16-7.167,16-16S456.833,240,448,240z M131.541,154.167    c6.251,6.25,16.376,6.25,22.625,0c6.251-6.25,6.251-16.375,0-22.625l-22.625-22.625c-6.25-6.25-16.374-6.25-22.625,0    c-6.25,6.25-6.25,16.375,0,22.625L131.541,154.167z M380.459,357.812c-6.271-6.25-16.376-6.25-22.625,0    c-6.251,6.25-6.271,16.375,0,22.625l22.625,22.625c6.249,6.25,16.374,6.25,22.624,0s6.25-16.374,0-22.625L380.459,357.812z"
         id="path3857" /></g></g><path
     style="stroke-width:2.16949153;fill:#ffffff"
     d="m 243.40051,365.66814 c -23.43416,-2.70203 -43.08629,-11.56499 -60.67558,-27.36417 -55.25859,-49.63478 -47.99091,-134.41413 15.1327,-176.52686 20.83582,-13.90055 53.69696,-19.85949 79.44029,-14.40546 58.18949,12.32814 97.57898,68.5698 88.02786,125.68917 -9.83394,58.81063 -63.23909,99.37408 -121.92527,92.60732 z m 31.08443,-31.33916 c 25.79986,-6.72001 43.09664,-20.86642 54.39161,-44.48491 6.11079,-12.77806 6.73648,-16.03625 6.66588,-34.71187 -0.0688,-18.20984 -0.8093,-22.12065 -6.35786,-33.57981 -28.93485,-59.75764 -112.97163,-61.83353 -144.03221,-3.5579 -21.35492,40.06593 -5.83583,89.42655 34.5502,109.8917 18.94281,9.59905 35.28555,11.52107 54.78238,6.44279 z"
     id="path3870"
     inkscape:connector-curvature="0" /><path
     style="fill:#ffffff;stroke-width:2.16949153"
     d="m 250.59838,109.60064 c -7.47397,-2.7648 -9.35092,-8.93931 -9.35092,-30.761199 0,-18.492267 0.46389,-20.810426 5.02118,-25.091777 6.57826,-6.17995 13.4472,-5.971425 20.02658,0.60796 4.81836,4.818357 5.32512,7.079672 5.32512,23.762325 0,10.140466 -1.11084,20.875231 -2.46853,23.855031 -2.9146,6.39687 -11.89743,10.08987 -18.55343,7.62766 z"
     id="path3872"
     inkscape:connector-curvature="0" /><path
     style="fill:#ffffff;stroke-width:2.16949153"
     d="m 358.77817,152.4839 c -8.03986,-8.55804 -6.14402,-13.84719 11.16912,-31.16034 17.26155,-17.26155 23.76859,-19.62124 31.84254,-11.54729 8.18064,8.18064 5.75691,14.97132 -11.44085,32.0543 -17.39694,17.28084 -23.43155,19.31717 -31.57081,10.65333 z"
     id="path3874"
     inkscape:connector-curvature="0" /><path
     style="fill:#ffffff;stroke-width:2.16949153"
     d="m 405.38031,266.35121 c -5.04087,-5.57011 -4.55177,-16.18504 0.97627,-21.18785 6.73999,-6.0996 44.87227,-6.0996 51.61226,0 5.79348,5.24303 5.9018,15.14228 0.22777,20.8163 -3.77975,3.77975 -7.23164,4.33898 -26.7824,4.33898 -18.98758,0 -22.99628,-0.6109 -26.0339,-3.96743 z"
     id="path3876"
     inkscape:connector-curvature="0" /><path
     style="fill:#ffffff;stroke-width:2.16949153"
     d="M 369.94729,391.11033 C 352.68574,373.84878 350.32605,367.34175 358.4,359.2678 c 8.46193,-8.46193 16.5567,-5.88632 32.91642,10.4734 16.58411,16.58411 19.00997,24.49778 10.06433,32.83191 -8.45313,7.87529 -14.18597,5.78471 -31.43346,-11.46278 z"
     id="path3878"
     inkscape:connector-curvature="0" /><path
     style="fill:#ffffff;stroke-width:2.16949153"
     d="m 246.96376,458.90695 c -5.51789,-4.34038 -5.7163,-5.2762 -5.7163,-26.96119 0,-21.68499 0.19841,-22.6208 5.7163,-26.96118 7.10491,-5.58872 11.86821,-5.67886 18.45013,-0.34914 4.80384,3.88991 5.1217,5.58484 5.1217,27.31032 0,21.72549 -0.31786,23.42042 -5.1217,27.31033 -6.58192,5.32971 -11.34522,5.23957 -18.45013,-0.34914 z"
     id="path3880"
     inkscape:connector-curvature="0" /><path
     style="fill:#ffffff;stroke-width:2.16949153"
     d=""
     id="path3882"
     inkscape:connector-curvature="0" /><path
     style="fill:#ffffff;stroke-width:2.16949153"
     d="m 111.41082,403.2 c -2.46775,-2.08814 -5.1214,-6.47731 -5.897,-9.75371 -1.24198,-5.24653 0.47279,-7.89903 14.37582,-22.23729 13.119,-13.52967 16.95013,-16.28019 22.67635,-16.28019 8.31216,0 14.61367,6.20801 14.61367,14.39682 0,4.4354 -3.96056,9.73444 -16.26877,21.76681 -16.97737,16.59688 -21.83733,18.59153 -29.50007,12.10756 z"
     id="path3884"
     inkscape:connector-curvature="0" /><path
     style="fill:#ffffff;stroke-width:2.16949153"
     d="m 52.659157,264.60234 c -5.220319,-6.63656 -5.329491,-7.43764 -2.007312,-14.72903 3.520551,-7.72676 14.334116,-10.64147 35.034164,-9.44316 14.801881,0.85686 18.028211,1.74992 21.410061,5.92633 5.19862,6.42002 5.05688,14.20922 -0.35709,19.62318 -3.78416,3.78417 -7.231635,4.33898 -26.961179,4.33898 -21.855099,0 -22.77467,-0.19383 -27.118644,-5.7163 z"
     id="path3886"
     inkscape:connector-curvature="0" /><path
     style="fill:#ffffff;stroke-width:2.16949153"
     d="m 121.75274,142.86102 c -17.57813,-17.33964 -20.05929,-23.89746 -12.06592,-31.89083 8.87759,-8.87759 15.09005,-7.32194 30.72824,7.69462 7.5763,7.27514 14.67973,15.82257 15.78539,18.9943 3.65074,10.4725 -3.3696,19.84597 -14.8638,19.84597 -2.93736,0 -10.38116,-5.56617 -19.58391,-14.64406 z"
     id="path3888"
     inkscape:connector-curvature="0" /></svg>