<?xml version="1.0" encoding="UTF-8" standalone="no"?>
<!-- Generator: Adobe Illustrator 15.1.0, SVG Export Plug-In . SVG Version: 6.00 Build 0)  -->

<svg
   xmlns:dc="http://purl.org/dc/elements/1.1/"
   xmlns:cc="http://creativecommons.org/ns#"
   xmlns:rdf="http://www.w3.org/1999/02/22-rdf-syntax-ns#"
   xmlns:svg="http://www.w3.org/2000/svg"
   xmlns="http://www.w3.org/2000/svg"
   xmlns:sodipodi="http://sodipodi.sourceforge.net/DTD/sodipodi-0.dtd"
   xmlns:inkscape="http://www.inkscape.org/namespaces/inkscape"
   version="1.1"
   id="Layer_1"
   x="0px"
   y="0px"
   width="512px"
   height="512px"
   viewBox="0 0 512 512"
   enable-background="new 0 0 512 512"
   xml:space="preserve"
   sodipodi:docname="01d_2.svg"
   inkscape:version="0.92.2 (5c3e80d, 2017-08-06)"><metadata
     id="metadata4048"><rdf:RDF><cc:Work
         rdf:about=""><dc:format>image/svg+xml</dc:format><dc:type
           rdf:resource="http://purl.org/dc/dcmitype/StillImage" /></cc:Work></rdf:RDF></metadata><defs
     id="defs4046" /><sodipodi:namedview
     pagecolor="#ffffff"
     bordercolor="#666666"
     borderopacity="1"
     objecttolerance="10"
     gridtolerance="10"
     guidetolerance="10"
     inkscape:pageopacity="0"
     inkscape:pageshadow="2"
     inkscape:window-width="640"
     inkscape:window-height="696"
     id="namedview4044"
     showgrid="false"
     inkscape:zoom="0.4609375"
     inkscape:cx="256"
     inkscape:cy="256"
     inkscape:window-x="0"
     inkscape:window-y="0"
     inkscape:window-maximized="0"
     inkscape:current-layer="Layer_1" /><g
     id="Grid_1_"><g
       id="Layer_1_1_"><g
         id="Grid"><g
           id="g4032"><rect
             fill="none"
             stroke="#A9CCDB"
             stroke-miterlimit="10"
             width="512"
             height="512"
             id="rect3970" /><line
             fill="none"
             stroke="#A9CCDB"
             stroke-miterlimit="10"
             x1="0"
             y1="480"
             x2="512"
             y2="480"
             id="line3972" /><line
             fill="none"
             stroke="#A9CCDB"
             stroke-miterlimit="10"
             x1="0"
             y1="448"
             x2="512"
             y2="448"
             id="line3974" /><line
             fill="none"
             stroke="#A9CCDB"
             stroke-miterlimit="10"
             x1="0"
             y1="416"
             x2="512"
             y2="416"
             id="line3976" /><line
             fill="none"
             stroke="#A9CCDB"
             stroke-miterlimit="10"
             x1="0"
             y1="384"
             x2="512"
             y2="384"
             id="line3978" /><line
             fill="none"
             stroke="#A9CCDB"
             stroke-miterlimit="10"
             x1="0"
             y1="352"
             x2="512"
             y2="352"
             id="line3980" /><line
             fill="none"
             stroke="#A9CCDB"
             stroke-miterlimit="10"
             x1="0"
             y1="320"
             x2="512"
             y2="320"
             id="line3982" /><line
             fill="none"
             stroke="#A9CCDB"
             stroke-miterlimit="10"
             x1="0"
             y1="288"
             x2="512"
             y2="288"
             id="line3984" /><line
             fill="none"
             stroke="#A9CCDB"
             stroke-miterlimit="10"
             x1="0"
             y1="256"
             x2="512"
             y2="256"
             id="line3986" /><line
             fill="none"
             stroke="#A9CCDB"
             stroke-miterlimit="10"
             x1="0"
             y1="224"
             x2="512"
             y2="224"
             id="line3988" /><line
             fill="none"
             stroke="#A9CCDB"
             stroke-miterlimit="10"
             x1="0"
             y1="192"
             x2="512"
             y2="192"
             id="line3990" /><line
             fill="none"
             stroke="#A9CCDB"
             stroke-miterlimit="10"
             x1="0"
             y1="160"
             x2="512"
             y2="160"
             id="line3992" /><line
             fill="none"
             stroke="#A9CCDB"
             stroke-miterlimit="10"
             x1="0"
             y1="128"
             x2="512"
             y2="128"
             id="line3994" /><line
             fill="none"
             stroke="#A9CCDB"
             stroke-miterlimit="10"
             x1="0"
             y1="96"
             x2="512"
             y2="96"
             id="line3996" /><line
             fill="none"
             stroke="#A9CCDB"
             stroke-miterlimit="10"
             x1="0"
             y1="64"
             x2="512"
             y2="64"
             id="line3998" /><line
             fill="none"
             stroke="#A9CCDB"
             stroke-miterlimit="10"
             x1="0"
             y1="32"
             x2="512"
             y2="32"
             id="line4000" /><line
             fill="none"
             stroke="#A9CCDB"
             stroke-miterlimit="10"
             x1="480"
             y1="0"
             x2="480"
             y2="512"
             id="line4002" /><line
             fill="none"
             stroke="#A9CCDB"
             stroke-miterlimit="10"
             x1="448"
             y1="0"
             x2="448"
             y2="512"
             id="line4004" /><line
             fill="none"
             stroke="#A9CCDB"
             stroke-miterlimit="10"
             x1="416"
             y1="0"
             x2="416"
             y2="512"
             id="line4006" /><line
             fill="none"
             stroke="#A9CCDB"
             stroke-miterlimit="10"
             x1="384"
             y1="0"
             x2="384"
             y2="512"
             id="line4008" /><line
             fill="none"
             stroke="#A9CCDB"
             stroke-miterlimit="10"
             x1="352"
             y1="0"
             x2="352"
             y2="512"
             id="line4010" /><line
             fill="none"
             stroke="#A9CCDB"
             stroke-miterlimit="10"
             x1="320"
             y1="0"
             x2="320"
             y2="512"
             id="line4012" /><line
             fill="none"
             stroke="#A9CCDB"
             stroke-miterlimit="10"
             x1="288"
             y1="0"
             x2="288"
             y2="512"
             id="line4014" /><line
             fill="none"
             stroke="#A9CCDB"
             stroke-miterlimit="10"
             x1="256"
             y1="0"
             x2="256"
             y2="512"
             id="line4016" /><line
             fill="none"
             stroke="#A9CCDB"
             stroke-miterlimit="10"
             x1="224"
             y1="0"
             x2="224"
             y2="512"
             id="line4018" /><line
             fill="none"
             stroke="#A9CCDB"
             stroke-miterlimit="10"
             x1="192"
             y1="0"
             x2="192"
             y2="512"
             id="line4020" /><line
             fill="none"
             stroke="#A9CCDB"
             stroke-miterlimit="10"
             x1="160"
             y1="0"
             x2="160"
             y2="512"
             id="line4022" /><line
             fill="none"
             stroke="#A9CCDB"
             stroke-miterlimit="10"
             x1="128"
             y1="0"
             x2="128"
             y2="512"
             id="line4024" /><line
             fill="none"
             stroke="#A9CCDB"
             stroke-miterlimit="10"
             x1="96"
             y1="0"
             x2="96"
             y2="512"
             id="line4026" /><line
             fill="none"
             stroke="#A9CCDB"
             stroke-miterlimit="10"
             x1="64"
             y1="0"
             x2="64"
             y2="512"
             id="line4028" /><line
             fill="none"
             stroke="#A9CCDB"
             stroke-miterlimit="10"
             x1="32"
             y1="0"
             x2="32"
             y2="512"
             id="line4030" /></g></g></g></g><g
     id="g4041"><g
       id="g4039"><path
         fill-rule="evenodd"
         clip-rule="evenodd"
         fill="#1D1D1B"
         d="M256,144c-61.75,0-112,50.25-112,112c0,61.749,50.25,112,112,112    s112-50.251,112-112C368,194.25,317.75,144,256,144z M256,112c8.833,0,16-7.146,16-16V64c0-8.833-7.167-16-16-16    c-8.854,0-16,7.167-16,16v32C240,104.854,247.146,112,256,112z M256,400c-8.854,0-16,7.167-16,16v32c0,8.854,7.146,16,16,16    c8.833,0,16-7.146,16-16v-32C272,407.167,264.833,400,256,400z M380.417,154.167l22.625-22.625c6.25-6.25,6.25-16.375,0-22.625    c-6.251-6.25-16.375-6.25-22.625,0l-22.625,22.625c-6.251,6.25-6.251,16.375,0,22.625    C364.042,160.416,374.166,160.416,380.417,154.167z M131.541,357.854l-22.623,22.625c-6.252,6.25-6.252,16.376,0,22.625    c6.249,6.25,16.373,6.25,22.623,0l22.625-22.625c6.251-6.291,6.251-16.375,0-22.625    C147.917,351.604,137.792,351.562,131.541,357.854z M112,256c0-8.833-7.167-16-16-16H64c-8.854,0-16,7.167-16,16    c0,8.854,7.146,16,16,16h32C104.833,272,112,264.854,112,256z M448,240h-32c-8.854,0-16,7.167-16,16c0,8.854,7.146,16,16,16h32    c8.833,0,16-7.146,16-16C464,247.167,456.833,240,448,240z M131.521,154.167c6.249,6.25,16.375,6.25,22.625,0    c6.249-6.25,6.249-16.375,0-22.625l-22.625-22.625c-6.25-6.25-16.376-6.25-22.625,0c-6.25,6.25-6.25,16.375,0,22.625    L131.521,154.167z M380.459,357.812c-6.293-6.25-16.376-6.25-22.625,0c-6.25,6.249-6.293,16.375,0,22.625l22.625,22.625    c6.249,6.249,16.374,6.249,22.625,0c6.249-6.25,6.249-16.376,0-22.625L380.459,357.812z"
         id="path4037" /></g></g><path
     style="fill:#ffffff;stroke-width:2.16949153"
     d="M 227.11918,362.95227 C 169.42449,347.09242 133.95229,286.3201 148.79283,228.76061 161.20772,180.60905 206.84189,144.92203 256,144.92203 c 48.9278,0 94.86524,35.79024 107.32216,83.61558 15.05686,57.80723 -21.05869,118.99194 -79.40389,134.52107 -14.30331,3.80698 -42.75699,3.75365 -56.79909,-0.10631 z"
     id="path4050"
     inkscape:connector-curvature="0" /><path
     style="fill:#ffffff;stroke-width:2.16949153"
     d="m 245.15254,105.87119 c -3.75019,-3.75019 -4.33898,-7.231641 -4.33898,-25.655729 0,-19.477055 0.43334,-21.723845 5.02118,-26.033898 6.51414,-6.119715 14.71324,-5.99891 20.63454,0.304026 4.17292,4.441863 4.71716,7.445528 4.71716,26.033898 0,23.762243 -3.03233,29.690683 -15.18644,29.690683 -3.61582,0 -8.43691,-1.92844 -10.84746,-4.33898 z"
     id="path4052"
     inkscape:connector-curvature="0" /><path
     style="fill:#ffffff;stroke-width:2.16949153"
     d="m 358.95223,152.61387 c -8.39014,-8.39015 -6.81106,-13.13029 10.22797,-30.70272 12.90472,-13.3087 16.72636,-16.03996 22.44342,-16.03996 8.41042,0 14.0713,5.7213 14.0713,14.2215 0,4.89972 -3.45801,9.76787 -15.67452,22.06646 -17.31363,17.42996 -22.38602,19.13686 -31.06817,10.45472 z"
     id="path4054"
     inkscape:connector-curvature="0" /><path
     style="fill:#ffffff;stroke-width:2.16949153"
     d="m 405.69492,266.41356 c -6.24276,-6.24275 -5.61647,-16.03614 1.37732,-21.53745 4.79158,-3.76906 8.78024,-4.49645 24.65657,-4.49645 22.183,0 30.37288,4.1374 30.37288,15.3439 0,12.08174 -5.95623,15.02898 -30.37288,15.02898 -18.80226,0 -22.27344,-0.57853 -26.03389,-4.33898 z"
     id="path4056"
     inkscape:connector-curvature="0" /><path
     style="fill:#ffffff;stroke-width:2.16949153"
     d="m 372.73564,392.78644 c -17.66841,-17.04298 -19.70187,-20.20259 -17.82208,-27.69224 1.60766,-6.40545 11.80375,-12.50371 17.55918,-10.50211 2.16372,0.75249 10.52387,7.79736 18.57811,15.65527 11.75259,11.46612 14.6375,15.58371 14.61084,20.85378 -0.0182,3.61166 -0.75047,7.64084 -1.62711,8.95374 -1.95286,2.92468 -10.15665,7.37563 -13.59442,7.37563 -1.38768,0 -9.35472,-6.58983 -17.70452,-14.64407 z"
     id="path4058"
     inkscape:connector-curvature="0" /><path
     style="fill:#ffffff;stroke-width:2.16949153"
     d="m 250.17572,461.63243 c -7.47233,-2.97879 -9.36216,-9.09379 -9.36216,-30.2935 0,-18.09417 0.45057,-20.21723 5.32511,-25.09178 6.75713,-6.75712 12.96553,-6.75712 19.72266,0 4.90126,4.90127 5.32511,6.95429 5.32511,25.79355 0,16.37474 -0.75932,21.34661 -3.79661,24.85925 -4.72355,5.46282 -11.03171,7.19705 -17.21411,4.73248 z"
     id="path4060"
     inkscape:connector-curvature="0" /><path
     style="fill:#ffffff;stroke-width:2.16949153"
     d="m 113.89831,404.83809 c -6.02051,-3.41402 -7.52158,-6.14155 -7.56,-13.73695 -0.0267,-5.27007 2.85825,-9.38766 14.61084,-20.85378 8.05424,-7.85791 16.41439,-14.90278 18.57811,-15.65527 9.85877,-3.42864 21.86971,10.61332 16.9346,19.79819 -3.27932,6.10325 -32.12384,33.04599 -35.30177,32.97426 -1.60754,-0.0363 -4.87534,-1.17319 -7.26178,-2.52645 z"
     id="path4062"
     inkscape:connector-curvature="0" /><path
     style="fill:#ffffff;stroke-width:2.16949153"
     d="m 54.720013,267.37529 c -7.055801,-4.94208 -6.591857,-16.61034 0.894596,-22.49918 4.791584,-3.76906 8.780247,-4.49645 24.656577,-4.49645 22.182994,0 30.372884,4.1374 30.372884,15.3439 0,12.01359 -5.99713,15.02898 -29.890159,15.02898 -15.687437,0 -22.468011,-0.87961 -26.033898,-3.37725 z"
     id="path4064"
     inkscape:connector-curvature="0" /><path
     style="fill:#ffffff;stroke-width:2.16949153"
     d="m 121.9796,142.15915 c -16.93833,-17.05214 -19.88892,-25.29302 -11.70708,-32.69748 8.40858,-7.60966 15.86112,-4.75903 32.54728,12.44948 17.03904,17.57243 18.61811,22.31257 10.22797,30.70272 -8.68215,8.68214 -13.75454,6.97524 -31.06817,-10.45472 z"
     id="path4066"
     inkscape:connector-curvature="0" /></svg>