<?xml version="1.0" encoding="UTF-8" standalone="no"?>
<!-- Generator: Adobe Illustrator 15.1.0, SVG Export Plug-In . SVG Version: 6.00 Build 0)  -->

<svg
   xmlns:dc="http://purl.org/dc/elements/1.1/"
   xmlns:cc="http://creativecommons.org/ns#"
   xmlns:rdf="http://www.w3.org/1999/02/22-rdf-syntax-ns#"
   xmlns:svg="http://www.w3.org/2000/svg"
   xmlns="http://www.w3.org/2000/svg"
   xmlns:sodipodi="http://sodipodi.sourceforge.net/DTD/sodipodi-0.dtd"
   xmlns:inkscape="http://www.inkscape.org/namespaces/inkscape"
   version="1.1"
   id="Layer_1"
   x="0px"
   y="0px"
   width="512px"
   height="512px"
   viewBox="0 0 512 512"
   enable-background="new 0 0 512 512"
   xml:space="preserve"
   sodipodi:docname="02d_n.svg"
   inkscape:version="0.92.2 (5c3e80d, 2017-08-06)"><metadata
     id="metadata4777"><rdf:RDF><cc:Work
         rdf:about=""><dc:format>image/svg+xml</dc:format><dc:type
           rdf:resource="http://purl.org/dc/dcmitype/StillImage" /></cc:Work></rdf:RDF></metadata><defs
     id="defs4775" /><sodipodi:namedview
     pagecolor="#ffffff"
     bordercolor="#666666"
     borderopacity="1"
     objecttolerance="10"
     gridtolerance="10"
     guidetolerance="10"
     inkscape:pageopacity="0"
     inkscape:pageshadow="2"
     inkscape:window-width="640"
     inkscape:window-height="696"
     id="namedview4773"
     showgrid="false"
     inkscape:zoom="0.4609375"
     inkscape:cx="256"
     inkscape:cy="256"
     inkscape:window-x="0"
     inkscape:window-y="0"
     inkscape:window-maximized="0"
     inkscape:current-layer="Layer_1" /><g
     id="Grid_1_"><g
       id="Layer_1_1_"><g
         id="Grid"><g
           id="g4761"><rect
             fill="none"
             stroke="#A9CCDB"
             stroke-miterlimit="10"
             width="512"
             height="512"
             id="rect4699" /><line
             fill="none"
             stroke="#A9CCDB"
             stroke-miterlimit="10"
             x1="0"
             y1="480"
             x2="512"
             y2="480"
             id="line4701" /><line
             fill="none"
             stroke="#A9CCDB"
             stroke-miterlimit="10"
             x1="0"
             y1="448"
             x2="512"
             y2="448"
             id="line4703" /><line
             fill="none"
             stroke="#A9CCDB"
             stroke-miterlimit="10"
             x1="0"
             y1="416"
             x2="512"
             y2="416"
             id="line4705" /><line
             fill="none"
             stroke="#A9CCDB"
             stroke-miterlimit="10"
             x1="0"
             y1="384"
             x2="512"
             y2="384"
             id="line4707" /><line
             fill="none"
             stroke="#A9CCDB"
             stroke-miterlimit="10"
             x1="0"
             y1="352"
             x2="512"
             y2="352"
             id="line4709" /><line
             fill="none"
             stroke="#A9CCDB"
             stroke-miterlimit="10"
             x1="0"
             y1="320"
             x2="512"
             y2="320"
             id="line4711" /><line
             fill="none"
             stroke="#A9CCDB"
             stroke-miterlimit="10"
             x1="0"
             y1="288"
             x2="512"
             y2="288"
             id="line4713" /><line
             fill="none"
             stroke="#A9CCDB"
             stroke-miterlimit="10"
             x1="0"
             y1="256"
             x2="512"
             y2="256"
             id="line4715" /><line
             fill="none"
             stroke="#A9CCDB"
             stroke-miterlimit="10"
             x1="0"
             y1="224"
             x2="512"
             y2="224"
             id="line4717" /><line
             fill="none"
             stroke="#A9CCDB"
             stroke-miterlimit="10"
             x1="0"
             y1="192"
             x2="512"
             y2="192"
             id="line4719" /><line
             fill="none"
             stroke="#A9CCDB"
             stroke-miterlimit="10"
             x1="0"
             y1="160"
             x2="512"
             y2="160"
             id="line4721" /><line
             fill="none"
             stroke="#A9CCDB"
             stroke-miterlimit="10"
             x1="0"
             y1="128"
             x2="512"
             y2="128"
             id="line4723" /><line
             fill="none"
             stroke="#A9CCDB"
             stroke-miterlimit="10"
             x1="0"
             y1="96"
             x2="512"
             y2="96"
             id="line4725" /><line
             fill="none"
             stroke="#A9CCDB"
             stroke-miterlimit="10"
             x1="0"
             y1="64"
             x2="512"
             y2="64"
             id="line4727" /><line
             fill="none"
             stroke="#A9CCDB"
             stroke-miterlimit="10"
             x1="0"
             y1="32"
             x2="512"
             y2="32"
             id="line4729" /><line
             fill="none"
             stroke="#A9CCDB"
             stroke-miterlimit="10"
             x1="480"
             y1="0"
             x2="480"
             y2="512"
             id="line4731" /><line
             fill="none"
             stroke="#A9CCDB"
             stroke-miterlimit="10"
             x1="448"
             y1="0"
             x2="448"
             y2="512"
             id="line4733" /><line
             fill="none"
             stroke="#A9CCDB"
             stroke-miterlimit="10"
             x1="416"
             y1="0"
             x2="416"
             y2="512"
             id="line4735" /><line
             fill="none"
             stroke="#A9CCDB"
             stroke-miterlimit="10"
             x1="384"
             y1="0"
             x2="384"
             y2="512"
             id="line4737" /><line
             fill="none"
             stroke="#A9CCDB"
             stroke-miterlimit="10"
             x1="352"
             y1="0"
             x2="352"
             y2="512"
             id="line4739" /><line
             fill="none"
             stroke="#A9CCDB"
             stroke-miterlimit="10"
             x1="320"
             y1="0"
             x2="320"
             y2="512"
             id="line4741" /><line
             fill="none"
             stroke="#A9CCDB"
             stroke-miterlimit="10"
             x1="288"
             y1="0"
             x2="288"
             y2="512"
             id="line4743" /><line
             fill="none"
             stroke="#A9CCDB"
             stroke-miterlimit="10"
             x1="256"
             y1="0"
             x2="256"
             y2="512"
             id="line4745" /><line
             fill="none"
             stroke="#A9CCDB"
             stroke-miterlimit="10"
             x1="224"
             y1="0"
             x2="224"
             y2="512"
             id="line4747" /><line
             fill="none"
             stroke="#A9CCDB"
             stroke-miterlimit="10"
             x1="192"
             y1="0"
             x2="192"
             y2="512"
             id="line4749" /><line
             fill="none"
             stroke="#A9CCDB"
             stroke-miterlimit="10"
             x1="160"
             y1="0"
             x2="160"
             y2="512"
             id="line4751" /><line
             fill="none"
             stroke="#A9CCDB"
             stroke-miterlimit="10"
             x1="128"
             y1="0"
             x2="128"
             y2="512"
             id="line4753" /><line
             fill="none"
             stroke="#A9CCDB"
             stroke-miterlimit="10"
             x1="96"
             y1="0"
             x2="96"
             y2="512"
             id="line4755" /><line
             fill="none"
             stroke="#A9CCDB"
             stroke-miterlimit="10"
             x1="64"
             y1="0"
             x2="64"
             y2="512"
             id="line4757" /><line
             fill="none"
             stroke="#A9CCDB"
             stroke-miterlimit="10"
             x1="32"
             y1="0"
             x2="32"
             y2="512"
             id="line4759" /></g></g></g></g><g
     id="g4770"><g
       id="g4768"><path
         fill="#1D1D1B"
         d="M208,64c8.833,0,16-7.167,16-16V16c0-8.833-7.167-16-16-16s-16,7.167-16,16v32    C192,56.833,199.167,64,208,64z M332.438,106.167l22.625-22.625c6.249-6.25,6.249-16.375,0-22.625    c-6.25-6.25-16.375-6.25-22.625,0l-22.625,22.625c-6.25,6.25-6.25,16.375,0,22.625    C316.062,112.417,326.188,112.417,332.438,106.167z M16,224h32c8.833,0,16-7.167,16-16s-7.167-16-16-16H16    c-8.833,0-16,7.167-16,16S7.167,224,16,224z M352,208c0,8.833,7.167,16,16,16h32c8.833,0,16-7.167,16-16s-7.167-16-16-16h-32    C359.167,192,352,199.167,352,208z M83.541,106.167c6.251,6.25,16.376,6.25,22.625,0c6.251-6.25,6.251-16.375,0-22.625    L83.541,60.917c-6.25-6.25-16.374-6.25-22.625,0c-6.25,6.25-6.25,16.375,0,22.625L83.541,106.167z M400,256    c-5.312,0-10.562,0.375-15.792,1.125c-16.771-22.875-39.124-40.333-64.458-51.5C318.459,145,268.938,96,208,96    c-61.75,0-112,50.25-112,112c0,17.438,4.334,33.75,11.5,48.438C47.875,258.875,0,307.812,0,368c0,61.75,50.25,112,112,112    c13.688,0,27.084-2.5,39.709-7.333C180.666,497.917,217.5,512,256,512c38.542,0,75.333-14.083,104.291-39.333    C372.916,477.5,386.312,480,400,480c61.75,0,112-50.25,112-112S461.75,256,400,256z M256,192c-45.938,0-88.5,19.812-118.375,53.25    C131.688,234.083,128,221.542,128,208c0-44.188,35.812-80,80-80c39.812,0,72.562,29.167,78.708,67.25    C276.688,193.25,266.459,192,256,192z"
         id="path4766" /></g></g><path
     style="fill:#ffffff;stroke-width:2.16949153"
     d="m 228.88136,508.51085 c -24.15214,-4.69532 -52.77941,-17.62543 -70.9742,-32.05699 -5.39176,-4.27659 -6.65953,-4.44063 -15.0022,-1.94109 -15.67826,4.69732 -38.4284,5.29404 -54.817037,1.43779 C 36.49853,463.81162 1.9149479,420.64046 1.9149479,368.37966 c 0,-54.05351 37.6260201,-99.35142 90.2884421,-108.69812 8.35254,-1.48243 15.34514,-2.77079 15.53911,-2.86301 0.19397,-0.0922 -1.97744,-7.00158 -4.82535,-15.35412 -20.078537,-58.88773 16.58694,-124.86842 78.32554,-140.94928 63.02633,-16.416271 128.3754,28.90868 136.60099,94.74398 l 1.45488,11.64457 14.45241,7.49309 c 9.17962,4.75931 21.1803,14.03031 32.8931,25.41121 l 18.44068,17.91814 15.273,0.005 c 30.69262,0.01 54.2764,9.95162 77.1681,32.53137 22.5135,22.20672 32.73548,46.89929 32.61119,78.77673 -0.16705,42.82865 -23.07122,79.08107 -61.98418,98.10747 -25.89418,12.66091 -49.91965,14.48797 -83.72365,6.36691 -4.12956,-0.99206 -7.58343,0.38962 -14.10169,5.64124 -11.18692,9.01309 -39.80403,22.70927 -56.36142,26.97464 -18.72462,4.82367 -47.1691,5.86452 -65.08474,2.38164 z M 177.409,214.55784 c 28.00818,-16.50163 64.26077,-24.45748 93.44471,-20.507 l 15.51917,2.10075 v -5.74284 c 0,-9.2467 -12.32282,-31.27732 -22.99999,-41.11921 -5.42694,-5.00238 -15.40765,-11.69251 -22.17934,-14.86696 -10.76246,-5.04524 -15.04293,-5.77115 -34.00711,-5.76708 -20.10829,0.004 -22.64947,0.50353 -34.74712,6.82609 -15.36671,8.03106 -31.99395,24.97249 -38.6124,39.34205 -6.44418,13.99119 -6.80164,49.16189 -0.63878,62.84994 l 4.1034,9.11386 12.76323,-11.81649 c 7.01977,-6.49908 19.32918,-15.68498 27.35423,-20.41311 z"
     id="path4779"
     inkscape:connector-curvature="0" /><path
     style="fill:#ffffff;stroke-width:2.16949153"
     d="m 6.8716865,219.22712 c -6.89830204,-5.8769 -7.05620414,-15.5443 -0.3632119,-22.23729 3.7212334,-3.72123 7.2316384,-4.33898 24.6565774,-4.33898 17.269729,0 21.175105,0.67451 26.033898,4.49644 7.252406,5.70475 7.548598,14.72078 0.695122,21.15928 -4.433607,4.16516 -7.451951,4.71716 -25.793553,4.71716 -16.639184,0 -21.659097,-0.75543 -25.2288325,-3.79661 z"
     id="path4781"
     inkscape:connector-curvature="0" /><path
     style="fill:#ffffff;stroke-width:2.16949153"
     d="M 73.368259,93.24869 C 64.039445,83.919876 56.40678,74.776959 56.40678,72.931096 c 0,-6.759408 8.656805,-14.788723 15.94446,-14.788723 5.719702,0 9.600367,2.66925 21.899035,15.062888 12.256345,12.350985 14.947465,16.317776 14.947465,22.032991 0,7.788698 -6.89679,14.971918 -14.37491,14.971918 -2.715002,0 -11.205407,-6.71231 -21.454571,-16.96148 z"
     id="path4783"
     inkscape:connector-curvature="0" /><path
     style="fill:#ffffff;stroke-width:2.16949153"
     d="m 197.42373,58.142373 c -3.76045,-3.760451 -4.33898,-7.231638 -4.33898,-26.033898 0,-18.80226 0.57853,-22.2734468 4.33898,-26.0338987 6.24275,-6.24275183 16.03614,-5.61646439 21.53745,1.3773205 6.59646,8.3860322 6.59646,40.9271242 0,49.3131552 -5.50131,6.993785 -15.2947,7.620072 -21.53745,1.377321 z"
     id="path4785"
     inkscape:connector-curvature="0" /><path
     style="fill:#ffffff;stroke-width:2.16949153"
     d="m 311.22342,104.88505 c -8.39015,-8.390143 -6.81107,-13.130281 10.22797,-30.702714 12.90472,-13.308695 16.72636,-16.039963 22.44342,-16.039963 8.48405,0 14.07129,5.736916 14.07129,14.448252 0,5.248438 -3.11506,9.533889 -16.03996,22.066462 -17.57243,17.039033 -22.31257,18.618113 -30.70272,10.227963 z"
     id="path4787"
     inkscape:connector-curvature="0" /><path
     style="fill:#ffffff;stroke-width:2.16949153"
     d="m 357.9661,218.68475 c -6.24275,-6.24276 -5.61646,-16.03615 1.37732,-21.53746 4.79159,-3.76906 8.78025,-4.49644 24.65658,-4.49644 22.18299,0 30.37288,4.1374 30.37288,15.3439 0,12.08174 -5.95624,15.02898 -30.37288,15.02898 -18.80226,0 -22.27345,-0.57853 -26.0339,-4.33898 z"
     id="path4789"
     inkscape:connector-curvature="0" /></svg>