<?xml version="1.0" encoding="UTF-8" standalone="no"?>
<!-- Generator: Adobe Illustrator 15.1.0, SVG Export Plug-In . SVG Version: 6.00 Build 0)  -->

<svg
   xmlns:dc="http://purl.org/dc/elements/1.1/"
   xmlns:cc="http://creativecommons.org/ns#"
   xmlns:rdf="http://www.w3.org/1999/02/22-rdf-syntax-ns#"
   xmlns:svg="http://www.w3.org/2000/svg"
   xmlns="http://www.w3.org/2000/svg"
   xmlns:sodipodi="http://sodipodi.sourceforge.net/DTD/sodipodi-0.dtd"
   xmlns:inkscape="http://www.inkscape.org/namespaces/inkscape"
   version="1.1"
   id="Layer_1"
   x="0px"
   y="0px"
   width="512px"
   height="512px"
   viewBox="0 0 512 512"
   enable-background="new 0 0 512 512"
   xml:space="preserve"
   sodipodi:docname="02n.svg"
   inkscape:version="0.92.2 (5c3e80d, 2017-08-06)"><metadata
     id="metadata4941"><rdf:RDF><cc:Work
         rdf:about=""><dc:format>image/svg+xml</dc:format><dc:type
           rdf:resource="http://purl.org/dc/dcmitype/StillImage" /></cc:Work></rdf:RDF></metadata><defs
     id="defs4939" /><sodipodi:namedview
     pagecolor="#ffffff"
     bordercolor="#666666"
     borderopacity="1"
     objecttolerance="10"
     gridtolerance="10"
     guidetolerance="10"
     inkscape:pageopacity="0"
     inkscape:pageshadow="2"
     inkscape:window-width="1366"
     inkscape:window-height="705"
     id="namedview4937"
     showgrid="false"
     inkscape:zoom="0.4609375"
     inkscape:cx="256"
     inkscape:cy="256"
     inkscape:window-x="-8"
     inkscape:window-y="-8"
     inkscape:window-maximized="1"
     inkscape:current-layer="Layer_1" /><g
     id="Grid_1_"><g
       id="Layer_1_1_"><g
         id="Grid"><g
           id="g4929"><rect
             fill="none"
             stroke="#A9CCDB"
             stroke-miterlimit="10"
             width="512"
             height="512"
             id="rect4867" /><line
             fill="none"
             stroke="#A9CCDB"
             stroke-miterlimit="10"
             x1="0"
             y1="480"
             x2="512"
             y2="480"
             id="line4869" /><line
             fill="none"
             stroke="#A9CCDB"
             stroke-miterlimit="10"
             x1="0"
             y1="448"
             x2="512"
             y2="448"
             id="line4871" /><line
             fill="none"
             stroke="#A9CCDB"
             stroke-miterlimit="10"
             x1="0"
             y1="416"
             x2="512"
             y2="416"
             id="line4873" /><line
             fill="none"
             stroke="#A9CCDB"
             stroke-miterlimit="10"
             x1="0"
             y1="384"
             x2="512"
             y2="384"
             id="line4875" /><line
             fill="none"
             stroke="#A9CCDB"
             stroke-miterlimit="10"
             x1="0"
             y1="352"
             x2="512"
             y2="352"
             id="line4877" /><line
             fill="none"
             stroke="#A9CCDB"
             stroke-miterlimit="10"
             x1="0"
             y1="320"
             x2="512"
             y2="320"
             id="line4879" /><line
             fill="none"
             stroke="#A9CCDB"
             stroke-miterlimit="10"
             x1="0"
             y1="288"
             x2="512"
             y2="288"
             id="line4881" /><line
             fill="none"
             stroke="#A9CCDB"
             stroke-miterlimit="10"
             x1="0"
             y1="256"
             x2="512"
             y2="256"
             id="line4883" /><line
             fill="none"
             stroke="#A9CCDB"
             stroke-miterlimit="10"
             x1="0"
             y1="224"
             x2="512"
             y2="224"
             id="line4885" /><line
             fill="none"
             stroke="#A9CCDB"
             stroke-miterlimit="10"
             x1="0"
             y1="192"
             x2="512"
             y2="192"
             id="line4887" /><line
             fill="none"
             stroke="#A9CCDB"
             stroke-miterlimit="10"
             x1="0"
             y1="160"
             x2="512"
             y2="160"
             id="line4889" /><line
             fill="none"
             stroke="#A9CCDB"
             stroke-miterlimit="10"
             x1="0"
             y1="128"
             x2="512"
             y2="128"
             id="line4891" /><line
             fill="none"
             stroke="#A9CCDB"
             stroke-miterlimit="10"
             x1="0"
             y1="96"
             x2="512"
             y2="96"
             id="line4893" /><line
             fill="none"
             stroke="#A9CCDB"
             stroke-miterlimit="10"
             x1="0"
             y1="64"
             x2="512"
             y2="64"
             id="line4895" /><line
             fill="none"
             stroke="#A9CCDB"
             stroke-miterlimit="10"
             x1="0"
             y1="32"
             x2="512"
             y2="32"
             id="line4897" /><line
             fill="none"
             stroke="#A9CCDB"
             stroke-miterlimit="10"
             x1="480"
             y1="0"
             x2="480"
             y2="512"
             id="line4899" /><line
             fill="none"
             stroke="#A9CCDB"
             stroke-miterlimit="10"
             x1="448"
             y1="0"
             x2="448"
             y2="512"
             id="line4901" /><line
             fill="none"
             stroke="#A9CCDB"
             stroke-miterlimit="10"
             x1="416"
             y1="0"
             x2="416"
             y2="512"
             id="line4903" /><line
             fill="none"
             stroke="#A9CCDB"
             stroke-miterlimit="10"
             x1="384"
             y1="0"
             x2="384"
             y2="512"
             id="line4905" /><line
             fill="none"
             stroke="#A9CCDB"
             stroke-miterlimit="10"
             x1="352"
             y1="0"
             x2="352"
             y2="512"
             id="line4907" /><line
             fill="none"
             stroke="#A9CCDB"
             stroke-miterlimit="10"
             x1="320"
             y1="0"
             x2="320"
             y2="512"
             id="line4909" /><line
             fill="none"
             stroke="#A9CCDB"
             stroke-miterlimit="10"
             x1="288"
             y1="0"
             x2="288"
             y2="512"
             id="line4911" /><line
             fill="none"
             stroke="#A9CCDB"
             stroke-miterlimit="10"
             x1="256"
             y1="0"
             x2="256"
             y2="512"
             id="line4913" /><line
             fill="none"
             stroke="#A9CCDB"
             stroke-miterlimit="10"
             x1="224"
             y1="0"
             x2="224"
             y2="512"
             id="line4915" /><line
             fill="none"
             stroke="#A9CCDB"
             stroke-miterlimit="10"
             x1="192"
             y1="0"
             x2="192"
             y2="512"
             id="line4917" /><line
             fill="none"
             stroke="#A9CCDB"
             stroke-miterlimit="10"
             x1="160"
             y1="0"
             x2="160"
             y2="512"
             id="line4919" /><line
             fill="none"
             stroke="#A9CCDB"
             stroke-miterlimit="10"
             x1="128"
             y1="0"
             x2="128"
             y2="512"
             id="line4921" /><line
             fill="none"
             stroke="#A9CCDB"
             stroke-miterlimit="10"
             x1="96"
             y1="0"
             x2="96"
             y2="512"
             id="line4923" /><line
             fill="none"
             stroke="#A9CCDB"
             stroke-miterlimit="10"
             x1="64"
             y1="0"
             x2="64"
             y2="512"
             id="line4925" /><line
             fill="none"
             stroke="#A9CCDB"
             stroke-miterlimit="10"
             x1="32"
             y1="0"
             x2="32"
             y2="512"
             id="line4927" /></g></g></g></g><path
     fill="#1D1D1B"
     d="M435.062,262.166c4.875-3.625,9.812-7.188,14.229-11.604c13.208-13.229,23.271-29.333,29.792-47.854  c2.083-5.792,0.604-12.292-3.772-16.625c-4.354-4.375-10.812-5.854-16.623-3.792c-35.396,12.5-73.688,4-99.896-22.25  C332.542,133.79,324,95.52,336.542,60.145c2.042-5.813,0.583-12.271-3.792-16.646c-4.333-4.333-10.812-5.834-16.625-3.791  C297.583,46.29,281.5,56.331,268.291,69.54c-33.541,33.5-43.979,81-32.479,123.792c-43.25,5.521-82.125,28.5-108.021,63.793  c-5.229-0.75-10.479-1.125-15.792-1.125c-61.75,0-112,50.25-112,112.001c0,61.749,50.25,111.999,112,111.999  c13.688,0,27.084-2.5,39.709-7.334C180.665,497.916,217.499,512,255.999,512c38.542,0,75.333-14.084,104.291-39.334  C372.915,477.5,386.311,480,399.999,480c61.75,0,112-50.25,112-111.999C512,318.562,479.583,276.979,435.062,262.166z   M290.916,92.166c2.542-2.583,5.271-4.979,8.146-7.229c-2.25,35.979,10.729,71.375,37.104,97.729  c26.376,26.375,61.771,39.333,97.751,37.104c-13.792,17.584-32.792,28.521-53.126,33.188  c-27.375-34.75-67.604-56.625-111.958-60.187C256.562,158.812,263.75,119.333,290.916,92.166z M400,448  c-17.125,0-32.916-5.5-45.938-14.667C330.583,461.625,295.624,480,256,480c-39.625,0-74.584-18.375-98.062-46.667  C144.938,442.5,129.126,448,112,448c-44.188,0-80-35.812-80-79.999c0-44.188,35.812-80,80-80c10.812,0,21.062,2.188,30.438,6.062  c20.188-39.355,59.75-66.896,106.312-69.543c2.438-0.145,4.812-0.521,7.25-0.521c12.916,0,25.312,2.021,37,5.583  c15.791,4.834,30.188,12.708,42.688,22.854c11.938,9.688,21.938,21.562,29.812,34.896c1.333,2.25,2.834,4.375,4.041,6.729  c9.396-3.875,19.668-6.062,30.459-6.062c44.188,0,80,35.812,80,80S444.188,448,400,448z"
     id="path4934" /><path
     style="fill:#ffffff;stroke-width:2.16949153"
     d="m 193.51864,248.52392 c 0,-5.8522 1.30315,-7.21498 11.38983,-11.91101 16.1593,-7.52323 16.81356,-7.2669 16.81356,6.58709 v 11.9322 h -14.10169 -14.1017 z"
     id="path4943"
     inkscape:connector-curvature="0" /><path
     style="fill:#ffffff;stroke-width:2.16949153"
     d="m 226.06102,508.04126 c -20.54692,-4.32883 -41.01379,-13.16039 -58.64231,-25.30449 l -15.49794,-10.67637 -12.59896,3.26471 C 77.424913,491.36421 13.383697,449.06077 2.5390386,384.97111 -3.2348927,350.84837 8.5322717,315.98369 34.602715,289.97031 56.807372,267.81425 82.432655,257.30169 114.23534,257.30169 h 13.79126 l 14.82543,-15.35647 c 22.77583,-23.59166 55.59661,-41.52134 84.98537,-46.4267 7.51613,-1.25453 9.09398,-2.27222 7.97637,-5.1446 -3.02158,-7.76566 -3.78325,-41.68702 -1.23401,-54.9575 6.9739,-36.303961 33.32604,-71.371269 65.63192,-87.337698 18.72481,-9.254303 26.36975,-9.468877 32.72428,-0.918488 4.08693,5.499171 4.11653,6.268061 0.75694,19.66403 -11.89326,47.423156 9.09997,92.668846 52.42598,112.991106 12.42925,5.83 17.64035,6.96635 35.23959,7.68444 14.31667,0.58416 24.04775,-0.16531 31.71669,-2.44273 12.71823,-3.77691 19.51347,-1.77607 23.90868,7.03984 5.71327,11.45967 -14.90082,47.49225 -37.01673,64.70371 -3.46353,2.69544 -5.90421,5.18732 -5.42373,5.5375 0.48046,0.35017 7.4173,3.79192 15.41519,7.64834 26.31902,12.69049 49.47615,41.20949 57.28996,70.55512 3.84937,14.45665 3.78531,40.59104 -0.13559,55.32245 -15.50939,58.27104 -76.71799,94.45968 -134.36893,79.4435 l -12.60152,-3.28227 -10.09612,7.41125 c -13.84311,10.16177 -37.83118,21.90442 -53.47686,26.17802 -17.98782,4.91333 -52.98794,6.11796 -70.50847,2.42672 z m 69.87055,-33.61573 c 15.81499,-5.03194 43.78434,-22.51023 52.39264,-32.74064 l 5.38878,-6.40418 12.64859,5.92574 c 11.13444,5.21639 15.24569,5.92575 34.3435,5.92575 19.21311,0 23.06819,-0.67445 33.69943,-5.89568 15.32475,-7.52633 30.98025,-23.18184 38.50659,-38.50658 5.27807,-10.74695 5.89568,-14.39087 5.89568,-34.78418 0,-20.3933 -0.61761,-24.03723 -5.89568,-34.78417 -7.54812,-15.36911 -23.20165,-30.99574 -38.49596,-38.42985 -10.27347,-4.99363 -14.84546,-5.84978 -31.54056,-5.90631 -10.73899,-0.0365 -22.56547,0.7145 -26.28109,1.66855 -6.36905,1.63539 -7.13919,1.13875 -13.45669,-8.67796 -38.39807,-59.66641 -118.84826,-75.96739 -178.66483,-36.20141 -15.48199,10.29241 -29.58352,24.77309 -37.28575,38.28824 -4.24611,7.45066 -5.21674,8.01679 -11.1591,6.50847 -3.57966,-0.9086 -15.29492,-1.63963 -26.0339,-1.62453 -16.586387,0.0234 -21.398499,0.90116 -31.969171,5.83196 -14.914538,6.95702 -31.478318,22.9125 -38.18278,36.7805 -19.981364,41.33094 -2.837382,90.67624 38.18278,109.90099 10.906515,5.11152 15.124417,5.83196 34.143511,5.83196 19.24418,0 23.04872,-0.66759 33.62031,-5.89941 l 11.92054,-5.89941 9.76952,9.5665 c 16.34409,16.00445 43.52869,29.94584 67.26105,34.49425 12.35704,2.36828 46.96507,-0.44176 61.19259,-4.9686 z M 401.14176,246.59464 c 12.71216,-6.01388 33.19044,-22.33373 33.19044,-26.45061 0,-1.04125 -5.96076,-1.89318 -13.24617,-1.89318 -38.93682,0 -78.4304,-22.77976 -101.57414,-58.58764 -11.02649,-17.06013 -17.48728,-37.10513 -19.09565,-59.24544 l -1.23147,-16.951725 -9.5711,9.358503 c -5.26412,5.147177 -13.1087,16.496562 -17.43239,25.220852 -6.71277,13.54495 -8.00366,18.57563 -8.83605,34.43435 -0.53613,10.2146 0.15164,23.60563 1.52851,29.75786 l 2.50329,11.18587 15.89641,2.52923 c 30.89566,4.91571 61.48486,20.98341 83.57998,43.90234 6.6862,6.93551 14.10929,12.72122 16.49573,12.85713 2.38644,0.13592 10.39313,-2.61698 17.79261,-6.11754 z"
     id="path4945"
     inkscape:connector-curvature="0" /></svg>