<?xml version="1.0" encoding="UTF-8" standalone="no"?>
<!-- Generator: Adobe Illustrator 15.1.0, SVG Export Plug-In . SVG Version: 6.00 Build 0)  -->

<svg
   xmlns:dc="http://purl.org/dc/elements/1.1/"
   xmlns:cc="http://creativecommons.org/ns#"
   xmlns:rdf="http://www.w3.org/1999/02/22-rdf-syntax-ns#"
   xmlns:svg="http://www.w3.org/2000/svg"
   xmlns="http://www.w3.org/2000/svg"
   xmlns:sodipodi="http://sodipodi.sourceforge.net/DTD/sodipodi-0.dtd"
   xmlns:inkscape="http://www.inkscape.org/namespaces/inkscape"
   version="1.1"
   id="Layer_1"
   x="0px"
   y="0px"
   width="512px"
   height="512px"
   viewBox="0 0 512 512"
   enable-background="new 0 0 512 512"
   xml:space="preserve"
   sodipodi:docname="03n.svg"
   inkscape:version="0.92.2 (5c3e80d, 2017-08-06)"><metadata
     id="metadata5251"><rdf:RDF><cc:Work
         rdf:about=""><dc:format>image/svg+xml</dc:format><dc:type
           rdf:resource="http://purl.org/dc/dcmitype/StillImage" /></cc:Work></rdf:RDF></metadata><defs
     id="defs5249" /><sodipodi:namedview
     pagecolor="#ffffff"
     bordercolor="#666666"
     borderopacity="1"
     objecttolerance="10"
     gridtolerance="10"
     guidetolerance="10"
     inkscape:pageopacity="0"
     inkscape:pageshadow="2"
     inkscape:window-width="1366"
     inkscape:window-height="705"
     id="namedview5247"
     showgrid="false"
     inkscape:zoom="0.4609375"
     inkscape:cx="256"
     inkscape:cy="256"
     inkscape:window-x="-8"
     inkscape:window-y="-8"
     inkscape:window-maximized="1"
     inkscape:current-layer="Layer_1" /><g
     id="Grid_1_"><g
       id="Layer_1_1_"><g
         id="Grid"><g
           id="g5239"><rect
             fill="none"
             stroke="#A9CCDB"
             stroke-miterlimit="10"
             width="512"
             height="512"
             id="rect5177" /><line
             fill="none"
             stroke="#A9CCDB"
             stroke-miterlimit="10"
             x1="0"
             y1="480"
             x2="512"
             y2="480"
             id="line5179" /><line
             fill="none"
             stroke="#A9CCDB"
             stroke-miterlimit="10"
             x1="0"
             y1="448"
             x2="512"
             y2="448"
             id="line5181" /><line
             fill="none"
             stroke="#A9CCDB"
             stroke-miterlimit="10"
             x1="0"
             y1="416"
             x2="512"
             y2="416"
             id="line5183" /><line
             fill="none"
             stroke="#A9CCDB"
             stroke-miterlimit="10"
             x1="0"
             y1="384"
             x2="512"
             y2="384"
             id="line5185" /><line
             fill="none"
             stroke="#A9CCDB"
             stroke-miterlimit="10"
             x1="0"
             y1="352"
             x2="512"
             y2="352"
             id="line5187" /><line
             fill="none"
             stroke="#A9CCDB"
             stroke-miterlimit="10"
             x1="0"
             y1="320"
             x2="512"
             y2="320"
             id="line5189" /><line
             fill="none"
             stroke="#A9CCDB"
             stroke-miterlimit="10"
             x1="0"
             y1="288"
             x2="512"
             y2="288"
             id="line5191" /><line
             fill="none"
             stroke="#A9CCDB"
             stroke-miterlimit="10"
             x1="0"
             y1="256"
             x2="512"
             y2="256"
             id="line5193" /><line
             fill="none"
             stroke="#A9CCDB"
             stroke-miterlimit="10"
             x1="0"
             y1="224"
             x2="512"
             y2="224"
             id="line5195" /><line
             fill="none"
             stroke="#A9CCDB"
             stroke-miterlimit="10"
             x1="0"
             y1="192"
             x2="512"
             y2="192"
             id="line5197" /><line
             fill="none"
             stroke="#A9CCDB"
             stroke-miterlimit="10"
             x1="0"
             y1="160"
             x2="512"
             y2="160"
             id="line5199" /><line
             fill="none"
             stroke="#A9CCDB"
             stroke-miterlimit="10"
             x1="0"
             y1="128"
             x2="512"
             y2="128"
             id="line5201" /><line
             fill="none"
             stroke="#A9CCDB"
             stroke-miterlimit="10"
             x1="0"
             y1="96"
             x2="512"
             y2="96"
             id="line5203" /><line
             fill="none"
             stroke="#A9CCDB"
             stroke-miterlimit="10"
             x1="0"
             y1="64"
             x2="512"
             y2="64"
             id="line5205" /><line
             fill="none"
             stroke="#A9CCDB"
             stroke-miterlimit="10"
             x1="0"
             y1="32"
             x2="512"
             y2="32"
             id="line5207" /><line
             fill="none"
             stroke="#A9CCDB"
             stroke-miterlimit="10"
             x1="480"
             y1="0"
             x2="480"
             y2="512"
             id="line5209" /><line
             fill="none"
             stroke="#A9CCDB"
             stroke-miterlimit="10"
             x1="448"
             y1="0"
             x2="448"
             y2="512"
             id="line5211" /><line
             fill="none"
             stroke="#A9CCDB"
             stroke-miterlimit="10"
             x1="416"
             y1="0"
             x2="416"
             y2="512"
             id="line5213" /><line
             fill="none"
             stroke="#A9CCDB"
             stroke-miterlimit="10"
             x1="384"
             y1="0"
             x2="384"
             y2="512"
             id="line5215" /><line
             fill="none"
             stroke="#A9CCDB"
             stroke-miterlimit="10"
             x1="352"
             y1="0"
             x2="352"
             y2="512"
             id="line5217" /><line
             fill="none"
             stroke="#A9CCDB"
             stroke-miterlimit="10"
             x1="320"
             y1="0"
             x2="320"
             y2="512"
             id="line5219" /><line
             fill="none"
             stroke="#A9CCDB"
             stroke-miterlimit="10"
             x1="288"
             y1="0"
             x2="288"
             y2="512"
             id="line5221" /><line
             fill="none"
             stroke="#A9CCDB"
             stroke-miterlimit="10"
             x1="256"
             y1="0"
             x2="256"
             y2="512"
             id="line5223" /><line
             fill="none"
             stroke="#A9CCDB"
             stroke-miterlimit="10"
             x1="224"
             y1="0"
             x2="224"
             y2="512"
             id="line5225" /><line
             fill="none"
             stroke="#A9CCDB"
             stroke-miterlimit="10"
             x1="192"
             y1="0"
             x2="192"
             y2="512"
             id="line5227" /><line
             fill="none"
             stroke="#A9CCDB"
             stroke-miterlimit="10"
             x1="160"
             y1="0"
             x2="160"
             y2="512"
             id="line5229" /><line
             fill="none"
             stroke="#A9CCDB"
             stroke-miterlimit="10"
             x1="128"
             y1="0"
             x2="128"
             y2="512"
             id="line5231" /><line
             fill="none"
             stroke="#A9CCDB"
             stroke-miterlimit="10"
             x1="96"
             y1="0"
             x2="96"
             y2="512"
             id="line5233" /><line
             fill="none"
             stroke="#A9CCDB"
             stroke-miterlimit="10"
             x1="64"
             y1="0"
             x2="64"
             y2="512"
             id="line5235" /><line
             fill="none"
             stroke="#A9CCDB"
             stroke-miterlimit="10"
             x1="32"
             y1="0"
             x2="32"
             y2="512"
             id="line5237" /></g></g></g></g><path
     fill-rule="evenodd"
     clip-rule="evenodd"
     fill="#1D1D1B"
     d="M400,160c-5.312,0-10.562,0.375-15.792,1.125  C354.334,120.417,307.188,96,256,96s-98.312,24.417-128.208,65.125C122.562,160.375,117.312,160,112,160C50.25,160,0,210.25,0,272  c0,61.75,50.25,112,112,112c13.688,0,27.084-2.5,39.709-7.333C180.666,401.917,217.5,416,256,416  c38.542,0,75.333-14.083,104.291-39.333C372.916,381.5,386.312,384,400,384c61.75,0,112-50.25,112-112  C512,210.25,461.75,160,400,160z M400,352c-17.125,0-32.916-5.5-45.938-14.667C330.584,365.624,295.624,384,256,384  c-39.625,0-74.584-18.376-98.062-46.667C144.938,346.5,129.125,352,112,352c-44.188,0-80-35.812-80-80s35.812-80,80-80  c10.812,0,21.062,2.208,30.438,6.083C163.667,156.667,206.291,128,256,128s92.334,28.667,113.541,70.083  C378.938,194.208,389.209,192,400,192c44.188,0,80,35.812,80,80S444.188,352,400,352z"
     id="path5244" /><path
     style="fill:#ffffff;stroke-width:2.16949153"
     d="m 193.51864,152.42959 c 0,-7.69277 1.90645,-9.18276 20.0678,-15.68409 l 8.13559,-2.91235 v 12.92071 12.92072 h -14.10169 -14.1017 z"
     id="path5253"
     inkscape:connector-curvature="0" /><path
     style="fill:#ffffff;stroke-width:2.16949153"
     d="m 233.73175,413.39349 c -24.57995,-3.83339 -50.92614,-14.7926 -71.11704,-29.58247 l -10.29377,-7.54022 -15.08366,3.4307 C 118.5371,383.95477 105.263,383.99885 87.733656,379.86595 43.697599,369.48335 9.804004,333.0834 2.3952881,288.21695 -2.1589934,260.63668 5.5528483,229.78851 22.668652,207.12139 44.864167,177.72701 75.724427,161.84407 110.64166,161.84407 h 16.13208 l 16.79206,-16.81356 c 24.96989,-25.00187 50.53361,-38.76216 83.85688,-45.137946 51.70712,-9.89321 101.28755,5.976366 140.46062,44.958306 l 17.07653,16.9932 h 16.86445 c 48.61798,0 92.82428,34.24644 105.11449,81.43178 16.1525,62.01357 -24.16113,125.6149 -87.35907,137.82326 -14.51914,2.80476 -34.26115,1.8243 -50.44981,-2.5055 -9.70231,-2.59498 -9.96768,-2.52226 -20.58454,5.64022 -13.04637,10.03032 -36.52303,21.18879 -54.14535,25.73533 -17.05923,4.40125 -44.47996,5.94896 -60.66825,3.42433 z m 47.58906,-31.37085 c 21.79274,-4.61629 43.5349,-15.70868 59.17778,-30.19123 l 13.45358,-12.45564 12.52899,6.0715 c 10.97112,5.31653 15.09172,6.08117 33.13918,6.1494 17.91776,0.0677 22.23074,-0.68165 33.01547,-5.73646 16.38628,-7.68024 31.97727,-22.58007 39.81655,-38.05148 5.82654,-11.4991 6.35442,-14.43334 6.35442,-35.32059 0,-20.15358 -0.66781,-24.20438 -5.79293,-35.13817 -16.91431,-36.08455 -60.21023,-54.32584 -99.41166,-41.88378 -3.06135,0.97164 -4.96646,-0.30868 -7.36711,-4.95103 -11.97267,-23.15258 -42.51462,-47.72318 -70.85939,-57.00547 -22.47978,-7.36163 -57.26252,-7.48866 -78.26452,-0.28584 -28.48462,9.76905 -54.86603,30.07028 -68.19899,52.48103 -4.63443,7.7898 -7.38735,10.40838 -10.07615,9.58444 -19.4392,-5.95684 -44.198434,-4.37825 -62.116837,3.96042 -15.320409,7.12966 -33.369383,26.25987 -39.434403,41.79676 -7.559756,19.366 -7.356576,45.45708 0.485346,62.32535 7.949158,17.09895 15.178533,25.99838 28.408819,34.97157 23.351359,15.83759 53.471175,18.57228 78.475225,7.12504 l 12.55767,-5.74908 8.93306,8.22189 c 33.79889,31.10812 73.60534,42.88714 115.1759,34.08137 z"
     id="path5255"
     inkscape:connector-curvature="0" /></svg>