<?xml version="1.0" encoding="UTF-8" standalone="no"?>
<!-- Generator: Adobe Illustrator 15.1.0, SVG Export Plug-In . SVG Version: 6.00 Build 0)  -->

<svg
   xmlns:dc="http://purl.org/dc/elements/1.1/"
   xmlns:cc="http://creativecommons.org/ns#"
   xmlns:rdf="http://www.w3.org/1999/02/22-rdf-syntax-ns#"
   xmlns:svg="http://www.w3.org/2000/svg"
   xmlns="http://www.w3.org/2000/svg"
   xmlns:sodipodi="http://sodipodi.sourceforge.net/DTD/sodipodi-0.dtd"
   xmlns:inkscape="http://www.inkscape.org/namespaces/inkscape"
   version="1.1"
   id="Layer_1"
   x="0px"
   y="0px"
   width="512px"
   height="512px"
   viewBox="0 0 512 512"
   enable-background="new 0 0 512 512"
   xml:space="preserve"
   sodipodi:docname="04d.svg"
   inkscape:version="0.92.2 (5c3e80d, 2017-08-06)"><metadata
     id="metadata5683"><rdf:RDF><cc:Work
         rdf:about=""><dc:format>image/svg+xml</dc:format><dc:type
           rdf:resource="http://purl.org/dc/dcmitype/StillImage" /></cc:Work></rdf:RDF></metadata><defs
     id="defs5681" /><sodipodi:namedview
     pagecolor="#ffffff"
     bordercolor="#666666"
     borderopacity="1"
     objecttolerance="10"
     gridtolerance="10"
     guidetolerance="10"
     inkscape:pageopacity="0"
     inkscape:pageshadow="2"
     inkscape:window-width="1366"
     inkscape:window-height="705"
     id="namedview5679"
     showgrid="false"
     inkscape:zoom="0.4609375"
     inkscape:cx="256"
     inkscape:cy="256"
     inkscape:window-x="-8"
     inkscape:window-y="-8"
     inkscape:window-maximized="1"
     inkscape:current-layer="Layer_1" /><g
     id="Grid_1_"><g
       id="Layer_1_1_"><g
         id="Grid"><g
           id="g5671"><rect
             fill="none"
             stroke="#A9CCDB"
             stroke-miterlimit="10"
             width="512"
             height="512"
             id="rect5609" /><line
             fill="none"
             stroke="#A9CCDB"
             stroke-miterlimit="10"
             x1="0"
             y1="480"
             x2="512"
             y2="480"
             id="line5611" /><line
             fill="none"
             stroke="#A9CCDB"
             stroke-miterlimit="10"
             x1="0"
             y1="448"
             x2="512"
             y2="448"
             id="line5613" /><line
             fill="none"
             stroke="#A9CCDB"
             stroke-miterlimit="10"
             x1="0"
             y1="416"
             x2="512"
             y2="416"
             id="line5615" /><line
             fill="none"
             stroke="#A9CCDB"
             stroke-miterlimit="10"
             x1="0"
             y1="384"
             x2="512"
             y2="384"
             id="line5617" /><line
             fill="none"
             stroke="#A9CCDB"
             stroke-miterlimit="10"
             x1="0"
             y1="352"
             x2="512"
             y2="352"
             id="line5619" /><line
             fill="none"
             stroke="#A9CCDB"
             stroke-miterlimit="10"
             x1="0"
             y1="320"
             x2="512"
             y2="320"
             id="line5621" /><line
             fill="none"
             stroke="#A9CCDB"
             stroke-miterlimit="10"
             x1="0"
             y1="288"
             x2="512"
             y2="288"
             id="line5623" /><line
             fill="none"
             stroke="#A9CCDB"
             stroke-miterlimit="10"
             x1="0"
             y1="256"
             x2="512"
             y2="256"
             id="line5625" /><line
             fill="none"
             stroke="#A9CCDB"
             stroke-miterlimit="10"
             x1="0"
             y1="224"
             x2="512"
             y2="224"
             id="line5627" /><line
             fill="none"
             stroke="#A9CCDB"
             stroke-miterlimit="10"
             x1="0"
             y1="192"
             x2="512"
             y2="192"
             id="line5629" /><line
             fill="none"
             stroke="#A9CCDB"
             stroke-miterlimit="10"
             x1="0"
             y1="160"
             x2="512"
             y2="160"
             id="line5631" /><line
             fill="none"
             stroke="#A9CCDB"
             stroke-miterlimit="10"
             x1="0"
             y1="128"
             x2="512"
             y2="128"
             id="line5633" /><line
             fill="none"
             stroke="#A9CCDB"
             stroke-miterlimit="10"
             x1="0"
             y1="96"
             x2="512"
             y2="96"
             id="line5635" /><line
             fill="none"
             stroke="#A9CCDB"
             stroke-miterlimit="10"
             x1="0"
             y1="64"
             x2="512"
             y2="64"
             id="line5637" /><line
             fill="none"
             stroke="#A9CCDB"
             stroke-miterlimit="10"
             x1="0"
             y1="32"
             x2="512"
             y2="32"
             id="line5639" /><line
             fill="none"
             stroke="#A9CCDB"
             stroke-miterlimit="10"
             x1="480"
             y1="0"
             x2="480"
             y2="512"
             id="line5641" /><line
             fill="none"
             stroke="#A9CCDB"
             stroke-miterlimit="10"
             x1="448"
             y1="0"
             x2="448"
             y2="512"
             id="line5643" /><line
             fill="none"
             stroke="#A9CCDB"
             stroke-miterlimit="10"
             x1="416"
             y1="0"
             x2="416"
             y2="512"
             id="line5645" /><line
             fill="none"
             stroke="#A9CCDB"
             stroke-miterlimit="10"
             x1="384"
             y1="0"
             x2="384"
             y2="512"
             id="line5647" /><line
             fill="none"
             stroke="#A9CCDB"
             stroke-miterlimit="10"
             x1="352"
             y1="0"
             x2="352"
             y2="512"
             id="line5649" /><line
             fill="none"
             stroke="#A9CCDB"
             stroke-miterlimit="10"
             x1="320"
             y1="0"
             x2="320"
             y2="512"
             id="line5651" /><line
             fill="none"
             stroke="#A9CCDB"
             stroke-miterlimit="10"
             x1="288"
             y1="0"
             x2="288"
             y2="512"
             id="line5653" /><line
             fill="none"
             stroke="#A9CCDB"
             stroke-miterlimit="10"
             x1="256"
             y1="0"
             x2="256"
             y2="512"
             id="line5655" /><line
             fill="none"
             stroke="#A9CCDB"
             stroke-miterlimit="10"
             x1="224"
             y1="0"
             x2="224"
             y2="512"
             id="line5657" /><line
             fill="none"
             stroke="#A9CCDB"
             stroke-miterlimit="10"
             x1="192"
             y1="0"
             x2="192"
             y2="512"
             id="line5659" /><line
             fill="none"
             stroke="#A9CCDB"
             stroke-miterlimit="10"
             x1="160"
             y1="0"
             x2="160"
             y2="512"
             id="line5661" /><line
             fill="none"
             stroke="#A9CCDB"
             stroke-miterlimit="10"
             x1="128"
             y1="0"
             x2="128"
             y2="512"
             id="line5663" /><line
             fill="none"
             stroke="#A9CCDB"
             stroke-miterlimit="10"
             x1="96"
             y1="0"
             x2="96"
             y2="512"
             id="line5665" /><line
             fill="none"
             stroke="#A9CCDB"
             stroke-miterlimit="10"
             x1="64"
             y1="0"
             x2="64"
             y2="512"
             id="line5667" /><line
             fill="none"
             stroke="#A9CCDB"
             stroke-miterlimit="10"
             x1="32"
             y1="0"
             x2="32"
             y2="512"
             id="line5669" /></g></g></g></g><path
     fill="#1D1D1B"
     d="M512,240.001c0-49.167-40-89.146-89.167-89.146c-2.396,0-4.771,0.104-7.146,0.291  c-23.125-28.854-57.979-45.978-95.688-45.978c-37.688,0-72.562,17.124-95.688,45.979c-2.375-0.188-4.771-0.291-7.188-0.291  C168,150.855,128,190.834,128,240.001c0,5.146,0.688,10.104,1.5,15.042c-0.542,0.708-1.188,1.354-1.708,2.083  c-5.229-0.75-10.479-1.125-15.792-1.125C50.25,256.001,0,306.25,0,368c0,61.751,50.25,112,112,112c13.688,0,27.084-2.5,39.709-7.333  C180.666,497.917,217.5,512,256,512c38.542,0,75.333-14.083,104.291-39.333C372.916,477.5,386.312,480,400,480  c61.75,0,112-50.249,112-112c0-25.688-9.042-49.083-23.666-67.999C502.916,284.105,512,263.168,512,240.001z M400,448  c-17.125,0-32.916-5.499-45.938-14.666C330.583,461.625,295.624,480,256,480c-39.625,0-74.584-18.375-98.062-46.666  C144.938,442.501,129.126,448,112,448c-44.188,0-80-35.812-80-80s35.812-79.999,80-79.999c10.812,0,21.062,2.188,30.438,6.062  c0.562-1.062,1.25-2,1.812-3.021c5.625-10.271,12.562-19.688,20.666-28.042C188,239.084,220.083,224,256,224  c49.709,0,92.334,28.666,113.541,70.062c5.646-2.312,11.668-3.813,17.875-4.812L400,288c12.334,0,23.875,3.042,34.312,8  c11.312,5.416,21.021,13.374,28.646,23.188c10.5,13.521,17.042,30.354,17.042,48.812C480,412.188,444.188,448,400,448z   M465.562,277.625c-18.479-13.458-41-21.624-65.562-21.624c-5.312,0-10.562,0.375-15.792,1.125  c-29.874-40.708-77.021-65.125-128.208-65.125c-34.125,0-66.312,11.042-92.938,30.334c7.479-22.854,28.729-39.479,54.062-39.479  c7.75,0,15.062,1.562,21.75,4.332c15.188-29.562,45.625-50.02,81.125-50.02s65.958,20.457,81.084,50.02  c6.729-2.77,14.083-4.332,21.749-4.332c31.584,0,57.167,25.583,57.167,57.146C480,254.48,474.438,267.542,465.562,277.625z"
     id="path5676" /><path
     style="fill:#ffffff;stroke-width:2.16949153"
     d="m 226.06102,508.04126 c -20.54692,-4.32883 -41.01379,-13.16039 -58.64231,-25.30449 l -15.49794,-10.67637 -12.59896,3.26471 C 77.424913,491.36421 13.383697,449.06077 2.5390386,384.97111 -3.2348927,350.84837 8.5322717,315.98369 34.602715,289.97031 56.996814,267.62522 82.39652,257.30187 114.98136,257.30155 l 14.53728,-1.4e-4 0.23854,-17.89817 c 0.63233,-47.44534 34.90793,-83.40729 82.97624,-87.05868 10.33925,-0.78539 12.73303,-1.97136 21.69491,-10.74857 47.54157,-46.56185 124.50376,-46.474069 171.17306,0.19523 7.69807,7.69806 9.93117,8.63207 26.10772,10.91974 21.78053,3.08017 38.91363,11.36575 53.18353,25.71961 29.24661,29.41871 33.92039,75.58577 11.08701,109.51603 l -7.78604,11.57001 7.58404,14.14678 c 18.84429,35.15097 19.57274,71.22434 2.14068,106.00923 -21.68557,43.27264 -77.46117,68.06264 -125.17435,55.63492 l -12.60151,-3.28227 -10.09612,7.41125 c -13.84311,10.16177 -37.83118,21.90442 -53.47686,26.17802 -17.98782,4.91333 -52.98794,6.11796 -70.50847,2.42672 z m 69.87055,-33.61573 c 15.81499,-5.03194 43.78434,-22.51023 52.39264,-32.74064 l 5.38878,-6.40418 12.64859,5.92574 c 11.13444,5.21639 15.24569,5.92575 34.3435,5.92575 19.21311,0 23.06819,-0.67445 33.69943,-5.89568 15.32475,-7.52633 30.98025,-23.18184 38.50659,-38.50658 5.28015,-10.75122 5.89494,-14.38276 5.88856,-34.78418 -0.007,-20.8633 -0.5405,-23.83412 -6.34741,-35.31403 -7.83264,-15.48465 -23.45361,-30.40089 -39.81644,-38.02013 -10.33806,-4.81385 -15.47828,-5.78276 -30.84598,-5.81436 -10.14237,-0.0208 -21.42562,0.73058 -25.0739,1.66985 -6.21518,1.60014 -7.0584,1.05159 -13.37995,-8.70422 -15.95472,-24.62234 -43.74714,-45.07797 -73.38838,-54.01494 -20.24889,-6.10513 -53.94016,-5.16351 -74.67713,2.0871 -27.73313,9.6968 -51.4963,28.51908 -66.90647,52.99514 -5.36939,8.52824 -6.34098,9.12624 -12.33688,7.59322 -3.57966,-0.91524 -15.29492,-1.65171 -26.0339,-1.63661 -16.586387,0.0233 -21.398499,0.90117 -31.969171,5.83196 -14.914538,6.95703 -31.478318,22.9125 -38.18278,36.78051 -19.981364,41.33094 -2.837382,90.67624 38.18278,109.90099 10.906515,5.11152 15.124417,5.83196 34.143511,5.83196 19.24418,0 23.04872,-0.66759 33.62031,-5.89941 l 11.92054,-5.89941 9.76952,9.5665 c 16.34409,16.00445 43.52869,29.94584 67.26105,34.49425 12.35704,2.36828 46.96507,-0.44176 61.19259,-4.9686 z M 475.74166,262.72542 c 5.92911,-12.69 5.50699,-33.87602 -0.95128,-47.7446 -11.09738,-23.83066 -40.04649,-38.24644 -63.4414,-31.59188 -8.02382,2.28234 -8.70428,2.09087 -12.79792,-3.60108 -2.37791,-3.30638 -9.52231,-11.22143 -15.8764,-17.58902 -27.39222,-27.45034 -70.22408,-33.65948 -104.85654,-15.20057 -13.28827,7.08257 -30.67542,23.05957 -35.82551,32.91994 -1.81052,3.46645 -4.44082,5.66884 -6.03815,5.05588 -17.83701,-6.8447 -41.8474,-1.72741 -56.87092,12.12079 -9.07501,8.36506 -15.93778,18.24016 -15.93778,22.93349 0,1.09616 9.51865,-2.77448 21.15255,-8.6014 27.42439,-13.7357 43.56334,-17.6974 72.13559,-17.70743 45.3141,-0.0158 88.95299,19.49861 117.35539,52.4792 l 9.55986,11.10082 15.27301,0.001 c 19.29313,10e-4 37.50777,4.70541 54.15072,13.98482 14.72182,8.20827 15.22111,8.02219 22.96878,-8.56003 z"
     id="path5685"
     inkscape:connector-curvature="0" /></svg>