<?xml version="1.0" encoding="UTF-8" standalone="no"?>
<!-- Generator: Adobe Illustrator 15.1.0, SVG Export Plug-In . SVG Version: 6.00 Build 0)  -->

<svg
   xmlns:dc="http://purl.org/dc/elements/1.1/"
   xmlns:cc="http://creativecommons.org/ns#"
   xmlns:rdf="http://www.w3.org/1999/02/22-rdf-syntax-ns#"
   xmlns:svg="http://www.w3.org/2000/svg"
   xmlns="http://www.w3.org/2000/svg"
   xmlns:sodipodi="http://sodipodi.sourceforge.net/DTD/sodipodi-0.dtd"
   xmlns:inkscape="http://www.inkscape.org/namespaces/inkscape"
   version="1.1"
   id="Layer_1"
   x="0px"
   y="0px"
   width="512px"
   height="512px"
   viewBox="0 0 512 512"
   enable-background="new 0 0 512 512"
   xml:space="preserve"
   sodipodi:docname="09n.svg"
   inkscape:version="0.92.2 (5c3e80d, 2017-08-06)"><metadata
     id="metadata7459"><rdf:RDF><cc:Work
         rdf:about=""><dc:format>image/svg+xml</dc:format><dc:type
           rdf:resource="http://purl.org/dc/dcmitype/StillImage" /></cc:Work></rdf:RDF></metadata><defs
     id="defs7457" /><sodipodi:namedview
     pagecolor="#ffffff"
     bordercolor="#666666"
     borderopacity="1"
     objecttolerance="10"
     gridtolerance="10"
     guidetolerance="10"
     inkscape:pageopacity="0"
     inkscape:pageshadow="2"
     inkscape:window-width="1366"
     inkscape:window-height="705"
     id="namedview7455"
     showgrid="false"
     inkscape:zoom="0.4609375"
     inkscape:cx="256"
     inkscape:cy="256"
     inkscape:window-x="-8"
     inkscape:window-y="-8"
     inkscape:window-maximized="1"
     inkscape:current-layer="Layer_1" /><g
     id="Grid_1_"><g
       id="Layer_1_1_"><g
         id="Grid"><g
           id="g7443"><rect
             fill="none"
             stroke="#A9CCDB"
             stroke-miterlimit="10"
             width="512"
             height="512"
             id="rect7381" /><line
             fill="none"
             stroke="#A9CCDB"
             stroke-miterlimit="10"
             x1="0"
             y1="480"
             x2="512"
             y2="480"
             id="line7383" /><line
             fill="none"
             stroke="#A9CCDB"
             stroke-miterlimit="10"
             x1="0"
             y1="448"
             x2="512"
             y2="448"
             id="line7385" /><line
             fill="none"
             stroke="#A9CCDB"
             stroke-miterlimit="10"
             x1="0"
             y1="416"
             x2="512"
             y2="416"
             id="line7387" /><line
             fill="none"
             stroke="#A9CCDB"
             stroke-miterlimit="10"
             x1="0"
             y1="384"
             x2="512"
             y2="384"
             id="line7389" /><line
             fill="none"
             stroke="#A9CCDB"
             stroke-miterlimit="10"
             x1="0"
             y1="352"
             x2="512"
             y2="352"
             id="line7391" /><line
             fill="none"
             stroke="#A9CCDB"
             stroke-miterlimit="10"
             x1="0"
             y1="320"
             x2="512"
             y2="320"
             id="line7393" /><line
             fill="none"
             stroke="#A9CCDB"
             stroke-miterlimit="10"
             x1="0"
             y1="288"
             x2="512"
             y2="288"
             id="line7395" /><line
             fill="none"
             stroke="#A9CCDB"
             stroke-miterlimit="10"
             x1="0"
             y1="256"
             x2="512"
             y2="256"
             id="line7397" /><line
             fill="none"
             stroke="#A9CCDB"
             stroke-miterlimit="10"
             x1="0"
             y1="224"
             x2="512"
             y2="224"
             id="line7399" /><line
             fill="none"
             stroke="#A9CCDB"
             stroke-miterlimit="10"
             x1="0"
             y1="192"
             x2="512"
             y2="192"
             id="line7401" /><line
             fill="none"
             stroke="#A9CCDB"
             stroke-miterlimit="10"
             x1="0"
             y1="160"
             x2="512"
             y2="160"
             id="line7403" /><line
             fill="none"
             stroke="#A9CCDB"
             stroke-miterlimit="10"
             x1="0"
             y1="128"
             x2="512"
             y2="128"
             id="line7405" /><line
             fill="none"
             stroke="#A9CCDB"
             stroke-miterlimit="10"
             x1="0"
             y1="96"
             x2="512"
             y2="96"
             id="line7407" /><line
             fill="none"
             stroke="#A9CCDB"
             stroke-miterlimit="10"
             x1="0"
             y1="64"
             x2="512"
             y2="64"
             id="line7409" /><line
             fill="none"
             stroke="#A9CCDB"
             stroke-miterlimit="10"
             x1="0"
             y1="32"
             x2="512"
             y2="32"
             id="line7411" /><line
             fill="none"
             stroke="#A9CCDB"
             stroke-miterlimit="10"
             x1="480"
             y1="0"
             x2="480"
             y2="512"
             id="line7413" /><line
             fill="none"
             stroke="#A9CCDB"
             stroke-miterlimit="10"
             x1="448"
             y1="0"
             x2="448"
             y2="512"
             id="line7415" /><line
             fill="none"
             stroke="#A9CCDB"
             stroke-miterlimit="10"
             x1="416"
             y1="0"
             x2="416"
             y2="512"
             id="line7417" /><line
             fill="none"
             stroke="#A9CCDB"
             stroke-miterlimit="10"
             x1="384"
             y1="0"
             x2="384"
             y2="512"
             id="line7419" /><line
             fill="none"
             stroke="#A9CCDB"
             stroke-miterlimit="10"
             x1="352"
             y1="0"
             x2="352"
             y2="512"
             id="line7421" /><line
             fill="none"
             stroke="#A9CCDB"
             stroke-miterlimit="10"
             x1="320"
             y1="0"
             x2="320"
             y2="512"
             id="line7423" /><line
             fill="none"
             stroke="#A9CCDB"
             stroke-miterlimit="10"
             x1="288"
             y1="0"
             x2="288"
             y2="512"
             id="line7425" /><line
             fill="none"
             stroke="#A9CCDB"
             stroke-miterlimit="10"
             x1="256"
             y1="0"
             x2="256"
             y2="512"
             id="line7427" /><line
             fill="none"
             stroke="#A9CCDB"
             stroke-miterlimit="10"
             x1="224"
             y1="0"
             x2="224"
             y2="512"
             id="line7429" /><line
             fill="none"
             stroke="#A9CCDB"
             stroke-miterlimit="10"
             x1="192"
             y1="0"
             x2="192"
             y2="512"
             id="line7431" /><line
             fill="none"
             stroke="#A9CCDB"
             stroke-miterlimit="10"
             x1="160"
             y1="0"
             x2="160"
             y2="512"
             id="line7433" /><line
             fill="none"
             stroke="#A9CCDB"
             stroke-miterlimit="10"
             x1="128"
             y1="0"
             x2="128"
             y2="512"
             id="line7435" /><line
             fill="none"
             stroke="#A9CCDB"
             stroke-miterlimit="10"
             x1="96"
             y1="0"
             x2="96"
             y2="512"
             id="line7437" /><line
             fill="none"
             stroke="#A9CCDB"
             stroke-miterlimit="10"
             x1="64"
             y1="0"
             x2="64"
             y2="512"
             id="line7439" /><line
             fill="none"
             stroke="#A9CCDB"
             stroke-miterlimit="10"
             x1="32"
             y1="0"
             x2="32"
             y2="512"
             id="line7441" /></g></g></g></g><g
     id="g7452"><g
       id="g7450"><path
         fill-rule="evenodd"
         clip-rule="evenodd"
         fill="#1D1D1B"
         d="M400,64c-5.312,0-10.562,0.375-15.792,1.125    C354.334,24.417,307.188,0,256,0s-98.312,24.417-128.208,65.125C122.562,64.375,117.312,64,112,64C50.25,64,0,114.25,0,176    s50.25,112,112,112c13.688,0,27.084-2.5,39.709-7.333C180.666,305.917,217.5,320,256,320c38.542,0,75.333-14.083,104.291-39.333    C372.916,285.5,386.312,288,400,288c61.75,0,112-50.25,112-112S461.75,64,400,64z M400,256c-17.125,0-32.916-5.5-45.938-14.667    C330.584,269.625,295.624,288,256,288c-39.625,0-74.584-18.375-98.062-46.667C144.938,250.5,129.125,256,112,256    c-44.188,0-80-35.812-80-80s35.812-80,80-80c10.812,0,21.062,2.208,30.438,6.083C163.667,60.667,206.291,32,256,32    s92.334,28.667,113.541,70.083C378.938,98.208,389.209,96,400,96c44.188,0,80,35.812,80,80S444.188,256,400,256z M225,480    c0,17.688,14.312,32,32,32s32-14.312,32-32s-32-64-32-64S225,462.312,225,480z M352,448c0,17.688,14.312,32,32,32s32-14.312,32-32    s-32-64-32-64S352,430.312,352,448z M96,384c0,17.688,14.312,32,32,32s32-14.312,32-32s-32-64-32-64S96,366.312,96,384z"
         id="path7448" /></g></g><path
     style="fill:#ffffff;stroke-width:2.16949153"
     d="m 213.45916,312.48742 c -21.22348,-6.27454 -31.55654,-11.23157 -49.22865,-23.61628 l -13.01695,-9.12232 -9.76271,3.09254 c -15.05998,4.7706 -46.011295,4.06441 -63.240535,-1.44291 C 8.2327864,259.03019 -20.683944,175.49506 20.303412,114.11601 40.596862,83.726325 73.084036,66.409648 111.44439,65.535022 l 17.20181,-0.392205 8.74832,-10.234668 C 155.3059,33.953636 187.34154,13.989074 215.5796,6.1833385 c 21.40357,-5.91651287 63.17394,-5.27575558 84.24413,1.2923052 27.68228,8.6291963 44.71899,18.9022403 66.16949,39.8998273 17.06001,16.699802 20.25871,18.95237 25.33285,17.839789 12.08029,-2.64878 39.06213,2.983511 57.36977,11.975578 38.1877,18.756456 61.56857,56.258952 61.56857,98.754922 0,29.84327 -9.43488,53.20411 -30.64531,75.87814 -28.30501,30.25814 -74.76825,42.90272 -110.97073,30.19974 -8.0152,-2.81242 -8.43671,-2.68957 -19.49973,5.68372 -37.34426,28.26481 -90.85052,38.03628 -135.68948,24.78006 z m 73.34762,-27.40131 c 16.3868,-3.77532 40.14086,-16.62922 54.13651,-29.29458 l 13.28651,-12.02358 12.6758,5.68856 c 17.19736,7.71771 34.51989,9.301 52.20133,4.77123 24.19055,-6.19735 41.67302,-20.22157 53.73778,-43.10783 5.45632,-10.35036 5.96207,-13.33411 5.96207,-35.17415 0,-23.06305 -0.24967,-24.32489 -7.43513,-37.57761 -17.46629,-32.21448 -52.82547,-48.966563 -87.11804,-41.273832 l -14.27226,3.201642 -7.41779,-11.798094 C 347.29444,64.212137 315.49249,41.824586 286.58308,35.010039 268.63284,30.778802 241.23707,30.784566 224.9646,35.023056 195.21261,42.772415 164.81564,64.485634 148.81116,89.421069 L 141.68522,100.5235 130.1782,97.418277 c -34.57457,-9.3301 -74.210768,10.005713 -91.183514,44.482253 -6.454086,13.11011 -7.09826,16.21694 -7.049524,33.99961 0.04617,16.8432 0.915276,21.45262 6.235479,33.07043 6.870274,15.00275 23.078935,31.94639 37.69247,39.40165 21.33433,10.88397 50.362799,10.72679 72.353089,-0.39175 l 9.45487,-4.78047 11.95268,11.52824 c 29.35762,28.3151 74.8645,40.10529 117.17303,30.35787 z"
     id="path7461"
     inkscape:connector-curvature="0" /><path
     style="fill:#ffffff;stroke-width:2.16949153"
     d="m 118.98045,413.44389 c -12.41534,-3.72054 -20.920603,-15.7811 -20.917722,-29.66158 0.0019,-9.22379 7.952712,-27.30942 21.142472,-48.09263 l 8.76774,-13.8154 8.15686,12.73065 c 12.02675,18.77051 22.67698,42.05791 22.67698,49.58466 0,10.68062 -6.89239,21.19828 -17.43378,26.60363 -10.20513,5.23293 -12.76462,5.5359 -22.39255,2.65067 z"
     id="path7463"
     inkscape:connector-curvature="0" /><path
     style="fill:#ffffff;stroke-width:2.16949153"
     d="m 244.31769,508.04846 c -8.53004,-3.71398 -15.59137,-12.67733 -17.34304,-22.01451 -1.88285,-10.03647 3.23159,-23.9052 17.84837,-48.39906 l 12.15593,-20.37012 7.34405,11.67948 c 13.78797,21.92745 23.07546,42.63639 23.07546,51.45292 0,10.97938 -5.7822,20.51735 -15.8781,26.19156 -9.2471,5.19717 -17.59048,5.64488 -27.20267,1.45973 z"
     id="path7465"
     inkscape:connector-curvature="0" /><path
     style="fill:#ffffff;stroke-width:2.16949153"
     d="m 369.80335,475.02176 c -16.62421,-8.19541 -20.0621,-26.96869 -8.99227,-49.10397 8.99909,-17.99459 21.39632,-38.4466 23.30487,-38.4466 2.38273,0 23.59737,36.81762 27.3464,47.4592 4.44562,12.61882 4.20575,19.44051 -0.98283,27.95046 -8.75587,14.36076 -25.83352,19.45805 -40.67617,12.14091 z"
     id="path7467"
     inkscape:connector-curvature="0" /></svg>