<?xml version="1.0" encoding="UTF-8" standalone="no"?>
<!-- Generator: Adobe Illustrator 15.1.0, SVG Export Plug-In . SVG Version: 6.00 Build 0)  -->

<svg
   xmlns:dc="http://purl.org/dc/elements/1.1/"
   xmlns:cc="http://creativecommons.org/ns#"
   xmlns:rdf="http://www.w3.org/1999/02/22-rdf-syntax-ns#"
   xmlns:svg="http://www.w3.org/2000/svg"
   xmlns="http://www.w3.org/2000/svg"
   xmlns:sodipodi="http://sodipodi.sourceforge.net/DTD/sodipodi-0.dtd"
   xmlns:inkscape="http://www.inkscape.org/namespaces/inkscape"
   version="1.1"
   id="Layer_1"
   x="0px"
   y="0px"
   width="512px"
   height="512px"
   viewBox="0 0 512 512"
   enable-background="new 0 0 512 512"
   xml:space="preserve"
   sodipodi:docname="1.svg"
   inkscape:version="0.92.2 (5c3e80d, 2017-08-06)"><metadata
     id="metadata4380"><rdf:RDF><cc:Work
         rdf:about=""><dc:format>image/svg+xml</dc:format><dc:type
           rdf:resource="http://purl.org/dc/dcmitype/StillImage" /></cc:Work></rdf:RDF></metadata><defs
     id="defs4378" /><sodipodi:namedview
     pagecolor="#ffffff"
     bordercolor="#666666"
     borderopacity="1"
     objecttolerance="10"
     gridtolerance="10"
     guidetolerance="10"
     inkscape:pageopacity="0"
     inkscape:pageshadow="2"
     inkscape:window-width="1366"
     inkscape:window-height="705"
     id="namedview4376"
     showgrid="false"
     inkscape:zoom="0.4609375"
     inkscape:cx="256"
     inkscape:cy="256"
     inkscape:window-x="-8"
     inkscape:window-y="-8"
     inkscape:window-maximized="1"
     inkscape:current-layer="Layer_1" /><g
     id="Grid_1_"><g
       id="Layer_1_1_"><g
         id="Grid"><g
           id="g4364"><rect
             fill="none"
             stroke="#A9CCDB"
             stroke-miterlimit="10"
             width="512"
             height="512"
             id="rect4302" /><line
             fill="none"
             stroke="#A9CCDB"
             stroke-miterlimit="10"
             x1="0"
             y1="480"
             x2="512"
             y2="480"
             id="line4304" /><line
             fill="none"
             stroke="#A9CCDB"
             stroke-miterlimit="10"
             x1="0"
             y1="448"
             x2="512"
             y2="448"
             id="line4306" /><line
             fill="none"
             stroke="#A9CCDB"
             stroke-miterlimit="10"
             x1="0"
             y1="416"
             x2="512"
             y2="416"
             id="line4308" /><line
             fill="none"
             stroke="#A9CCDB"
             stroke-miterlimit="10"
             x1="0"
             y1="384"
             x2="512"
             y2="384"
             id="line4310" /><line
             fill="none"
             stroke="#A9CCDB"
             stroke-miterlimit="10"
             x1="0"
             y1="352"
             x2="512"
             y2="352"
             id="line4312" /><line
             fill="none"
             stroke="#A9CCDB"
             stroke-miterlimit="10"
             x1="0"
             y1="320"
             x2="512"
             y2="320"
             id="line4314" /><line
             fill="none"
             stroke="#A9CCDB"
             stroke-miterlimit="10"
             x1="0"
             y1="288"
             x2="512"
             y2="288"
             id="line4316" /><line
             fill="none"
             stroke="#A9CCDB"
             stroke-miterlimit="10"
             x1="0"
             y1="256"
             x2="512"
             y2="256"
             id="line4318" /><line
             fill="none"
             stroke="#A9CCDB"
             stroke-miterlimit="10"
             x1="0"
             y1="224"
             x2="512"
             y2="224"
             id="line4320" /><line
             fill="none"
             stroke="#A9CCDB"
             stroke-miterlimit="10"
             x1="0"
             y1="192"
             x2="512"
             y2="192"
             id="line4322" /><line
             fill="none"
             stroke="#A9CCDB"
             stroke-miterlimit="10"
             x1="0"
             y1="160"
             x2="512"
             y2="160"
             id="line4324" /><line
             fill="none"
             stroke="#A9CCDB"
             stroke-miterlimit="10"
             x1="0"
             y1="128"
             x2="512"
             y2="128"
             id="line4326" /><line
             fill="none"
             stroke="#A9CCDB"
             stroke-miterlimit="10"
             x1="0"
             y1="96"
             x2="512"
             y2="96"
             id="line4328" /><line
             fill="none"
             stroke="#A9CCDB"
             stroke-miterlimit="10"
             x1="0"
             y1="64"
             x2="512"
             y2="64"
             id="line4330" /><line
             fill="none"
             stroke="#A9CCDB"
             stroke-miterlimit="10"
             x1="0"
             y1="32"
             x2="512"
             y2="32"
             id="line4332" /><line
             fill="none"
             stroke="#A9CCDB"
             stroke-miterlimit="10"
             x1="480"
             y1="0"
             x2="480"
             y2="512"
             id="line4334" /><line
             fill="none"
             stroke="#A9CCDB"
             stroke-miterlimit="10"
             x1="448"
             y1="0"
             x2="448"
             y2="512"
             id="line4336" /><line
             fill="none"
             stroke="#A9CCDB"
             stroke-miterlimit="10"
             x1="416"
             y1="0"
             x2="416"
             y2="512"
             id="line4338" /><line
             fill="none"
             stroke="#A9CCDB"
             stroke-miterlimit="10"
             x1="384"
             y1="0"
             x2="384"
             y2="512"
             id="line4340" /><line
             fill="none"
             stroke="#A9CCDB"
             stroke-miterlimit="10"
             x1="352"
             y1="0"
             x2="352"
             y2="512"
             id="line4342" /><line
             fill="none"
             stroke="#A9CCDB"
             stroke-miterlimit="10"
             x1="320"
             y1="0"
             x2="320"
             y2="512"
             id="line4344" /><line
             fill="none"
             stroke="#A9CCDB"
             stroke-miterlimit="10"
             x1="288"
             y1="0"
             x2="288"
             y2="512"
             id="line4346" /><line
             fill="none"
             stroke="#A9CCDB"
             stroke-miterlimit="10"
             x1="256"
             y1="0"
             x2="256"
             y2="512"
             id="line4348" /><line
             fill="none"
             stroke="#A9CCDB"
             stroke-miterlimit="10"
             x1="224"
             y1="0"
             x2="224"
             y2="512"
             id="line4350" /><line
             fill="none"
             stroke="#A9CCDB"
             stroke-miterlimit="10"
             x1="192"
             y1="0"
             x2="192"
             y2="512"
             id="line4352" /><line
             fill="none"
             stroke="#A9CCDB"
             stroke-miterlimit="10"
             x1="160"
             y1="0"
             x2="160"
             y2="512"
             id="line4354" /><line
             fill="none"
             stroke="#A9CCDB"
             stroke-miterlimit="10"
             x1="128"
             y1="0"
             x2="128"
             y2="512"
             id="line4356" /><line
             fill="none"
             stroke="#A9CCDB"
             stroke-miterlimit="10"
             x1="96"
             y1="0"
             x2="96"
             y2="512"
             id="line4358" /><line
             fill="none"
             stroke="#A9CCDB"
             stroke-miterlimit="10"
             x1="64"
             y1="0"
             x2="64"
             y2="512"
             id="line4360" /><line
             fill="none"
             stroke="#A9CCDB"
             stroke-miterlimit="10"
             x1="32"
             y1="0"
             x2="32"
             y2="512"
             id="line4362" /></g></g></g></g><g
     id="g4373"><g
       id="g4371"><path
         fill-rule="evenodd"
         clip-rule="evenodd"
         fill="#1D1D1B"
         d="M177.615,288c7.438-36.521,39.688-64,78.396-64    c38.709,0,70.958,27.479,78.376,64h32c-7.834-54.125-54.084-96-110.376-96c-56.271,0-102.541,41.875-110.375,96H177.615z     M256.011,160c8.833,0,16-7.167,16-16v-32c0-8.833-7.167-16-16-16c-8.832,0-16,7.167-16,16v32    C240.011,152.833,247.179,160,256.011,160z M403.073,156.917c-6.249-6.25-16.374-6.25-22.625,0l-22.625,22.625    c-6.249,6.25-6.249,16.375,0,22.625c6.251,6.25,16.376,6.25,22.625,0l22.625-22.625    C409.323,173.292,409.323,163.167,403.073,156.917z M154.177,179.542l-22.625-22.625c-6.249-6.25-16.373-6.25-22.625,0    c-6.249,6.25-6.249,16.375,0,22.625l22.625,22.625c6.252,6.25,16.376,6.25,22.625,0    C160.429,195.917,160.429,185.792,154.177,179.542z M352.011,320h-192c-8.832,0-16,7.167-16,16s7.168,16,16,16h192    c8.833,0,16-7.167,16-16S360.844,320,352.011,320z M320.011,384h-128c-8.832,0-16,7.167-16,16s7.168,16,16,16h128    c8.833,0,16-7.167,16-16S328.844,384,320.011,384z"
         id="path4369" /></g></g><path
     style="fill:#ffffff;stroke-width:2.16949153"
     d="m 148.86119,278.56661 c 2.39984,-15.00782 13.71781,-35.68673 27.73087,-50.66674 46.38481,-49.58551 127.29051,-44.79192 167.57344,9.92856 9.11178,12.37749 17.41634,30.50109 20.08091,43.82396 l 1.20444,6.02219 h -15.17568 -15.17568 l -2.74017,-9.78695 c -10.5507,-37.68338 -55.77718,-62.37781 -95.57064,-52.1832 -28.88823,7.40082 -50.25165,28.3465 -59.33375,58.17354 -0.95002,3.11999 -3.73072,3.79661 -15.6031,3.79661 h -14.44707 z"
     id="path4382"
     inkscape:connector-curvature="0" /><path
     style="fill:#ffffff;stroke-width:2.16949153"
     d="m 121.75274,190.58983 c -17.57813,-17.33963 -20.05929,-23.89746 -12.06592,-31.89082 8.86989,-8.8699 14.0556,-7.26278 31.38529,9.72669 14.61061,14.32377 16.75097,17.87962 15.62642,25.96074 -0.81404,5.84978 -7.11271,10.84746 -13.67126,10.84746 -5.02455,0 -9.67221,-3.19916 -21.27453,-14.64407 z"
     id="path4384"
     inkscape:connector-curvature="0" /><path
     style="fill:#ffffff;stroke-width:2.16949153"
     d="m 247.11966,155.30076 c -5.70782,-4.48977 -5.8722,-5.24792 -5.8722,-27.08381 0,-21.68499 0.19841,-22.62081 5.7163,-26.96118 7.5634,-5.949376 12.83088,-5.67192 19.53159,1.02879 5.29923,5.29923 5.49487,6.40554 4.78274,27.04555 -0.79489,23.03896 -2.39406,26.70098 -12.7686,29.23959 -3.85593,0.94353 -7.2861,-0.0409 -11.38983,-3.26894 z"
     id="path4386"
     inkscape:connector-curvature="0" /><path
     style="fill:#ffffff;stroke-width:2.16949153"
     d="m 358.4,200.89492 c -8.07395,-8.07396 -5.71426,-14.58099 11.54729,-31.84254 17.26155,-17.26155 23.76859,-19.62125 31.84254,-11.5473 8.4123,8.41231 5.86054,16.28324 -10.62303,32.76681 -16.48356,16.48357 -24.3545,19.03533 -32.7668,10.62303 z"
     id="path4388"
     inkscape:connector-curvature="0" /><path
     style="fill:#ffffff;stroke-width:2.16949153"
     d="m 150.12881,346.25085 c -6.27434,-6.27435 -5.61637,-16.03622 1.45584,-21.59921 5.72498,-4.50327 7.00849,-4.55093 106.49806,-3.95408 l 100.70324,0.60413 4.14601,5.12171 c 5.53906,6.84259 5.22986,13.71388 -0.87517,19.44927 -5.00734,4.70415 -5.30043,4.71716 -106.30509,4.71716 -98.39125,0 -101.40782,-0.12392 -105.62289,-4.33898 z"
     id="path4390"
     inkscape:connector-curvature="0" /><path
     style="fill:#ffffff;stroke-width:2.16949153"
     d="m 288.97627,431.94576 v -14.10169 h 15.18644 15.18644 v 14.10169 14.1017 h -15.18644 -15.18644 z"
     id="path4392"
     inkscape:connector-curvature="0" /><path
     style="fill:#ffffff;stroke-width:2.16949153"
     d="m 185.63055,413.13716 c -9.31999,-4.51282 -10.84257,-15.34762 -3.3781,-24.03885 2.98052,-3.47036 9.29076,-3.79662 73.43295,-3.79662 67.27957,0 70.35109,0.17887 74.51121,4.33899 6.24275,6.24275 5.61646,16.03614 -1.37732,21.53745 -5.51031,4.33441 -8.10984,4.49115 -72.13559,4.34962 -40.99992,-0.0906 -68.19272,-1.00554 -71.05315,-2.39059 z"
     id="path4394"
     inkscape:connector-curvature="0" /></svg>