<?xml version="1.0" encoding="UTF-8" standalone="no"?>
<!-- Generator: Adobe Illustrator 15.1.0, SVG Export Plug-In . SVG Version: 6.00 Build 0)  -->

<svg
   xmlns:dc="http://purl.org/dc/elements/1.1/"
   xmlns:cc="http://creativecommons.org/ns#"
   xmlns:rdf="http://www.w3.org/1999/02/22-rdf-syntax-ns#"
   xmlns:svg="http://www.w3.org/2000/svg"
   xmlns="http://www.w3.org/2000/svg"
   xmlns:sodipodi="http://sodipodi.sourceforge.net/DTD/sodipodi-0.dtd"
   xmlns:inkscape="http://www.inkscape.org/namespaces/inkscape"
   version="1.1"
   id="Layer_1"
   x="0px"
   y="0px"
   width="512px"
   height="512px"
   viewBox="0 0 512 512"
   enable-background="new 0 0 512 512"
   xml:space="preserve"
   sodipodi:docname="10d.svg"
   inkscape:version="0.92.2 (5c3e80d, 2017-08-06)"><metadata
     id="metadata8027"><rdf:RDF><cc:Work
         rdf:about=""><dc:format>image/svg+xml</dc:format><dc:type
           rdf:resource="http://purl.org/dc/dcmitype/StillImage" /></cc:Work></rdf:RDF></metadata><defs
     id="defs8025" /><sodipodi:namedview
     pagecolor="#ffffff"
     bordercolor="#666666"
     borderopacity="1"
     objecttolerance="10"
     gridtolerance="10"
     guidetolerance="10"
     inkscape:pageopacity="0"
     inkscape:pageshadow="2"
     inkscape:window-width="1366"
     inkscape:window-height="705"
     id="namedview8023"
     showgrid="false"
     inkscape:zoom="0.4609375"
     inkscape:cx="256"
     inkscape:cy="256"
     inkscape:window-x="-8"
     inkscape:window-y="-8"
     inkscape:window-maximized="1"
     inkscape:current-layer="Layer_1" /><g
     id="Grid_1_"><g
       id="Layer_1_1_"><g
         id="Grid"><g
           id="g8011"><rect
             fill="none"
             stroke="#A9CCDB"
             stroke-miterlimit="10"
             width="512"
             height="512"
             id="rect7949" /><line
             fill="none"
             stroke="#A9CCDB"
             stroke-miterlimit="10"
             x1="0"
             y1="480"
             x2="512"
             y2="480"
             id="line7951" /><line
             fill="none"
             stroke="#A9CCDB"
             stroke-miterlimit="10"
             x1="0"
             y1="448"
             x2="512"
             y2="448"
             id="line7953" /><line
             fill="none"
             stroke="#A9CCDB"
             stroke-miterlimit="10"
             x1="0"
             y1="416"
             x2="512"
             y2="416"
             id="line7955" /><line
             fill="none"
             stroke="#A9CCDB"
             stroke-miterlimit="10"
             x1="0"
             y1="384"
             x2="512"
             y2="384"
             id="line7957" /><line
             fill="none"
             stroke="#A9CCDB"
             stroke-miterlimit="10"
             x1="0"
             y1="352"
             x2="512"
             y2="352"
             id="line7959" /><line
             fill="none"
             stroke="#A9CCDB"
             stroke-miterlimit="10"
             x1="0"
             y1="320"
             x2="512"
             y2="320"
             id="line7961" /><line
             fill="none"
             stroke="#A9CCDB"
             stroke-miterlimit="10"
             x1="0"
             y1="288"
             x2="512"
             y2="288"
             id="line7963" /><line
             fill="none"
             stroke="#A9CCDB"
             stroke-miterlimit="10"
             x1="0"
             y1="256"
             x2="512"
             y2="256"
             id="line7965" /><line
             fill="none"
             stroke="#A9CCDB"
             stroke-miterlimit="10"
             x1="0"
             y1="224"
             x2="512"
             y2="224"
             id="line7967" /><line
             fill="none"
             stroke="#A9CCDB"
             stroke-miterlimit="10"
             x1="0"
             y1="192"
             x2="512"
             y2="192"
             id="line7969" /><line
             fill="none"
             stroke="#A9CCDB"
             stroke-miterlimit="10"
             x1="0"
             y1="160"
             x2="512"
             y2="160"
             id="line7971" /><line
             fill="none"
             stroke="#A9CCDB"
             stroke-miterlimit="10"
             x1="0"
             y1="128"
             x2="512"
             y2="128"
             id="line7973" /><line
             fill="none"
             stroke="#A9CCDB"
             stroke-miterlimit="10"
             x1="0"
             y1="96"
             x2="512"
             y2="96"
             id="line7975" /><line
             fill="none"
             stroke="#A9CCDB"
             stroke-miterlimit="10"
             x1="0"
             y1="64"
             x2="512"
             y2="64"
             id="line7977" /><line
             fill="none"
             stroke="#A9CCDB"
             stroke-miterlimit="10"
             x1="0"
             y1="32"
             x2="512"
             y2="32"
             id="line7979" /><line
             fill="none"
             stroke="#A9CCDB"
             stroke-miterlimit="10"
             x1="480"
             y1="0"
             x2="480"
             y2="512"
             id="line7981" /><line
             fill="none"
             stroke="#A9CCDB"
             stroke-miterlimit="10"
             x1="448"
             y1="0"
             x2="448"
             y2="512"
             id="line7983" /><line
             fill="none"
             stroke="#A9CCDB"
             stroke-miterlimit="10"
             x1="416"
             y1="0"
             x2="416"
             y2="512"
             id="line7985" /><line
             fill="none"
             stroke="#A9CCDB"
             stroke-miterlimit="10"
             x1="384"
             y1="0"
             x2="384"
             y2="512"
             id="line7987" /><line
             fill="none"
             stroke="#A9CCDB"
             stroke-miterlimit="10"
             x1="352"
             y1="0"
             x2="352"
             y2="512"
             id="line7989" /><line
             fill="none"
             stroke="#A9CCDB"
             stroke-miterlimit="10"
             x1="320"
             y1="0"
             x2="320"
             y2="512"
             id="line7991" /><line
             fill="none"
             stroke="#A9CCDB"
             stroke-miterlimit="10"
             x1="288"
             y1="0"
             x2="288"
             y2="512"
             id="line7993" /><line
             fill="none"
             stroke="#A9CCDB"
             stroke-miterlimit="10"
             x1="256"
             y1="0"
             x2="256"
             y2="512"
             id="line7995" /><line
             fill="none"
             stroke="#A9CCDB"
             stroke-miterlimit="10"
             x1="224"
             y1="0"
             x2="224"
             y2="512"
             id="line7997" /><line
             fill="none"
             stroke="#A9CCDB"
             stroke-miterlimit="10"
             x1="192"
             y1="0"
             x2="192"
             y2="512"
             id="line7999" /><line
             fill="none"
             stroke="#A9CCDB"
             stroke-miterlimit="10"
             x1="160"
             y1="0"
             x2="160"
             y2="512"
             id="line8001" /><line
             fill="none"
             stroke="#A9CCDB"
             stroke-miterlimit="10"
             x1="128"
             y1="0"
             x2="128"
             y2="512"
             id="line8003" /><line
             fill="none"
             stroke="#A9CCDB"
             stroke-miterlimit="10"
             x1="96"
             y1="0"
             x2="96"
             y2="512"
             id="line8005" /><line
             fill="none"
             stroke="#A9CCDB"
             stroke-miterlimit="10"
             x1="64"
             y1="0"
             x2="64"
             y2="512"
             id="line8007" /><line
             fill="none"
             stroke="#A9CCDB"
             stroke-miterlimit="10"
             x1="32"
             y1="0"
             x2="32"
             y2="512"
             id="line8009" /></g></g></g></g><g
     id="g8020"><g
       id="g8018"><path
         fill-rule="evenodd"
         clip-rule="evenodd"
         fill="#1D1D1B"
         d="M400,96c-5.312,0-10.562,0.375-15.792,1.125    C354.334,56.417,307.188,32,256,32s-98.312,24.417-128.208,65.125C122.562,96.375,117.312,96,112,96C50.25,96,0,146.25,0,208    c0,61.75,50.25,112,112,112c13.688,0,27.084-2.5,39.709-7.333C180.666,337.917,217.5,352,256,352    c38.542,0,75.333-14.083,104.291-39.333C372.916,317.5,386.312,320,400,320c61.75,0,112-50.25,112-112    C512,146.25,461.75,96,400,96z M400,288c-17.125,0-32.916-5.5-45.938-14.667C330.584,301.625,295.624,320,256,320    c-39.625,0-74.584-18.375-98.062-46.667C144.938,282.5,129.125,288,112,288c-44.188,0-80-35.812-80-80s35.812-80,80-80    c10.812,0,21.062,2.208,30.438,6.083C163.667,92.667,206.291,64,256,64s92.334,28.667,113.541,70.083    C378.938,130.208,389.209,128,400,128c44.188,0,80,35.812,80,80S444.188,288,400,288z M224,448c0,17.688,14.312,32,32,32    s32-14.312,32-32s-32-64-32-64S224,430.312,224,448z"
         id="path8016" /></g></g><path
     style="fill:#ffffff;stroke-width:2.16949153"
     d="m 241.80335,475.02176 c -16.62421,-8.19541 -20.0621,-26.96869 -8.99227,-49.10397 8.99909,-17.99459 21.39632,-38.4466 23.30487,-38.4466 2.38273,0 23.59737,36.81762 27.3464,47.4592 4.44562,12.61882 4.20575,19.44051 -0.98283,27.95046 -8.75587,14.36076 -25.83352,19.45805 -40.67617,12.14091 z"
     id="path8029"
     inkscape:connector-curvature="0" /><path
     style="fill:#ffffff;stroke-width:2.16949153"
     d="m 221.72203,347.09834 c -16.99964,-3.68382 -44.96591,-16.76421 -59.21142,-27.69436 l -10.39787,-7.97798 -11.14844,3.31073 c -14.51431,4.31028 -43.304908,4.23591 -58.238332,-0.15035 C 27.865394,298.47227 -7.1475549,244.08444 2.5522781,190.04746 12.228688,136.14096 62.437543,94.821439 115.62706,96.992232 l 12.44919,0.508082 11.36413,-12.434165 C 168.55874,53.206017 203.98092,36.55294 247.1291,34.43831 c 49.80879,-2.441057 87.86994,12.454794 122.80578,48.062055 14.57736,14.857509 14.93838,15.065426 25.21264,14.520112 60.801,-3.227067 115.11689,48.825893 115.11689,110.320873 0,39.14254 -18.15548,72.63869 -50.82657,93.77299 -24.59149,15.90777 -59.13398,21.36721 -87.93066,13.89743 l -11.70282,-3.03566 -11.03868,8.33428 c -33.80146,25.52034 -84.02443,36.11017 -127.04365,26.78795 z m 65.85635,-30.32043 c 18.45233,-4.76053 40.04996,-16.56024 54.73054,-29.90164 l 12.37554,-11.24662 10.04614,4.97178 c 39.23532,19.41734 89.64688,1.69847 108.28325,-38.05988 5.12729,-10.93845 5.79211,-14.97599 5.78581,-35.13816 -0.007,-20.86331 -0.5405,-23.83412 -6.34741,-35.31403 -7.78183,-15.38424 -23.4903,-30.44866 -39.29569,-37.68461 -14.81229,-6.7813 -38.96271,-8.8873 -53.03125,-4.62452 l -9.7323,2.94891 -7.82205,-12.01881 C 339.29479,84.945807 299.75261,63.779196 256.4339,63.896012 c -11.83425,0.03191 -26.06768,1.523974 -33.42709,3.504093 -28.71893,7.727104 -58.85277,29.692091 -74.00433,53.942815 -5.57987,8.93083 -7.21082,10.17469 -11.89062,9.06849 -17.15451,-4.05494 -36.00966,-3.66565 -49.87917,1.02981 -24.453541,8.27864 -39.04238,21.82093 -50.281017,46.67403 -6.803048,15.04425 -6.778929,42.52391 0.05265,59.98014 13.332625,34.06789 52.076492,55.92846 87.680507,49.47221 7.29606,-1.32302 17.70468,-4.66152 23.13026,-7.41888 l 9.8647,-5.01337 13.10179,12.23571 c 14.29024,13.34561 34.43945,24.50732 53.10995,29.42041 16.10864,4.23895 47.22937,4.23231 63.68685,-0.013 z"
     id="path8031"
     inkscape:connector-curvature="0" /></svg>