<?xml version="1.0" encoding="UTF-8" standalone="no"?>
<!-- Generator: Adobe Illustrator 15.1.0, SVG Export Plug-In . SVG Version: 6.00 Build 0)  -->

<svg
   xmlns:dc="http://purl.org/dc/elements/1.1/"
   xmlns:cc="http://creativecommons.org/ns#"
   xmlns:rdf="http://www.w3.org/1999/02/22-rdf-syntax-ns#"
   xmlns:svg="http://www.w3.org/2000/svg"
   xmlns="http://www.w3.org/2000/svg"
   xmlns:sodipodi="http://sodipodi.sourceforge.net/DTD/sodipodi-0.dtd"
   xmlns:inkscape="http://www.inkscape.org/namespaces/inkscape"
   version="1.1"
   id="Layer_1"
   x="0px"
   y="0px"
   width="512px"
   height="512px"
   viewBox="0 0 512 512"
   enable-background="new 0 0 512 512"
   xml:space="preserve"
   sodipodi:docname="11n.svg"
   inkscape:version="0.92.2 (5c3e80d, 2017-08-06)"><metadata
     id="metadata8867"><rdf:RDF><cc:Work
         rdf:about=""><dc:format>image/svg+xml</dc:format><dc:type
           rdf:resource="http://purl.org/dc/dcmitype/StillImage" /></cc:Work></rdf:RDF></metadata><defs
     id="defs8865" /><sodipodi:namedview
     pagecolor="#ffffff"
     bordercolor="#666666"
     borderopacity="1"
     objecttolerance="10"
     gridtolerance="10"
     guidetolerance="10"
     inkscape:pageopacity="0"
     inkscape:pageshadow="2"
     inkscape:window-width="1366"
     inkscape:window-height="705"
     id="namedview8863"
     showgrid="false"
     inkscape:zoom="0.4609375"
     inkscape:cx="256"
     inkscape:cy="256"
     inkscape:window-x="-8"
     inkscape:window-y="-8"
     inkscape:window-maximized="1"
     inkscape:current-layer="Layer_1" /><g
     id="Grid_1_"><g
       id="Layer_1_1_"><g
         id="Grid"><g
           id="g8851"><rect
             fill="none"
             stroke="#A9CCDB"
             stroke-miterlimit="10"
             width="512"
             height="512"
             id="rect8789" /><line
             fill="none"
             stroke="#A9CCDB"
             stroke-miterlimit="10"
             x1="0"
             y1="480"
             x2="512"
             y2="480"
             id="line8791" /><line
             fill="none"
             stroke="#A9CCDB"
             stroke-miterlimit="10"
             x1="0"
             y1="448"
             x2="512"
             y2="448"
             id="line8793" /><line
             fill="none"
             stroke="#A9CCDB"
             stroke-miterlimit="10"
             x1="0"
             y1="416"
             x2="512"
             y2="416"
             id="line8795" /><line
             fill="none"
             stroke="#A9CCDB"
             stroke-miterlimit="10"
             x1="0"
             y1="384"
             x2="512"
             y2="384"
             id="line8797" /><line
             fill="none"
             stroke="#A9CCDB"
             stroke-miterlimit="10"
             x1="0"
             y1="352"
             x2="512"
             y2="352"
             id="line8799" /><line
             fill="none"
             stroke="#A9CCDB"
             stroke-miterlimit="10"
             x1="0"
             y1="320"
             x2="512"
             y2="320"
             id="line8801" /><line
             fill="none"
             stroke="#A9CCDB"
             stroke-miterlimit="10"
             x1="0"
             y1="288"
             x2="512"
             y2="288"
             id="line8803" /><line
             fill="none"
             stroke="#A9CCDB"
             stroke-miterlimit="10"
             x1="0"
             y1="256"
             x2="512"
             y2="256"
             id="line8805" /><line
             fill="none"
             stroke="#A9CCDB"
             stroke-miterlimit="10"
             x1="0"
             y1="224"
             x2="512"
             y2="224"
             id="line8807" /><line
             fill="none"
             stroke="#A9CCDB"
             stroke-miterlimit="10"
             x1="0"
             y1="192"
             x2="512"
             y2="192"
             id="line8809" /><line
             fill="none"
             stroke="#A9CCDB"
             stroke-miterlimit="10"
             x1="0"
             y1="160"
             x2="512"
             y2="160"
             id="line8811" /><line
             fill="none"
             stroke="#A9CCDB"
             stroke-miterlimit="10"
             x1="0"
             y1="128"
             x2="512"
             y2="128"
             id="line8813" /><line
             fill="none"
             stroke="#A9CCDB"
             stroke-miterlimit="10"
             x1="0"
             y1="96"
             x2="512"
             y2="96"
             id="line8815" /><line
             fill="none"
             stroke="#A9CCDB"
             stroke-miterlimit="10"
             x1="0"
             y1="64"
             x2="512"
             y2="64"
             id="line8817" /><line
             fill="none"
             stroke="#A9CCDB"
             stroke-miterlimit="10"
             x1="0"
             y1="32"
             x2="512"
             y2="32"
             id="line8819" /><line
             fill="none"
             stroke="#A9CCDB"
             stroke-miterlimit="10"
             x1="480"
             y1="0"
             x2="480"
             y2="512"
             id="line8821" /><line
             fill="none"
             stroke="#A9CCDB"
             stroke-miterlimit="10"
             x1="448"
             y1="0"
             x2="448"
             y2="512"
             id="line8823" /><line
             fill="none"
             stroke="#A9CCDB"
             stroke-miterlimit="10"
             x1="416"
             y1="0"
             x2="416"
             y2="512"
             id="line8825" /><line
             fill="none"
             stroke="#A9CCDB"
             stroke-miterlimit="10"
             x1="384"
             y1="0"
             x2="384"
             y2="512"
             id="line8827" /><line
             fill="none"
             stroke="#A9CCDB"
             stroke-miterlimit="10"
             x1="352"
             y1="0"
             x2="352"
             y2="512"
             id="line8829" /><line
             fill="none"
             stroke="#A9CCDB"
             stroke-miterlimit="10"
             x1="320"
             y1="0"
             x2="320"
             y2="512"
             id="line8831" /><line
             fill="none"
             stroke="#A9CCDB"
             stroke-miterlimit="10"
             x1="288"
             y1="0"
             x2="288"
             y2="512"
             id="line8833" /><line
             fill="none"
             stroke="#A9CCDB"
             stroke-miterlimit="10"
             x1="256"
             y1="0"
             x2="256"
             y2="512"
             id="line8835" /><line
             fill="none"
             stroke="#A9CCDB"
             stroke-miterlimit="10"
             x1="224"
             y1="0"
             x2="224"
             y2="512"
             id="line8837" /><line
             fill="none"
             stroke="#A9CCDB"
             stroke-miterlimit="10"
             x1="192"
             y1="0"
             x2="192"
             y2="512"
             id="line8839" /><line
             fill="none"
             stroke="#A9CCDB"
             stroke-miterlimit="10"
             x1="160"
             y1="0"
             x2="160"
             y2="512"
             id="line8841" /><line
             fill="none"
             stroke="#A9CCDB"
             stroke-miterlimit="10"
             x1="128"
             y1="0"
             x2="128"
             y2="512"
             id="line8843" /><line
             fill="none"
             stroke="#A9CCDB"
             stroke-miterlimit="10"
             x1="96"
             y1="0"
             x2="96"
             y2="512"
             id="line8845" /><line
             fill="none"
             stroke="#A9CCDB"
             stroke-miterlimit="10"
             x1="64"
             y1="0"
             x2="64"
             y2="512"
             id="line8847" /><line
             fill="none"
             stroke="#A9CCDB"
             stroke-miterlimit="10"
             x1="32"
             y1="0"
             x2="32"
             y2="512"
             id="line8849" /></g></g></g></g><g
     id="g8860"><g
       id="g8858"><path
         fill="#1D1D1B"
         d="M192,384l32,32l-32,96l96-96l-32-32l32-64L192,384z M512,134.833c0-49.146-40-89.124-89.167-89.124    c-2.396,0-4.771,0.083-7.146,0.27C392.562,17.146,357.709,0,320,0c-37.688,0-72.562,17.146-95.688,45.979    c-2.375-0.187-4.771-0.27-7.188-0.27C168,45.709,128,85.688,128,134.833c0,5.146,0.688,10.125,1.5,15.042    c-0.542,0.708-1.188,1.354-1.708,2.083c-5.229-0.75-10.479-1.125-15.792-1.125c-61.75,0-112,50.25-112,112    c0,61.751,50.25,112,112,112c13.688,0,27.084-2.499,39.709-7.333c1.104,0.959,2.416,1.625,3.541,2.562l28.312-18.875    c-9.438-6.688-18.25-14.125-25.625-23c-13,9.146-28.812,14.646-45.938,14.646c-44.188,0-80-35.791-80-80c0-44.167,35.812-80,80-80    c10.812,0,21.062,2.209,30.438,6.083c0.562-1.083,1.25-2,1.812-3.042c5.625-10.271,12.562-19.667,20.666-28.042    c23.084-23.896,55.167-39,91.084-39c49.709,0,92.334,28.667,113.541,70.083c5.646-2.333,11.668-3.833,17.875-4.833l12.584-1.25    c12.334,0,23.875,3.042,34.312,8c11.312,5.417,21.021,13.375,28.646,23.208c10.5,13.521,17.042,30.334,17.042,48.792    c0,44.209-35.812,80-80,80c-17.125,0-32.916-5.5-45.938-14.646c-14,16.875-32.438,29.562-53.146,37.562l-5.979,11.938l18.25,18.25    c17.062-6.646,33.021-16.188,47.104-28.438c12.625,4.834,26.021,7.333,39.709,7.333c61.75,0,112-50.249,112-112    c0-25.666-9.042-49.083-23.666-68C502.916,178.958,512,158.021,512,134.833z M465.562,172.458    c-18.479-13.438-41-21.625-65.562-21.625c-5.312,0-10.562,0.375-15.792,1.125C354.334,111.271,307.188,86.833,256,86.833    c-34.125,0-66.312,11.062-92.938,30.354c7.479-22.853,28.729-39.478,54.062-39.478c7.75,0,15.062,1.562,21.75,4.333    C254.062,52.458,284.5,32,320,32s65.958,20.458,81.084,50.042c6.729-2.771,14.083-4.333,21.749-4.333    c31.584,0,57.167,25.583,57.167,57.124C480,149.333,474.438,162.396,465.562,172.458z"
         id="path8856" /></g></g><path
     style="fill:#ffffff;stroke-width:2.16949153"
     d="m 195.68814,505.74588 c 0,-1.15134 6.57434,-21.89546 14.60965,-46.09804 l 14.60965,-44.0047 -15.59401,-15.594 -15.59401,-15.59401 43.49672,-29.01916 c 23.92319,-15.96054 43.95055,-28.56533 44.50523,-28.01064 0.55469,0.55468 -5.32202,13.64178 -13.05935,29.08244 l -14.06787,28.07392 16.10726,16.10725 16.10725,16.10725 -45.56026,45.52152 c -25.05815,25.03683 -45.56026,44.57951 -45.56026,43.42817 z"
     id="path8869"
     inkscape:connector-curvature="0" /><path
     style="fill:#ffffff;stroke-width:2.16949153"
     d="m 303.75231,385.84407 c -6.74269,-7.0333 -7.48787,-8.80688 -5.4999,-13.09 1.28523,-2.76903 8.96137,-8.45507 17.40234,-12.89068 8.3065,-4.36495 20.372,-12.75206 26.81218,-18.63802 l 11.70942,-10.70175 12.70252,5.70055 c 17.22294,7.72919 34.5387,9.31504 52.22806,4.78323 24.19911,-6.19954 41.69932,-20.24196 53.72255,-43.10784 5.38295,-10.23728 5.94829,-13.46978 5.96207,-34.08939 0.013,-20.17191 -0.64792,-24.19443 -5.7777,-35.13817 -14.75456,-31.47699 -51.40029,-51.3091 -84.03615,-45.47907 -6.67535,1.19248 -13.60143,2.72878 -15.39126,3.414 -2.25115,0.86182 -5.59477,-2.51057 -10.84746,-10.94083 -15.31641,-24.58195 -47.01546,-47.0074 -76.1559,-53.8764 -17.76681,-4.188 -45.30124,-4.23713 -61.14978,-0.10911 -29.256,7.62022 -59.65904,29.20317 -76.16333,54.06794 l -7.65707,11.53587 -11.47086,-3.09584 c -34.535942,-9.32082 -74.182941,10.03202 -91.147354,44.49164 -6.44656,13.09481 -7.100006,16.23767 -7.069043,33.9996 0.02929,16.79811 0.889491,21.41535 6.07125,32.588 17.294696,37.28991 58.226999,56.38953 96.145237,44.8628 8.19606,-2.49151 16.78277,-5.90765 19.08156,-7.59144 3.80086,-2.78398 5.07535,-2.20312 14.06379,6.40987 5.43629,5.20923 10.63342,9.47131 11.54919,9.47131 0.91576,0 1.66502,0.83805 1.66502,1.86233 0,2.91676 -22.97558,17.4348 -27.44866,17.34452 -2.20493,-0.0445 -11.74231,1.59922 -21.19418,3.65267 C 102.72026,377.61035 71.794237,370.497 46.045381,351.54176 16.010296,329.43119 -2.560873,288.35276 1.4787263,252.96271 8.1428493,194.57978 52.90417,153.75138 111.88061,152.26123 l 17.63803,-0.44566 -0.6662,-10.31661 c -2.60374,-40.32056 25.10923,-79.47195 64.5176,-91.146967 6.48097,-1.920036 16.11928,-3.490976 21.41845,-3.490976 8.78505,0 10.86399,-1.149798 23.57053,-13.036147 46.54236,-43.5380958 116.37185,-43.5182785 164.06389,0.04656 13.00504,11.879583 13.98396,12.350449 28.44069,13.680065 47.17603,4.338884 81.14746,43.486605 79.05425,91.099875 -0.77752,17.68629 -6.3171,33.34917 -18.2336,51.55456 -3.51444,5.36919 -3.43513,5.92872 2.07846,14.6628 14.38475,22.78693 20.00803,54.40844 14.44096,81.20602 -12.75006,61.37346 -79.0933,100.86534 -139.4885,83.03278 -8.72715,-2.57684 -9.24489,-2.43266 -19.7103,5.48829 -10.22642,7.74009 -31.60351,19.38384 -35.58732,19.38384 -1.02617,0 -5.37553,-3.66102 -9.66524,-8.13559 z M 469.70982,168.81552 c 6.43029,-7.10537 10.18171,-19.6658 10.18171,-34.0901 0,-24.54803 -9.89122,-40.527814 -31.74559,-51.286687 -13.02899,-6.414149 -14.94478,-6.76206 -30.66897,-5.569519 l -16.77189,1.272001 -6.50847,-9.727678 c -7.72998,-11.553359 -24.01475,-24.685581 -39.05085,-31.491033 -9.0873,-4.112985 -14.73681,-4.930211 -34.81682,-5.036412 -23.45526,-0.124052 -24.32406,0.04847 -40.5079,8.043283 -16.22808,8.016688 -33.84884,24.035341 -39.11656,35.560006 -1.8775,4.107591 -2.92673,4.404532 -8.58885,2.430709 -3.54753,-1.236675 -12.75904,-1.742076 -20.47003,-1.123111 -17.7005,1.420826 -31.6185,9.530772 -41.44899,24.152101 -9.18841,13.66635 -9.41318,18.48275 -0.56863,12.18487 24.00835,-17.095451 62.47002,-27.346197 95.40318,-25.426707 39.88272,2.324541 70.85876,16.189197 100.47488,44.971827 l 19.03822,18.50245 15.7463,0.1383 c 17.86299,0.1569 41.28243,6.51407 54.65181,14.83514 10.47105,6.51716 10.38141,6.50708 14.76745,1.66055 z"
     id="path8871"
     inkscape:connector-curvature="0" /></svg>