<?xml version="1.0" encoding="UTF-8" standalone="no"?>
<!-- Generator: Adobe Illustrator 15.1.0, SVG Export Plug-In . SVG Version: 6.00 Build 0)  -->

<svg
   xmlns:dc="http://purl.org/dc/elements/1.1/"
   xmlns:cc="http://creativecommons.org/ns#"
   xmlns:rdf="http://www.w3.org/1999/02/22-rdf-syntax-ns#"
   xmlns:svg="http://www.w3.org/2000/svg"
   xmlns="http://www.w3.org/2000/svg"
   xmlns:sodipodi="http://sodipodi.sourceforge.net/DTD/sodipodi-0.dtd"
   xmlns:inkscape="http://www.inkscape.org/namespaces/inkscape"
   version="1.1"
   id="Layer_1"
   x="0px"
   y="0px"
   width="512px"
   height="512px"
   viewBox="0 0 512 512"
   enable-background="new 0 0 512 512"
   xml:space="preserve"
   sodipodi:docname="13n.svg"
   inkscape:version="0.92.2 (5c3e80d, 2017-08-06)"><metadata
     id="metadata9199"><rdf:RDF><cc:Work
         rdf:about=""><dc:format>image/svg+xml</dc:format><dc:type
           rdf:resource="http://purl.org/dc/dcmitype/StillImage" /></cc:Work></rdf:RDF></metadata><defs
     id="defs9197" /><sodipodi:namedview
     pagecolor="#ffffff"
     bordercolor="#666666"
     borderopacity="1"
     objecttolerance="10"
     gridtolerance="10"
     guidetolerance="10"
     inkscape:pageopacity="0"
     inkscape:pageshadow="2"
     inkscape:window-width="1366"
     inkscape:window-height="705"
     id="namedview9195"
     showgrid="false"
     inkscape:zoom="0.4609375"
     inkscape:cx="256"
     inkscape:cy="256"
     inkscape:window-x="-8"
     inkscape:window-y="-8"
     inkscape:window-maximized="1"
     inkscape:current-layer="Layer_1" /><g
     id="Grid_1_"><g
       id="Layer_1_1_"><g
         id="Grid"><g
           id="g9183"><rect
             fill="none"
             stroke="#A9CCDB"
             stroke-miterlimit="10"
             width="512"
             height="512"
             id="rect9121" /><line
             fill="none"
             stroke="#A9CCDB"
             stroke-miterlimit="10"
             x1="0"
             y1="480"
             x2="512"
             y2="480"
             id="line9123" /><line
             fill="none"
             stroke="#A9CCDB"
             stroke-miterlimit="10"
             x1="0"
             y1="448"
             x2="512"
             y2="448"
             id="line9125" /><line
             fill="none"
             stroke="#A9CCDB"
             stroke-miterlimit="10"
             x1="0"
             y1="416"
             x2="512"
             y2="416"
             id="line9127" /><line
             fill="none"
             stroke="#A9CCDB"
             stroke-miterlimit="10"
             x1="0"
             y1="384"
             x2="512"
             y2="384"
             id="line9129" /><line
             fill="none"
             stroke="#A9CCDB"
             stroke-miterlimit="10"
             x1="0"
             y1="352"
             x2="512"
             y2="352"
             id="line9131" /><line
             fill="none"
             stroke="#A9CCDB"
             stroke-miterlimit="10"
             x1="0"
             y1="320"
             x2="512"
             y2="320"
             id="line9133" /><line
             fill="none"
             stroke="#A9CCDB"
             stroke-miterlimit="10"
             x1="0"
             y1="288"
             x2="512"
             y2="288"
             id="line9135" /><line
             fill="none"
             stroke="#A9CCDB"
             stroke-miterlimit="10"
             x1="0"
             y1="256"
             x2="512"
             y2="256"
             id="line9137" /><line
             fill="none"
             stroke="#A9CCDB"
             stroke-miterlimit="10"
             x1="0"
             y1="224"
             x2="512"
             y2="224"
             id="line9139" /><line
             fill="none"
             stroke="#A9CCDB"
             stroke-miterlimit="10"
             x1="0"
             y1="192"
             x2="512"
             y2="192"
             id="line9141" /><line
             fill="none"
             stroke="#A9CCDB"
             stroke-miterlimit="10"
             x1="0"
             y1="160"
             x2="512"
             y2="160"
             id="line9143" /><line
             fill="none"
             stroke="#A9CCDB"
             stroke-miterlimit="10"
             x1="0"
             y1="128"
             x2="512"
             y2="128"
             id="line9145" /><line
             fill="none"
             stroke="#A9CCDB"
             stroke-miterlimit="10"
             x1="0"
             y1="96"
             x2="512"
             y2="96"
             id="line9147" /><line
             fill="none"
             stroke="#A9CCDB"
             stroke-miterlimit="10"
             x1="0"
             y1="64"
             x2="512"
             y2="64"
             id="line9149" /><line
             fill="none"
             stroke="#A9CCDB"
             stroke-miterlimit="10"
             x1="0"
             y1="32"
             x2="512"
             y2="32"
             id="line9151" /><line
             fill="none"
             stroke="#A9CCDB"
             stroke-miterlimit="10"
             x1="480"
             y1="0"
             x2="480"
             y2="512"
             id="line9153" /><line
             fill="none"
             stroke="#A9CCDB"
             stroke-miterlimit="10"
             x1="448"
             y1="0"
             x2="448"
             y2="512"
             id="line9155" /><line
             fill="none"
             stroke="#A9CCDB"
             stroke-miterlimit="10"
             x1="416"
             y1="0"
             x2="416"
             y2="512"
             id="line9157" /><line
             fill="none"
             stroke="#A9CCDB"
             stroke-miterlimit="10"
             x1="384"
             y1="0"
             x2="384"
             y2="512"
             id="line9159" /><line
             fill="none"
             stroke="#A9CCDB"
             stroke-miterlimit="10"
             x1="352"
             y1="0"
             x2="352"
             y2="512"
             id="line9161" /><line
             fill="none"
             stroke="#A9CCDB"
             stroke-miterlimit="10"
             x1="320"
             y1="0"
             x2="320"
             y2="512"
             id="line9163" /><line
             fill="none"
             stroke="#A9CCDB"
             stroke-miterlimit="10"
             x1="288"
             y1="0"
             x2="288"
             y2="512"
             id="line9165" /><line
             fill="none"
             stroke="#A9CCDB"
             stroke-miterlimit="10"
             x1="256"
             y1="0"
             x2="256"
             y2="512"
             id="line9167" /><line
             fill="none"
             stroke="#A9CCDB"
             stroke-miterlimit="10"
             x1="224"
             y1="0"
             x2="224"
             y2="512"
             id="line9169" /><line
             fill="none"
             stroke="#A9CCDB"
             stroke-miterlimit="10"
             x1="192"
             y1="0"
             x2="192"
             y2="512"
             id="line9171" /><line
             fill="none"
             stroke="#A9CCDB"
             stroke-miterlimit="10"
             x1="160"
             y1="0"
             x2="160"
             y2="512"
             id="line9173" /><line
             fill="none"
             stroke="#A9CCDB"
             stroke-miterlimit="10"
             x1="128"
             y1="0"
             x2="128"
             y2="512"
             id="line9175" /><line
             fill="none"
             stroke="#A9CCDB"
             stroke-miterlimit="10"
             x1="96"
             y1="0"
             x2="96"
             y2="512"
             id="line9177" /><line
             fill="none"
             stroke="#A9CCDB"
             stroke-miterlimit="10"
             x1="64"
             y1="0"
             x2="64"
             y2="512"
             id="line9179" /><line
             fill="none"
             stroke="#A9CCDB"
             stroke-miterlimit="10"
             x1="32"
             y1="0"
             x2="32"
             y2="512"
             id="line9181" /></g></g></g></g><g
     id="g9192"><g
       id="g9190"><path
         fill-rule="evenodd"
         clip-rule="evenodd"
         fill="#1D1D1B"
         d="M326.042,443.688l-18-10.376    c0.542-3.124,0.958-6.311,0.958-9.624c0-3.312-0.416-6.5-1-9.625l18.042-10.396c8.417-4.917,11.291-15.729,6.458-24.104    c-4.876-8.479-15.667-11.375-24.125-6.5l-18.188,10.5c-4.876-4.146-10.375-7.396-16.5-9.604v-20.896    c0-9.771-7.938-17.688-17.688-17.688s-17.666,7.917-17.666,17.688v20.875c-6.126,2.188-11.646,5.479-16.521,9.625l-18.146-10.5    c-8.479-4.875-19.292-2-24.167,6.479c-4.875,8.417-1.938,19.25,6.5,24.126l17.959,10.375c-0.584,3.146-0.959,6.334-0.959,9.646    c0,3.313,0.375,6.5,0.959,9.624L186,443.688c-8.459,4.875-11.375,15.75-6.5,24.188s15.688,11.312,24.125,6.438l18.167-10.438    c4.874,4.125,10.396,7.375,16.542,9.562v20.938c0,9.749,7.916,17.624,17.666,17.624s17.688-7.875,17.688-17.624v-20.938    c6.125-2.188,11.688-5.438,16.521-9.625l18.167,10.5c8.458,4.875,19.249,2,24.125-6.438    C337.375,459.438,334.5,448.625,326.042,443.688z M256,441.375c-9.75,0-17.688-7.938-17.688-17.688s7.938-17.646,17.688-17.646    s17.667,7.896,17.667,17.646S265.75,441.375,256,441.375z M474.166,396.25l-12.083-3.208c-0.291-3.833-1.208-7.479-2.896-10.979    l8.771-8.771c4.125-4.125,4.104-10.792,0-14.854c-4.083-4.104-10.708-4.125-14.833,0l-8.791,8.75    c-3.459-1.625-7.146-2.562-10.959-2.875l-3.209-12.062c-1.499-5.583-7.25-8.938-12.874-7.438    c-5.604,1.521-8.875,7.271-7.417,12.875l3.209,11.896c-1.584,1.084-3.084,2.292-4.5,3.667c-1.375,1.417-2.542,2.916-3.626,4.459    l-11.896-3.209c-5.604-1.499-11.396,1.876-12.896,7.438c-1.499,5.625,1.876,11.354,7.417,12.875l12,3.229    c0.334,3.771,1.292,7.458,2.979,10.959l-8.812,8.812c-4.083,4.104-4.062,10.729,0.042,14.812    c4.083,4.083,10.708,4.125,14.792,0.042l8.832-8.833c3.459,1.707,7.168,2.666,11.001,2.957l3.166,12.021    c1.542,5.604,7.25,8.938,12.876,7.438c5.583-1.5,8.957-7.249,7.458-12.917l-3.209-11.896c1.5-1.062,3.042-2.25,4.459-3.625    c1.375-1.396,2.542-2.938,3.624-4.479l11.917,3.209c5.604,1.5,11.375-1.854,12.854-7.417    C483.062,403.541,479.75,397.792,474.166,396.25z M438.312,402.938c-4.125,4.125-10.771,4.104-14.875,0    c-4.062-4.062-4.104-10.729,0-14.854c4.104-4.083,10.771-4.083,14.875,0C442.375,392.188,442.375,398.875,438.312,402.938z     M118.938,342.5l-11.875,3.188c-1.104-1.5-2.25-3.021-3.646-4.438c-1.416-1.375-2.916-2.562-4.479-3.625l3.188-11.938    c1.5-5.604-1.834-11.375-7.375-12.854c-5.625-1.5-11.375,1.834-12.875,7.417l-3.25,12.062c-3.812,0.312-7.458,1.25-10.938,2.896    l-8.812-8.771c-4.125-4.125-10.75-4.104-14.834,0c-4.104,4.104-4.104,10.75,0,14.854l8.771,8.771    c-1.646,3.5-2.604,7.188-2.896,10.979l-12.042,3.208c-5.625,1.542-8.959,7.25-7.458,12.875c1.521,5.583,7.271,8.875,12.896,7.417    l11.875-3.23c1.062,1.604,2.25,3.105,3.688,4.501c1.375,1.375,2.875,2.604,4.438,3.625l-3.188,11.896    c-1.5,5.625,1.834,11.417,7.416,12.917c5.626,1.5,11.334-1.833,12.834-7.438l3.25-12c3.812-0.312,7.5-1.271,11-2.938l8.791,8.792    c4.084,4.124,10.709,4.041,14.834-0.042c4.062-4.062,4.125-10.708,0-14.812l-8.812-8.812c1.688-3.46,2.688-7.188,2.938-11.001    l12.062-3.188c5.562-1.521,8.896-7.25,7.396-12.875C130.334,344.376,124.584,341.042,118.938,342.5z M88.562,370.958    c-4.104,4.104-10.75,4.104-14.875,0c-4.062-4.083-4.062-10.771,0-14.833c4.125-4.083,10.771-4.083,14.875,0    S92.625,366.875,88.562,370.958z M512,176c0-61.75-50.25-112-112-112c-5.312,0-10.562,0.375-15.792,1.125    C354.334,24.417,307.188,0,256,0s-98.312,24.417-128.208,65.125C122.562,64.375,117.312,64,112,64C50.25,64,0,114.25,0,176    s50.25,112,112,112c13.688,0,27.084-2.5,39.709-7.333C180.666,305.917,217.5,320,256,320c38.542,0,75.333-14.083,104.291-39.333    C372.916,285.5,386.312,288,400,288C461.75,288,512,237.75,512,176z M354.062,241.333C330.584,269.625,295.624,288,256,288    c-39.625,0-74.584-18.375-98.062-46.667C144.938,250.5,129.125,256,112,256c-44.188,0-80-35.812-80-80s35.812-80,80-80    c10.812,0,21.062,2.208,30.438,6.083C163.667,60.667,206.291,32,256,32s92.334,28.667,113.541,70.083    C378.938,98.208,389.209,96,400,96c44.188,0,80,35.812,80,80s-35.812,80-80,80C382.875,256,367.084,250.5,354.062,241.333z"
         id="path9188" /></g></g><path
     style="fill:#ffffff;stroke-width:2.16949153"
     d="m 245.37008,507.05427 c -4.1914,-3.39399 -5.17802,-6.59079 -5.88262,-19.06056 -0.83733,-14.81859 -0.93904,-15.03584 -9.28911,-19.84153 l -8.4425,-4.85889 -13.2163,6.87834 c -12.90026,6.71385 -13.39216,6.79448 -20.57012,3.37155 -4.49718,-2.14456 -7.88868,-5.63786 -8.73071,-8.99278 -2.5295,-10.07832 0.6948,-15.75036 13.20789,-23.23477 l 11.91949,-7.12935 v -11.16214 c 0,-10.39228 -0.45538,-11.35076 -6.60248,-13.89698 -9.91017,-4.10492 -19.43142,-13.9363 -19.43142,-20.06433 0,-2.94001 2.0234,-7.91781 4.49645,-11.06178 5.89227,-7.49081 14.14443,-7.42017 27.86173,0.23847 l 10.66552,5.95478 8.31866,-4.74032 c 8.07039,-4.59884 8.35103,-5.16338 9.40341,-18.91579 1.30156,-17.00879 6.40531,-23.75192 17.73364,-23.42982 10.22968,0.29085 14.80873,6.82686 14.80873,21.13759 0,12.99434 1.48779,18.35548 5.11347,18.42601 1.36386,0.0265 4.86459,1.88119 7.7794,4.12146 5.24938,4.03459 5.40536,4.01356 16.4466,-2.21773 16.24256,-9.16673 27.12509,-7.78866 31.60811,4.00258 3.36081,8.83959 -1.22882,16.89209 -13.74726,24.11957 -10.55664,6.09483 -10.88685,6.58651 -11.1414,16.58943 -0.25857,10.16135 -0.0991,10.41281 11.17583,17.62301 13.94304,8.91642 17.37168,15.11957 13.18509,23.8546 -1.63231,3.40571 -5.71703,7.50985 -9.07715,9.12032 -5.59876,2.68341 -7.24374,2.34627 -19.6836,-4.03413 l -13.57429,-6.96224 -8.71222,5.49979 c -8.58877,5.42185 -8.71718,5.69451 -9.06114,19.24033 -0.29866,11.76199 -1.1446,14.44341 -5.87488,18.62189 -6.73685,5.95097 -13.98235,6.23237 -20.68682,0.80342 z m 22.70345,-69.84224 c 4.39151,-3.45436 5.7163,-6.41543 5.7163,-12.7766 0,-10.64509 -5.45629,-17.22869 -15.62817,-18.85708 -6.94672,-1.11208 -8.93006,-0.39117 -14.64407,5.32283 -7.02026,7.02026 -8.19092,12.93616 -4.08525,20.64483 5.81628,10.92048 18.71678,13.47256 28.64119,5.66602 z"
     id="path9201"
     inkscape:connector-curvature="0" /><path
     style="fill:#ffffff;stroke-width:2.16949153"
     d="m 63.548442,410.49098 c -1.763512,-2.12491 -2.190761,-6.45439 -1.253634,-12.70359 1.820967,-12.14308 -2.049686,-15.73993 -16.938089,-15.73993 -17.660938,0 -20.310067,-12.04804 -3.853349,-17.52474 12.410746,-4.13023 14.488991,-13.30623 5.207777,-22.99373 -5.064363,-5.28606 -5.478305,-6.72933 -3.300748,-11.50854 3.259659,-7.15418 10.417198,-7.08451 17.994642,0.17514 4.708807,4.51132 7.184727,5.35452 12.375196,4.2145 5.213642,-1.1451 6.755951,-2.84991 7.84891,-8.67589 1.703196,-9.07881 6.143026,-12.90041 12.990668,-11.18176 6.223345,1.56196 7.660185,6.17714 5.033563,16.16794 -1.498845,5.70111 -1.109204,8.12947 1.824552,11.37124 3.122,3.44977 5.60593,3.90162 15.23022,2.77047 11.09061,-1.30348 11.55105,-1.14743 12.93978,4.38575 1.77532,7.07341 -1.67438,11.62251 -10.55964,13.92491 -4.54197,1.17694 -7.26468,3.62084 -8.64402,7.75886 -1.69942,5.09824 -1.13008,6.96292 3.64904,11.95124 6.0761,6.34209 7.25748,12.97314 3.05923,17.17139 -4.0331,4.0331 -8.55612,3.11621 -14.97792,-3.03627 -8.581988,-8.22207 -16.996115,-5.89779 -22.642798,6.25472 -4.566767,9.82838 -11.295308,12.86707 -15.98338,7.21829 z m 25.400711,-38.64013 c 3.356025,-3.35603 3.356025,-13.13211 0,-16.48814 -3.356026,-3.35602 -13.132111,-3.35602 -16.488136,0 -3.198375,3.19838 -3.345156,9.31281 -0.357567,14.89517 2.545334,4.756 12.720482,5.71819 16.845703,1.59297 z"
     id="path9203"
     inkscape:connector-curvature="0" /><path
     style="fill:#ffffff;stroke-width:2.16949153"
     d="m 435.74919,442.81554 c -1.77756,-1.77756 -3.86425,-6.1109 -4.6371,-9.62964 -0.95315,-4.33968 -3.27831,-7.03576 -7.22812,-8.38115 -4.88442,-1.66376 -6.97156,-0.98586 -12.94929,4.20591 -8.77771,7.62358 -12.34931,7.76818 -16.98858,0.68775 -3.47964,-5.31059 -3.38233,-5.78131 2.80301,-13.55932 8.67074,-10.90337 7.10102,-17.49526 -5.1376,-21.5748 -9.77885,-3.25962 -12.66384,-7.40421 -9.39959,-13.5035 2.93288,-5.48014 7.32145,-6.70776 15.54652,-4.34885 5.87511,1.68496 7.86081,1.27821 11.79274,-2.41565 4.18003,-3.92694 4.47653,-5.4327 2.55803,-12.99099 -2.63412,-10.37763 0.58878,-15.60188 9.02034,-14.62177 4.40848,0.51246 6.27904,2.58896 8.73702,9.69896 4.00503,11.58499 11.15715,13.62047 20.43315,5.81523 13.88723,-11.68534 26.12946,0.98299 13.65657,14.13188 -8.13896,8.58008 -5.83827,16.52514 5.8573,20.22716 6.67678,2.11341 9.17579,4.1347 9.7021,7.8474 1.21138,8.54527 -3.42361,11.75178 -14.73781,10.19568 -8.13557,-1.11893 -10.67558,-0.62203 -13.65623,2.67156 -3.04145,3.36076 -3.27706,5.43929 -1.39088,12.27047 1.89754,6.8723 1.65483,8.90501 -1.47638,12.36495 -4.50555,4.97858 -8.16911,5.2448 -12.5052,0.90872 z m 4.26447,-41.33153 c 6.55262,-10.00056 -2.30611,-20.21655 -13.83306,-15.95245 -6.59174,2.43844 -8.60399,11.79628 -3.70149,17.21349 5.38565,5.95107 13.17609,5.39081 17.53455,-1.26104 z"
     id="path9205"
     inkscape:connector-curvature="0" /><path
     style="fill:#ffffff;stroke-width:2.16949153"
     d="m 213.45916,312.48742 c -21.22348,-6.27454 -31.55654,-11.23157 -49.22865,-23.61628 l -13.01695,-9.12232 -9.76271,3.09254 c -15.05998,4.7706 -46.011295,4.06441 -63.240535,-1.44291 C 8.2327864,259.03019 -20.683944,175.49506 20.303412,114.11601 40.596862,83.726325 73.084036,66.409648 111.44439,65.535022 l 17.20181,-0.392205 8.74832,-10.234668 C 155.3059,33.953636 187.34154,13.989074 215.5796,6.1833385 c 21.40357,-5.91651287 63.17394,-5.27575558 84.24413,1.2923052 27.68228,8.6291963 44.71899,18.9022403 66.16949,39.8998273 17.06001,16.699802 20.25871,18.95237 25.33285,17.839789 12.08029,-2.64878 39.06213,2.983511 57.36977,11.975578 38.1877,18.756456 61.56857,56.258952 61.56857,98.754922 0,29.84327 -9.43488,53.20411 -30.64531,75.87814 -28.30501,30.25814 -74.76825,42.90272 -110.97073,30.19974 -8.0152,-2.81242 -8.43671,-2.68957 -19.49973,5.68372 -37.34426,28.26481 -90.85052,38.03628 -135.68948,24.78006 z m 73.34762,-27.40131 c 16.3868,-3.77532 40.14086,-16.62922 54.13651,-29.29458 l 13.28651,-12.02358 12.6758,5.68856 c 17.19736,7.71771 34.51989,9.301 52.20133,4.77123 24.19055,-6.19735 41.67302,-20.22157 53.73778,-43.10783 5.45632,-10.35036 5.96207,-13.33411 5.96207,-35.17415 0,-23.06305 -0.24967,-24.32489 -7.43513,-37.57761 -17.46629,-32.21448 -52.82547,-48.966563 -87.11804,-41.273832 l -14.27226,3.201642 -7.41779,-11.798094 C 347.29444,64.212137 315.49249,41.824586 286.58308,35.010039 268.63284,30.778802 241.23707,30.784566 224.9646,35.023056 195.21261,42.772415 164.81564,64.485634 148.81116,89.421069 L 141.68522,100.5235 130.1782,97.418277 c -34.57457,-9.3301 -74.210768,10.005713 -91.183514,44.482253 -6.454086,13.11011 -7.09826,16.21694 -7.049524,33.99961 0.04617,16.8432 0.915276,21.45262 6.235479,33.07043 6.870274,15.00275 23.078935,31.94639 37.69247,39.40165 21.33433,10.88397 50.362799,10.72679 72.353089,-0.39175 l 9.45487,-4.78047 11.95268,11.52824 c 29.35762,28.3151 74.8645,40.10529 117.17303,30.35787 z"
     id="path9207"
     inkscape:connector-curvature="0" /></svg>