<?xml version="1.0" encoding="UTF-8" standalone="no"?>
<!-- Generator: Adobe Illustrator 15.1.0, SVG Export Plug-In . SVG Version: 6.00 Build 0)  -->

<svg
   xmlns:dc="http://purl.org/dc/elements/1.1/"
   xmlns:cc="http://creativecommons.org/ns#"
   xmlns:rdf="http://www.w3.org/1999/02/22-rdf-syntax-ns#"
   xmlns:svg="http://www.w3.org/2000/svg"
   xmlns="http://www.w3.org/2000/svg"
   xmlns:sodipodi="http://sodipodi.sourceforge.net/DTD/sodipodi-0.dtd"
   xmlns:inkscape="http://www.inkscape.org/namespaces/inkscape"
   version="1.1"
   id="Layer_1"
   x="0px"
   y="0px"
   width="512px"
   height="512px"
   viewBox="0 0 512 512"
   enable-background="new 0 0 512 512"
   xml:space="preserve"
   sodipodi:docname="4.svg"
   inkscape:version="0.92.2 (5c3e80d, 2017-08-06)"><metadata
     id="metadata5999"><rdf:RDF><cc:Work
         rdf:about=""><dc:format>image/svg+xml</dc:format><dc:type
           rdf:resource="http://purl.org/dc/dcmitype/StillImage" /></cc:Work></rdf:RDF></metadata><defs
     id="defs5997" /><sodipodi:namedview
     pagecolor="#ffffff"
     bordercolor="#666666"
     borderopacity="1"
     objecttolerance="10"
     gridtolerance="10"
     guidetolerance="10"
     inkscape:pageopacity="0"
     inkscape:pageshadow="2"
     inkscape:window-width="1366"
     inkscape:window-height="705"
     id="namedview5995"
     showgrid="false"
     inkscape:zoom="0.4609375"
     inkscape:cx="256"
     inkscape:cy="256"
     inkscape:window-x="-8"
     inkscape:window-y="-8"
     inkscape:window-maximized="1"
     inkscape:current-layer="Layer_1" /><g
     id="Grid_1_"><g
       id="Layer_1_1_"><g
         id="Grid"><g
           id="g5983"><rect
             fill="none"
             stroke="#A9CCDB"
             stroke-miterlimit="10"
             width="512"
             height="512"
             id="rect5921" /><line
             fill="none"
             stroke="#A9CCDB"
             stroke-miterlimit="10"
             x1="0"
             y1="480"
             x2="512"
             y2="480"
             id="line5923" /><line
             fill="none"
             stroke="#A9CCDB"
             stroke-miterlimit="10"
             x1="0"
             y1="448"
             x2="512"
             y2="448"
             id="line5925" /><line
             fill="none"
             stroke="#A9CCDB"
             stroke-miterlimit="10"
             x1="0"
             y1="416"
             x2="512"
             y2="416"
             id="line5927" /><line
             fill="none"
             stroke="#A9CCDB"
             stroke-miterlimit="10"
             x1="0"
             y1="384"
             x2="512"
             y2="384"
             id="line5929" /><line
             fill="none"
             stroke="#A9CCDB"
             stroke-miterlimit="10"
             x1="0"
             y1="352"
             x2="512"
             y2="352"
             id="line5931" /><line
             fill="none"
             stroke="#A9CCDB"
             stroke-miterlimit="10"
             x1="0"
             y1="320"
             x2="512"
             y2="320"
             id="line5933" /><line
             fill="none"
             stroke="#A9CCDB"
             stroke-miterlimit="10"
             x1="0"
             y1="288"
             x2="512"
             y2="288"
             id="line5935" /><line
             fill="none"
             stroke="#A9CCDB"
             stroke-miterlimit="10"
             x1="0"
             y1="256"
             x2="512"
             y2="256"
             id="line5937" /><line
             fill="none"
             stroke="#A9CCDB"
             stroke-miterlimit="10"
             x1="0"
             y1="224"
             x2="512"
             y2="224"
             id="line5939" /><line
             fill="none"
             stroke="#A9CCDB"
             stroke-miterlimit="10"
             x1="0"
             y1="192"
             x2="512"
             y2="192"
             id="line5941" /><line
             fill="none"
             stroke="#A9CCDB"
             stroke-miterlimit="10"
             x1="0"
             y1="160"
             x2="512"
             y2="160"
             id="line5943" /><line
             fill="none"
             stroke="#A9CCDB"
             stroke-miterlimit="10"
             x1="0"
             y1="128"
             x2="512"
             y2="128"
             id="line5945" /><line
             fill="none"
             stroke="#A9CCDB"
             stroke-miterlimit="10"
             x1="0"
             y1="96"
             x2="512"
             y2="96"
             id="line5947" /><line
             fill="none"
             stroke="#A9CCDB"
             stroke-miterlimit="10"
             x1="0"
             y1="64"
             x2="512"
             y2="64"
             id="line5949" /><line
             fill="none"
             stroke="#A9CCDB"
             stroke-miterlimit="10"
             x1="0"
             y1="32"
             x2="512"
             y2="32"
             id="line5951" /><line
             fill="none"
             stroke="#A9CCDB"
             stroke-miterlimit="10"
             x1="480"
             y1="0"
             x2="480"
             y2="512"
             id="line5953" /><line
             fill="none"
             stroke="#A9CCDB"
             stroke-miterlimit="10"
             x1="448"
             y1="0"
             x2="448"
             y2="512"
             id="line5955" /><line
             fill="none"
             stroke="#A9CCDB"
             stroke-miterlimit="10"
             x1="416"
             y1="0"
             x2="416"
             y2="512"
             id="line5957" /><line
             fill="none"
             stroke="#A9CCDB"
             stroke-miterlimit="10"
             x1="384"
             y1="0"
             x2="384"
             y2="512"
             id="line5959" /><line
             fill="none"
             stroke="#A9CCDB"
             stroke-miterlimit="10"
             x1="352"
             y1="0"
             x2="352"
             y2="512"
             id="line5961" /><line
             fill="none"
             stroke="#A9CCDB"
             stroke-miterlimit="10"
             x1="320"
             y1="0"
             x2="320"
             y2="512"
             id="line5963" /><line
             fill="none"
             stroke="#A9CCDB"
             stroke-miterlimit="10"
             x1="288"
             y1="0"
             x2="288"
             y2="512"
             id="line5965" /><line
             fill="none"
             stroke="#A9CCDB"
             stroke-miterlimit="10"
             x1="256"
             y1="0"
             x2="256"
             y2="512"
             id="line5967" /><line
             fill="none"
             stroke="#A9CCDB"
             stroke-miterlimit="10"
             x1="224"
             y1="0"
             x2="224"
             y2="512"
             id="line5969" /><line
             fill="none"
             stroke="#A9CCDB"
             stroke-miterlimit="10"
             x1="192"
             y1="0"
             x2="192"
             y2="512"
             id="line5971" /><line
             fill="none"
             stroke="#A9CCDB"
             stroke-miterlimit="10"
             x1="160"
             y1="0"
             x2="160"
             y2="512"
             id="line5973" /><line
             fill="none"
             stroke="#A9CCDB"
             stroke-miterlimit="10"
             x1="128"
             y1="0"
             x2="128"
             y2="512"
             id="line5975" /><line
             fill="none"
             stroke="#A9CCDB"
             stroke-miterlimit="10"
             x1="96"
             y1="0"
             x2="96"
             y2="512"
             id="line5977" /><line
             fill="none"
             stroke="#A9CCDB"
             stroke-miterlimit="10"
             x1="64"
             y1="0"
             x2="64"
             y2="512"
             id="line5979" /><line
             fill="none"
             stroke="#A9CCDB"
             stroke-miterlimit="10"
             x1="32"
             y1="0"
             x2="32"
             y2="512"
             id="line5981" /></g></g></g></g><g
     id="g5992"><g
       id="g5990"><path
         fill="#1D1D1B"
         d="M271,127c8.833,0,16-7.167,16-16V79c0-8.833-7.167-16-16-16s-16,7.167-16,16v32    C255,119.833,262.167,127,271,127z M271,415c-8.833,0-16,7.167-16,16v32c0,8.833,7.167,16,16,16s16-7.167,16-16v-32    C287,422.167,279.833,415,271,415z M146.562,372.834l-22.625,22.625c-6.25,6.249-6.25,16.374,0,22.624s16.375,6.25,22.625,0    l22.625-22.624c6.25-6.271,6.25-16.376,0-22.625C162.938,366.583,152.812,366.562,146.562,372.834z M127,271    c0-8.833-7.167-16-16-16H79c-8.833,0-16,7.167-16,16s7.167,16,16,16h32C119.833,287,127,279.833,127,271z M146.541,169.167    c6.251,6.25,16.376,6.25,22.625,0c6.251-6.25,6.251-16.375,0-22.625l-22.625-22.625c-6.25-6.25-16.374-6.25-22.625,0    c-6.25,6.25-6.25,16.375,0,22.625L146.541,169.167z M335,159c-11.188,0-21.812,2.167-32,5.208    c-10.188-3.042-20.812-5.208-32-5.208c-61.75,0-112,50.25-112,112s50.25,112,112,112c11.188,0,21.812-2.166,32-5.209    c10.188,3.043,20.812,5.209,32,5.209c61.75,0,112-50.25,112-112S396.75,159,335,159z M255.229,349.417    C218.583,342.084,191,309.791,191,271c0-38.792,27.583-71.083,64.229-78.417C235.334,212.812,223,240.458,223,271    S235.334,329.188,255.229,349.417z"
         id="path5988" /></g></g><path
     style="fill:#ffffff;stroke-width:2.16949153"
     d="m 239.07797,376.98725 c -17.81533,-5.93249 -28.23409,-11.88053 -41.18209,-23.51076 -35.42224,-31.81719 -46.88386,-81.73448 -28.80783,-125.46293 18.74264,-45.34108 69.74863,-74.32918 116.85773,-66.41345 12.50393,2.10103 19.52121,2.10575 33.13119,0.0223 66.42508,-10.16853 126.10269,41.86311 126.10269,109.94622 0,48.69852 -31.64483,91.04229 -78.76333,105.3928 -12.55888,3.82497 -18.066,4.29002 -36.88136,3.11444 -26.21601,-1.63795 -24.46827,-1.63072 -54.66039,-0.22574 -19.47248,0.90613 -26.06038,0.37927 -35.79661,-2.86288 z m 8.84485,-37.85643 c -18.81654,-24.92234 -26.72944,-53.9117 -22.57917,-82.72012 2.66875,-18.52467 12.40662,-41.03833 23.72449,-54.8503 6.5243,-7.96206 7.04451,-9.34345 3.51854,-9.34345 -8.11042,0 -30.46929,13.22906 -40.52076,23.97489 -17.50884,18.71836 -24.97524,43.4779 -20.53353,68.09181 5.46832,30.30289 24.64905,52.89964 53.71601,63.28261 11.91402,4.2558 12.01528,3.93643 2.67442,-8.43544 z"
     id="path6001"
     inkscape:connector-curvature="0" /><path
     style="fill:#ffffff;stroke-width:2.16949153"
     d="m 259.81115,120.141 c -2.49764,-3.56588 -3.37725,-10.34646 -3.37725,-26.033894 0,-18.319535 0.5917,-21.803887 4.33898,-25.551174 5.46855,-5.46855 13.21627,-5.544394 19.82745,-0.194093 4.60385,3.725802 5.19587,6.194237 5.85524,24.413546 0.65586,18.122045 0.23709,20.899805 -3.95407,26.227995 -6.07771,7.72656 -17.66825,8.30768 -22.69035,1.13762 z"
     id="path6003"
     inkscape:connector-curvature="0" /><path
     style="fill:#ffffff;stroke-width:2.16949153"
     d="m 135.64221,156.80525 c -17.06186,-17.06186 -18.63115,-21.25937 -11.38983,-30.46522 7.9772,-10.14137 15.65275,-8.01012 32.75896,9.09609 12.84129,12.84129 14.81239,15.85623 14.81239,22.65664 0,5.64665 -1.35082,8.79041 -4.82171,11.22151 -9.20128,6.44483 -14.53253,4.31826 -31.35981,-12.50902 z"
     id="path6005"
     inkscape:connector-curvature="0" /><path
     style="fill:#ffffff;stroke-width:2.16949153"
     d="m 67.845598,279.78878 c -5.11239,-6.49935 -5.239959,-7.23208 -2.509463,-14.41383 3.037997,-7.99054 12.636812,-10.8002 33.912344,-9.92646 16.561151,0.68014 19.200231,1.35989 22.868791,5.89036 5.32955,6.58172 5.23937,11.34508 -0.34931,18.44993 -4.34037,5.51789 -5.27619,5.7163 -26.96118,5.7163 -21.684991,0 -22.620808,-0.19841 -26.961182,-5.7163 z"
     id="path6007"
     inkscape:connector-curvature="0" /><path
     style="fill:#ffffff;stroke-width:2.16949153"
     d="m 158.17817,411.33559 c -0.62407,-2.38644 -0.24979,-4.33898 0.83172,-4.33898 1.08151,0 1.96638,1.95254 1.96638,4.33898 0,2.38644 -0.37427,4.33899 -0.83171,4.33899 -0.45745,0 -1.34232,-1.95255 -1.96639,-4.33899 z"
     id="path6009"
     inkscape:connector-curvature="0" /><path
     style="fill:#ffffff;stroke-width:2.16949153"
     d="m 262.1502,474.09339 c -5.51789,-4.34038 -5.7163,-5.2762 -5.7163,-26.96119 0,-21.68499 0.19841,-22.6208 5.7163,-26.96118 7.10485,-5.58868 11.86821,-5.67886 18.44993,-0.34931 4.53047,3.66856 5.21023,6.30764 5.89036,22.86879 0.87374,21.27554 -1.93592,30.87435 -9.92646,33.91235 -7.18175,2.73049 -7.91448,2.60293 -14.41383,-2.50946 z"
     id="path6011"
     inkscape:connector-curvature="0" /><path
     style="fill:#ffffff;stroke-width:2.16949153"
     d="m 125.08105,416.85794 c -8.39015,-8.39015 -6.81107,-13.13029 10.22797,-30.70272 12.90472,-13.3087 16.72636,-16.03997 22.44341,-16.03997 8.48406,0 14.0713,5.73692 14.0713,14.44826 0,5.24843 -3.11507,9.53388 -16.03996,22.06646 -17.57244,17.03904 -22.31258,18.61811 -30.70272,10.22797 z"
     id="path6013"
     inkscape:connector-curvature="0" /></svg>