<?xml version="1.0" encoding="UTF-8" standalone="no"?>
<!-- Generator: Adobe Illustrator 15.1.0, SVG Export Plug-In . SVG Version: 6.00 Build 0)  -->

<svg
   xmlns:dc="http://purl.org/dc/elements/1.1/"
   xmlns:cc="http://creativecommons.org/ns#"
   xmlns:rdf="http://www.w3.org/1999/02/22-rdf-syntax-ns#"
   xmlns:svg="http://www.w3.org/2000/svg"
   xmlns="http://www.w3.org/2000/svg"
   xmlns:sodipodi="http://sodipodi.sourceforge.net/DTD/sodipodi-0.dtd"
   xmlns:inkscape="http://www.inkscape.org/namespaces/inkscape"
   version="1.1"
   id="Layer_1"
   x="0px"
   y="0px"
   width="512px"
   height="512px"
   viewBox="0 0 512 512"
   enable-background="new 0 0 512 512"
   xml:space="preserve"
   sodipodi:docname="5.svg"
   inkscape:version="0.92.2 (5c3e80d, 2017-08-06)"><metadata
     id="metadata6165"><rdf:RDF><cc:Work
         rdf:about=""><dc:format>image/svg+xml</dc:format><dc:type
           rdf:resource="http://purl.org/dc/dcmitype/StillImage" /></cc:Work></rdf:RDF></metadata><defs
     id="defs6163" /><sodipodi:namedview
     pagecolor="#ffffff"
     bordercolor="#666666"
     borderopacity="1"
     objecttolerance="10"
     gridtolerance="10"
     guidetolerance="10"
     inkscape:pageopacity="0"
     inkscape:pageshadow="2"
     inkscape:window-width="1366"
     inkscape:window-height="705"
     id="namedview6161"
     showgrid="false"
     inkscape:zoom="0.4609375"
     inkscape:cx="256"
     inkscape:cy="256"
     inkscape:window-x="-8"
     inkscape:window-y="-8"
     inkscape:window-maximized="1"
     inkscape:current-layer="Layer_1" /><g
     id="Grid_1_"><g
       id="Layer_1_1_"><g
         id="Grid"><g
           id="g6153"><rect
             fill="none"
             stroke="#A9CCDB"
             stroke-miterlimit="10"
             width="512"
             height="512"
             id="rect6091" /><line
             fill="none"
             stroke="#A9CCDB"
             stroke-miterlimit="10"
             x1="0"
             y1="480"
             x2="512"
             y2="480"
             id="line6093" /><line
             fill="none"
             stroke="#A9CCDB"
             stroke-miterlimit="10"
             x1="0"
             y1="448"
             x2="512"
             y2="448"
             id="line6095" /><line
             fill="none"
             stroke="#A9CCDB"
             stroke-miterlimit="10"
             x1="0"
             y1="416"
             x2="512"
             y2="416"
             id="line6097" /><line
             fill="none"
             stroke="#A9CCDB"
             stroke-miterlimit="10"
             x1="0"
             y1="384"
             x2="512"
             y2="384"
             id="line6099" /><line
             fill="none"
             stroke="#A9CCDB"
             stroke-miterlimit="10"
             x1="0"
             y1="352"
             x2="512"
             y2="352"
             id="line6101" /><line
             fill="none"
             stroke="#A9CCDB"
             stroke-miterlimit="10"
             x1="0"
             y1="320"
             x2="512"
             y2="320"
             id="line6103" /><line
             fill="none"
             stroke="#A9CCDB"
             stroke-miterlimit="10"
             x1="0"
             y1="288"
             x2="512"
             y2="288"
             id="line6105" /><line
             fill="none"
             stroke="#A9CCDB"
             stroke-miterlimit="10"
             x1="0"
             y1="256"
             x2="512"
             y2="256"
             id="line6107" /><line
             fill="none"
             stroke="#A9CCDB"
             stroke-miterlimit="10"
             x1="0"
             y1="224"
             x2="512"
             y2="224"
             id="line6109" /><line
             fill="none"
             stroke="#A9CCDB"
             stroke-miterlimit="10"
             x1="0"
             y1="192"
             x2="512"
             y2="192"
             id="line6111" /><line
             fill="none"
             stroke="#A9CCDB"
             stroke-miterlimit="10"
             x1="0"
             y1="160"
             x2="512"
             y2="160"
             id="line6113" /><line
             fill="none"
             stroke="#A9CCDB"
             stroke-miterlimit="10"
             x1="0"
             y1="128"
             x2="512"
             y2="128"
             id="line6115" /><line
             fill="none"
             stroke="#A9CCDB"
             stroke-miterlimit="10"
             x1="0"
             y1="96"
             x2="512"
             y2="96"
             id="line6117" /><line
             fill="none"
             stroke="#A9CCDB"
             stroke-miterlimit="10"
             x1="0"
             y1="64"
             x2="512"
             y2="64"
             id="line6119" /><line
             fill="none"
             stroke="#A9CCDB"
             stroke-miterlimit="10"
             x1="0"
             y1="32"
             x2="512"
             y2="32"
             id="line6121" /><line
             fill="none"
             stroke="#A9CCDB"
             stroke-miterlimit="10"
             x1="480"
             y1="0"
             x2="480"
             y2="512"
             id="line6123" /><line
             fill="none"
             stroke="#A9CCDB"
             stroke-miterlimit="10"
             x1="448"
             y1="0"
             x2="448"
             y2="512"
             id="line6125" /><line
             fill="none"
             stroke="#A9CCDB"
             stroke-miterlimit="10"
             x1="416"
             y1="0"
             x2="416"
             y2="512"
             id="line6127" /><line
             fill="none"
             stroke="#A9CCDB"
             stroke-miterlimit="10"
             x1="384"
             y1="0"
             x2="384"
             y2="512"
             id="line6129" /><line
             fill="none"
             stroke="#A9CCDB"
             stroke-miterlimit="10"
             x1="352"
             y1="0"
             x2="352"
             y2="512"
             id="line6131" /><line
             fill="none"
             stroke="#A9CCDB"
             stroke-miterlimit="10"
             x1="320"
             y1="0"
             x2="320"
             y2="512"
             id="line6133" /><line
             fill="none"
             stroke="#A9CCDB"
             stroke-miterlimit="10"
             x1="288"
             y1="0"
             x2="288"
             y2="512"
             id="line6135" /><line
             fill="none"
             stroke="#A9CCDB"
             stroke-miterlimit="10"
             x1="256"
             y1="0"
             x2="256"
             y2="512"
             id="line6137" /><line
             fill="none"
             stroke="#A9CCDB"
             stroke-miterlimit="10"
             x1="224"
             y1="0"
             x2="224"
             y2="512"
             id="line6139" /><line
             fill="none"
             stroke="#A9CCDB"
             stroke-miterlimit="10"
             x1="192"
             y1="0"
             x2="192"
             y2="512"
             id="line6141" /><line
             fill="none"
             stroke="#A9CCDB"
             stroke-miterlimit="10"
             x1="160"
             y1="0"
             x2="160"
             y2="512"
             id="line6143" /><line
             fill="none"
             stroke="#A9CCDB"
             stroke-miterlimit="10"
             x1="128"
             y1="0"
             x2="128"
             y2="512"
             id="line6145" /><line
             fill="none"
             stroke="#A9CCDB"
             stroke-miterlimit="10"
             x1="96"
             y1="0"
             x2="96"
             y2="512"
             id="line6147" /><line
             fill="none"
             stroke="#A9CCDB"
             stroke-miterlimit="10"
             x1="64"
             y1="0"
             x2="64"
             y2="512"
             id="line6149" /><line
             fill="none"
             stroke="#A9CCDB"
             stroke-miterlimit="10"
             x1="32"
             y1="0"
             x2="32"
             y2="512"
             id="line6151" /></g></g></g></g><path
     fill="#1D1D1B"
     d="M495,223h-81.625C405.312,151.208,344.938,95,271,95c-49.812,0-93.75,25.458-119.625,64H47  c-8.833,0-16,7.167-16,16s7.167,16,16,16h88.833c-3.624,10.208-5.979,20.896-7.208,32H79c-8.833,0-16,7.167-16,16s7.167,16,16,16  h49.625c1.229,11.084,3.584,21.812,7.208,32H49.916C39.459,287,31,294.167,31,303s8.459,16,18.916,16h101.459  c25.875,38.562,69.812,64,119.625,64c49.812,0,93.75-25.438,119.624-64h37.46c10.457,0,18.916-7.167,18.916-16s-8.459-16-18.916-16  h-21.917c3.624-10.188,5.958-20.916,7.208-32H495c8.833,0,16-7.167,16-16S503.833,223,495,223z M170.229,191H271  c8.833,0,16-7.167,16-16s-7.167-16-16-16h-78.146c20.209-19.729,47.729-32,78.146-32c56.291,0,102.542,41.875,110.375,96h-220.75  C162.25,211.688,165.459,200.958,170.229,191z M271,351c-30.417,0-57.938-12.291-78.146-32h156.271  C328.938,338.709,301.417,351,271,351z M371.75,287H170.229c-4.77-9.958-7.979-20.688-9.604-32h220.75  C379.75,266.312,376.541,277.042,371.75,287z"
     id="path6158" /><path
     style="fill:#ffffff;stroke-width:2.16949153"
     d="m 235.85023,377.46087 c -24.8426,-6.00554 -43.73936,-17.27247 -65.84832,-39.26116 L 149.73942,318.04746 H 97.074148 c -49.995,0 -52.955101,-0.22799 -58.381573,-4.49645 -7.68095,-6.04183 -7.68095,-15.33815 0,-21.37999 5.379921,-4.23185 8.457565,-4.49644 52.299907,-4.49644 43.495358,0 46.483308,-0.2517 45.070708,-3.79661 -0.8321,-2.08814 -2.72904,-9.65424 -4.21544,-16.81356 l -2.70253,-13.01695 -25.84719,-0.53225 c -32.388215,-0.66693 -34.442378,-1.17422 -37.825188,-9.34104 -2.43776,-5.88527 -2.25106,-7.36316 1.57939,-12.50217 4.250472,-5.70252 4.965326,-5.85127 33.219758,-6.91268 l 28.87581,-1.08474 2.70124,-13.01695 c 1.48569,-7.15932 3.38205,-14.72543 4.21415,-16.81356 1.41341,-3.54695 -1.64094,-3.79661 -46.448027,-3.79661 -45.06827,0 -48.222622,-0.2617 -52.299909,-4.33899 -5.578471,-5.57847 -5.578471,-16.11644 0,-21.69491 4.107088,-4.10709 7.231639,-4.33898 58.463247,-4.33898 h 54.124269 l 19.09607,-19.221 c 15.56083,-15.66264 22.50998,-20.87992 37.53675,-28.18183 24.03596,-11.67973 39.88973,-15.519642 63.91344,-15.48036 40.58832,0.06636 69.70129,12.14629 99.16325,41.1461 15.29151,15.05165 20.44195,21.89448 27.56313,36.6202 4.8167,9.96033 10.36409,25.33038 12.32755,34.15566 l 3.56988,16.04597 h 44.1723 c 42.64708,0 44.32501,0.16395 48.59576,4.74807 5.61417,6.02608 5.64745,13.55342 0.0846,19.11634 -4.05497,4.05497 -7.23163,4.33898 -48.53129,4.33898 H 413.2019 l -2.4832,12.47458 c -1.36578,6.86102 -3.07107,14.67118 -3.78954,17.35593 -1.25631,4.69445 -0.76787,4.88136 12.75583,4.88136 10.94127,0 15.3308,0.99792 19.77845,4.49644 7.68096,6.04184 7.68096,15.33816 0,21.37999 -4.92533,3.87428 -8.75279,4.4976 -27.66102,4.50471 l -21.94471,0.009 -9.20198,11.91491 c -16.2327,21.01841 -46.61051,40.2344 -75.32162,47.64594 -16.18521,4.17807 -51.87074,4.09386 -69.48379,-0.16401 z m 66.05033,-30.48251 c 15.7199,-4.3546 29.62988,-11.63088 40.22825,-21.04335 l 8.67797,-7.70694 -78.82485,-0.0903 c -60.25214,-0.069 -78.62098,0.52135 -77.95954,2.50565 1.43739,4.31219 23.66327,18.7356 36.27045,23.5376 22.91745,8.72912 46.82306,9.66298 71.60772,2.79734 z m 76.14629,-74.39988 c 2.5219,-8.30286 3.95681,-16.11303 3.18865,-17.35593 -1.45761,-2.35846 -218.38767,-3.40823 -220.72775,-1.06815 -1.52331,1.5233 1.83352,16.54767 5.83906,26.13429 l 3.08602,7.38589 h 102.01436 102.01435 z m 4.21756,-50.84487 c 0,-7.89449 -9.47597,-32.22913 -17.04602,-43.77484 -21.5265,-32.83184 -54.26458,-50.9063 -92.44425,-51.0378 -21.40043,-0.0737 -34.70836,2.77887 -51.24824,10.98517 -13.01909,6.45944 -28.00708,17.23803 -28.00719,20.14132 -4e-5,0.89491 18.44093,1.62712 40.97993,1.62712 36.59325,0 41.50889,0.42828 45.9209,4.0009 6.71752,5.43951 6.71752,16.93156 0,22.37107 -4.50053,3.64431 -9.66685,4.00091 -57.96381,4.00091 h -53.0229 l -3.19108,7.63734 c -1.7551,4.20054 -3.79053,12.01071 -4.52317,17.35594 l -1.33208,9.71858 h 110.93896 c 93.44211,0 110.93895,-0.4772 110.93895,-3.02571 z"
     id="path6167"
     inkscape:connector-curvature="0" /></svg>