<?xml version="1.0" encoding="UTF-8" standalone="no"?>
<!-- Generator: Adobe Illustrator 15.1.0, SVG Export Plug-In . SVG Version: 6.00 Build 0)  -->

<svg
   xmlns:dc="http://purl.org/dc/elements/1.1/"
   xmlns:cc="http://creativecommons.org/ns#"
   xmlns:rdf="http://www.w3.org/1999/02/22-rdf-syntax-ns#"
   xmlns:svg="http://www.w3.org/2000/svg"
   xmlns="http://www.w3.org/2000/svg"
   xmlns:sodipodi="http://sodipodi.sourceforge.net/DTD/sodipodi-0.dtd"
   xmlns:inkscape="http://www.inkscape.org/namespaces/inkscape"
   version="1.1"
   id="Layer_1"
   x="0px"
   y="0px"
   width="512px"
   height="512px"
   viewBox="0 0 512 512"
   enable-background="new 0 0 512 512"
   xml:space="preserve"
   sodipodi:docname="50d.svg"
   inkscape:version="0.92.2 (5c3e80d, 2017-08-06)"><metadata
     id="metadata8355"><rdf:RDF><cc:Work
         rdf:about=""><dc:format>image/svg+xml</dc:format><dc:type
           rdf:resource="http://purl.org/dc/dcmitype/StillImage" /></cc:Work></rdf:RDF></metadata><defs
     id="defs8353" /><sodipodi:namedview
     pagecolor="#ffffff"
     bordercolor="#666666"
     borderopacity="1"
     objecttolerance="10"
     gridtolerance="10"
     guidetolerance="10"
     inkscape:pageopacity="0"
     inkscape:pageshadow="2"
     inkscape:window-width="1366"
     inkscape:window-height="705"
     id="namedview8351"
     showgrid="false"
     inkscape:zoom="0.4609375"
     inkscape:cx="256"
     inkscape:cy="256"
     inkscape:window-x="-8"
     inkscape:window-y="-8"
     inkscape:window-maximized="1"
     inkscape:current-layer="Layer_1" /><g
     id="Grid_1_"><g
       id="Layer_1_1_"><g
         id="Grid"><g
           id="g8339"><rect
             fill="none"
             stroke="#A9CCDB"
             stroke-miterlimit="10"
             width="512"
             height="512"
             id="rect8277" /><line
             fill="none"
             stroke="#A9CCDB"
             stroke-miterlimit="10"
             x1="0"
             y1="480"
             x2="512"
             y2="480"
             id="line8279" /><line
             fill="none"
             stroke="#A9CCDB"
             stroke-miterlimit="10"
             x1="0"
             y1="448"
             x2="512"
             y2="448"
             id="line8281" /><line
             fill="none"
             stroke="#A9CCDB"
             stroke-miterlimit="10"
             x1="0"
             y1="416"
             x2="512"
             y2="416"
             id="line8283" /><line
             fill="none"
             stroke="#A9CCDB"
             stroke-miterlimit="10"
             x1="0"
             y1="384"
             x2="512"
             y2="384"
             id="line8285" /><line
             fill="none"
             stroke="#A9CCDB"
             stroke-miterlimit="10"
             x1="0"
             y1="352"
             x2="512"
             y2="352"
             id="line8287" /><line
             fill="none"
             stroke="#A9CCDB"
             stroke-miterlimit="10"
             x1="0"
             y1="320"
             x2="512"
             y2="320"
             id="line8289" /><line
             fill="none"
             stroke="#A9CCDB"
             stroke-miterlimit="10"
             x1="0"
             y1="288"
             x2="512"
             y2="288"
             id="line8291" /><line
             fill="none"
             stroke="#A9CCDB"
             stroke-miterlimit="10"
             x1="0"
             y1="256"
             x2="512"
             y2="256"
             id="line8293" /><line
             fill="none"
             stroke="#A9CCDB"
             stroke-miterlimit="10"
             x1="0"
             y1="224"
             x2="512"
             y2="224"
             id="line8295" /><line
             fill="none"
             stroke="#A9CCDB"
             stroke-miterlimit="10"
             x1="0"
             y1="192"
             x2="512"
             y2="192"
             id="line8297" /><line
             fill="none"
             stroke="#A9CCDB"
             stroke-miterlimit="10"
             x1="0"
             y1="160"
             x2="512"
             y2="160"
             id="line8299" /><line
             fill="none"
             stroke="#A9CCDB"
             stroke-miterlimit="10"
             x1="0"
             y1="128"
             x2="512"
             y2="128"
             id="line8301" /><line
             fill="none"
             stroke="#A9CCDB"
             stroke-miterlimit="10"
             x1="0"
             y1="96"
             x2="512"
             y2="96"
             id="line8303" /><line
             fill="none"
             stroke="#A9CCDB"
             stroke-miterlimit="10"
             x1="0"
             y1="64"
             x2="512"
             y2="64"
             id="line8305" /><line
             fill="none"
             stroke="#A9CCDB"
             stroke-miterlimit="10"
             x1="0"
             y1="32"
             x2="512"
             y2="32"
             id="line8307" /><line
             fill="none"
             stroke="#A9CCDB"
             stroke-miterlimit="10"
             x1="480"
             y1="0"
             x2="480"
             y2="512"
             id="line8309" /><line
             fill="none"
             stroke="#A9CCDB"
             stroke-miterlimit="10"
             x1="448"
             y1="0"
             x2="448"
             y2="512"
             id="line8311" /><line
             fill="none"
             stroke="#A9CCDB"
             stroke-miterlimit="10"
             x1="416"
             y1="0"
             x2="416"
             y2="512"
             id="line8313" /><line
             fill="none"
             stroke="#A9CCDB"
             stroke-miterlimit="10"
             x1="384"
             y1="0"
             x2="384"
             y2="512"
             id="line8315" /><line
             fill="none"
             stroke="#A9CCDB"
             stroke-miterlimit="10"
             x1="352"
             y1="0"
             x2="352"
             y2="512"
             id="line8317" /><line
             fill="none"
             stroke="#A9CCDB"
             stroke-miterlimit="10"
             x1="320"
             y1="0"
             x2="320"
             y2="512"
             id="line8319" /><line
             fill="none"
             stroke="#A9CCDB"
             stroke-miterlimit="10"
             x1="288"
             y1="0"
             x2="288"
             y2="512"
             id="line8321" /><line
             fill="none"
             stroke="#A9CCDB"
             stroke-miterlimit="10"
             x1="256"
             y1="0"
             x2="256"
             y2="512"
             id="line8323" /><line
             fill="none"
             stroke="#A9CCDB"
             stroke-miterlimit="10"
             x1="224"
             y1="0"
             x2="224"
             y2="512"
             id="line8325" /><line
             fill="none"
             stroke="#A9CCDB"
             stroke-miterlimit="10"
             x1="192"
             y1="0"
             x2="192"
             y2="512"
             id="line8327" /><line
             fill="none"
             stroke="#A9CCDB"
             stroke-miterlimit="10"
             x1="160"
             y1="0"
             x2="160"
             y2="512"
             id="line8329" /><line
             fill="none"
             stroke="#A9CCDB"
             stroke-miterlimit="10"
             x1="128"
             y1="0"
             x2="128"
             y2="512"
             id="line8331" /><line
             fill="none"
             stroke="#A9CCDB"
             stroke-miterlimit="10"
             x1="96"
             y1="0"
             x2="96"
             y2="512"
             id="line8333" /><line
             fill="none"
             stroke="#A9CCDB"
             stroke-miterlimit="10"
             x1="64"
             y1="0"
             x2="64"
             y2="512"
             id="line8335" /><line
             fill="none"
             stroke="#A9CCDB"
             stroke-miterlimit="10"
             x1="32"
             y1="0"
             x2="32"
             y2="512"
             id="line8337" /></g></g></g></g><g
     id="g8348"><g
       id="g8346"><path
         fill="#1D1D1B"
         d="M256,95c8.833,0,16-7.167,16-16V47c0-8.833-7.167-16-16-16s-16,7.167-16,16v32    C240,87.833,247.167,95,256,95z M380.438,137.167l22.625-22.625c6.249-6.25,6.249-16.375,0-22.625    c-6.25-6.25-16.375-6.25-22.625,0l-22.625,22.625c-6.25,6.25-6.25,16.375,0,22.625S374.188,143.417,380.438,137.167z M64,255h32    c8.833,0,16-7.167,16-16s-7.167-16-16-16H64c-8.833,0-16,7.167-16,16S55.167,255,64,255z M400,239c0,8.833,7.167,16,16,16h32    c8.833,0,16-7.167,16-16s-7.167-16-16-16h-32C407.167,223,400,230.167,400,239z M131.541,137.167c6.251,6.25,16.376,6.25,22.625,0    c6.251-6.25,6.251-16.375,0-22.625l-22.625-22.625c-6.25-6.25-16.374-6.25-22.625,0c-6.25,6.25-6.25,16.375,0,22.625    L131.541,137.167z M145.625,255h32c-1.062-5.167-1.625-10.521-1.625-16c0-44.188,35.812-80,80-80c44.188,0,80,35.812,80,80    c0,5.479-0.562,10.833-1.625,16h32c0.792-5.271,1.625-10.521,1.625-16c0-61.75-50.25-112-112-112s-112,50.25-112,112    C144,244.479,144.875,249.729,145.625,255z M448,287H64c-8.833,0-16,7.167-16,16s7.167,16,16,16h384c8.833,0,16-7.167,16-16    S456.833,287,448,287z M448,351H64c-8.833,0-16,7.167-16,16s7.167,16,16,16h384c8.833,0,16-7.167,16-16S456.833,351,448,351z     M448,415H64c-8.833,0-16,7.167-16,16s7.167,16,16,16h384c8.833,0,16-7.167,16-16S456.833,415,448,415z"
         id="path8344" /></g></g><path
     style="fill:#ffffff;stroke-width:2.16949153"
     d="m 52.659157,247.24641 c -5.625385,-7.15152 -5.625385,-9.61927 0,-16.77078 4.343974,-5.52247 5.263545,-5.71631 27.118644,-5.71631 19.729544,0 23.177019,0.55482 26.961179,4.33899 5.54735,5.54734 5.54735,13.97807 0,19.52542 -3.78416,3.78416 -7.231635,4.33898 -26.961179,4.33898 -21.855099,0 -22.77467,-0.19383 -27.118644,-5.7163 z"
     id="path8357"
     inkscape:connector-curvature="0" /><path
     style="fill:#ffffff;stroke-width:2.16949153"
     d="m 120.45577,124.26288 c -17.46598,-17.46598 -19.11976,-22.29781 -10.56116,-30.856408 8.70969,-8.709695 13.74315,-6.986699 31.33935,10.727728 17.09597,17.21083 19.50709,23.54547 12.08403,31.74786 -7.68529,8.49215 -15.52159,5.72144 -32.86222,-11.61918 z"
     id="path8359"
     inkscape:connector-curvature="0" /><path
     style="fill:#ffffff;stroke-width:2.16949153"
     d="m 247.11966,90.216016 c -5.70782,-4.489775 -5.8722,-5.247919 -5.8722,-27.083813 0,-21.68499 0.19841,-22.620807 5.7163,-26.961182 7.5634,-5.949373 12.83088,-5.671917 19.53159,1.028797 5.29923,5.299228 5.49487,6.405541 4.78274,27.045543 -0.79489,23.038967 -2.39406,26.700986 -12.7686,29.239591 -3.85593,0.943531 -7.2861,-0.04094 -11.38983,-3.268936 z"
     id="path8361"
     inkscape:connector-curvature="0" /><path
     style="fill:#ffffff;stroke-width:2.16949153"
     d="m 358.4,135.81017 c -8.07395,-8.07395 -5.71426,-14.58099 11.54729,-31.84254 17.24749,-17.247481 22.98033,-19.338066 31.43346,-11.462778 8.94564,8.334138 6.51978,16.247808 -10.06433,32.831908 C 374.9567,141.69649 366.86193,144.2721 358.4,135.81017 Z"
     id="path8363"
     inkscape:connector-curvature="0" /><path
     style="fill:#ffffff;stroke-width:2.16949153"
     d="m 405.38031,248.99527 c -4.76564,-5.26598 -4.56652,-16.17168 0.37696,-20.64547 3.14435,-2.8456 8.54532,-3.59048 26.0339,-3.59048 19.1738,0 22.63525,0.56879 26.40544,4.33899 5.20136,5.20136 5.56825,12.46596 0.96173,19.04269 -3.13509,4.47596 -5.05556,4.82171 -26.7824,4.82171 -19.91929,0 -23.9399,-0.59089 -26.99563,-3.96744 z"
     id="path8365"
     inkscape:connector-curvature="0" /><path
     style="fill:#ffffff;stroke-width:2.16949153"
     d="m 145.78983,236.92005 c 0,-64.47268 60.46074,-116.56744 124.72473,-107.46654 27.06259,3.83254 53.93479,18.36795 70.0086,37.86826 16.40353,19.90032 27.42584,50.88336 26.11722,73.4139 l -0.64716,11.1423 -14.64407,0.64149 -14.64407,0.6415 v -12.92278 c 0,-41.04999 -27.07121,-73.28087 -67.86262,-80.79698 -32.90805,-6.06355 -67.73358,10.96768 -83.34105,40.75746 -8.1324,15.52222 -9.60988,21.52415 -9.60988,39.03792 v 13.72613 h -15.05085 -15.05085 z"
     id="path8367"
     inkscape:connector-curvature="0" /><path
     style="fill:#ffffff;stroke-width:2.16949153"
     d="m 54.549949,314.04655 c -6.717511,-5.43951 -6.717511,-16.93156 0,-22.37107 4.720174,-3.82216 13.688589,-4.0009 200.746971,-4.0009 194.80668,0 195.83524,0.0229 201.52237,4.49644 7.25241,5.70474 7.54859,14.72077 0.69512,21.15928 l -5.02118,4.71716 H 255.99204 c -187.733925,0 -196.721629,-0.17851 -201.442091,-4.00091 z"
     id="path8369"
     inkscape:connector-curvature="0" /><path
     style="fill:#ffffff;stroke-width:2.16949153"
     d="m 159.34915,381.50566 c 53.39661,-0.32319 140.77288,-0.32319 194.16949,0 53.39661,0.32318 9.70848,0.58761 -97.08474,0.58761 -106.79322,0 -150.48136,-0.26443 -97.08475,-0.58761 z"
     id="path8371"
     inkscape:connector-curvature="0" /><path
     style="fill:#ffffff;stroke-width:2.16949153"
     d="m 54.549949,442.04655 c -6.717511,-5.43951 -6.717511,-16.93156 0,-22.37107 4.720174,-3.82216 13.688589,-4.0009 200.746971,-4.0009 194.80668,0 195.83524,0.0229 201.52237,4.49644 7.25241,5.70474 7.54859,14.72077 0.69512,21.15928 l -5.02118,4.71716 H 255.99204 c -187.733925,0 -196.721629,-0.17851 -201.442091,-4.00091 z"
     id="path8373"
     inkscape:connector-curvature="0" /><path
     style="fill:#ffffff;stroke-width:2.16949153"
     d="m 52.659157,375.24641 c -5.625385,-7.15152 -5.625385,-9.61927 0,-16.77078 l 4.496445,-5.71631 H 255.50661 c 195.45837,0 198.4143,0.0633 202.69,4.33899 5.20136,5.20136 5.56826,12.46596 0.96174,19.04269 l -3.37727,4.82171 H 256.46834 57.155602 Z"
     id="path8375"
     inkscape:connector-curvature="0" /></svg>