<?xml version="1.0" encoding="UTF-8" standalone="no"?>
<!-- Generator: Adobe Illustrator 15.1.0, SVG Export Plug-In . SVG Version: 6.00 Build 0)  -->

<svg
   xmlns:dc="http://purl.org/dc/elements/1.1/"
   xmlns:cc="http://creativecommons.org/ns#"
   xmlns:rdf="http://www.w3.org/1999/02/22-rdf-syntax-ns#"
   xmlns:svg="http://www.w3.org/2000/svg"
   xmlns="http://www.w3.org/2000/svg"
   xmlns:sodipodi="http://sodipodi.sourceforge.net/DTD/sodipodi-0.dtd"
   xmlns:inkscape="http://www.inkscape.org/namespaces/inkscape"
   version="1.1"
   id="Layer_1"
   x="0px"
   y="0px"
   width="512px"
   height="512px"
   viewBox="0 0 512 512"
   enable-background="new 0 0 512 512"
   xml:space="preserve"
   sodipodi:docname="50n.svg"
   inkscape:version="0.92.2 (5c3e80d, 2017-08-06)"><metadata
     id="metadata8535"><rdf:RDF><cc:Work
         rdf:about=""><dc:format>image/svg+xml</dc:format><dc:type
           rdf:resource="http://purl.org/dc/dcmitype/StillImage" /></cc:Work></rdf:RDF></metadata><defs
     id="defs8533" /><sodipodi:namedview
     pagecolor="#ffffff"
     bordercolor="#666666"
     borderopacity="1"
     objecttolerance="10"
     gridtolerance="10"
     guidetolerance="10"
     inkscape:pageopacity="0"
     inkscape:pageshadow="2"
     inkscape:window-width="1366"
     inkscape:window-height="705"
     id="namedview8531"
     showgrid="false"
     inkscape:zoom="0.4609375"
     inkscape:cx="256"
     inkscape:cy="256"
     inkscape:window-x="-8"
     inkscape:window-y="-8"
     inkscape:window-maximized="1"
     inkscape:current-layer="Layer_1" /><g
     id="Grid_1_"><g
       id="Layer_1_1_"><g
         id="Grid"><g
           id="g8519"><rect
             fill="none"
             stroke="#A9CCDB"
             stroke-miterlimit="10"
             width="512"
             height="512"
             id="rect8457" /><line
             fill="none"
             stroke="#A9CCDB"
             stroke-miterlimit="10"
             x1="0"
             y1="480"
             x2="512"
             y2="480"
             id="line8459" /><line
             fill="none"
             stroke="#A9CCDB"
             stroke-miterlimit="10"
             x1="0"
             y1="448"
             x2="512"
             y2="448"
             id="line8461" /><line
             fill="none"
             stroke="#A9CCDB"
             stroke-miterlimit="10"
             x1="0"
             y1="416"
             x2="512"
             y2="416"
             id="line8463" /><line
             fill="none"
             stroke="#A9CCDB"
             stroke-miterlimit="10"
             x1="0"
             y1="384"
             x2="512"
             y2="384"
             id="line8465" /><line
             fill="none"
             stroke="#A9CCDB"
             stroke-miterlimit="10"
             x1="0"
             y1="352"
             x2="512"
             y2="352"
             id="line8467" /><line
             fill="none"
             stroke="#A9CCDB"
             stroke-miterlimit="10"
             x1="0"
             y1="320"
             x2="512"
             y2="320"
             id="line8469" /><line
             fill="none"
             stroke="#A9CCDB"
             stroke-miterlimit="10"
             x1="0"
             y1="288"
             x2="512"
             y2="288"
             id="line8471" /><line
             fill="none"
             stroke="#A9CCDB"
             stroke-miterlimit="10"
             x1="0"
             y1="256"
             x2="512"
             y2="256"
             id="line8473" /><line
             fill="none"
             stroke="#A9CCDB"
             stroke-miterlimit="10"
             x1="0"
             y1="224"
             x2="512"
             y2="224"
             id="line8475" /><line
             fill="none"
             stroke="#A9CCDB"
             stroke-miterlimit="10"
             x1="0"
             y1="192"
             x2="512"
             y2="192"
             id="line8477" /><line
             fill="none"
             stroke="#A9CCDB"
             stroke-miterlimit="10"
             x1="0"
             y1="160"
             x2="512"
             y2="160"
             id="line8479" /><line
             fill="none"
             stroke="#A9CCDB"
             stroke-miterlimit="10"
             x1="0"
             y1="128"
             x2="512"
             y2="128"
             id="line8481" /><line
             fill="none"
             stroke="#A9CCDB"
             stroke-miterlimit="10"
             x1="0"
             y1="96"
             x2="512"
             y2="96"
             id="line8483" /><line
             fill="none"
             stroke="#A9CCDB"
             stroke-miterlimit="10"
             x1="0"
             y1="64"
             x2="512"
             y2="64"
             id="line8485" /><line
             fill="none"
             stroke="#A9CCDB"
             stroke-miterlimit="10"
             x1="0"
             y1="32"
             x2="512"
             y2="32"
             id="line8487" /><line
             fill="none"
             stroke="#A9CCDB"
             stroke-miterlimit="10"
             x1="480"
             y1="0"
             x2="480"
             y2="512"
             id="line8489" /><line
             fill="none"
             stroke="#A9CCDB"
             stroke-miterlimit="10"
             x1="448"
             y1="0"
             x2="448"
             y2="512"
             id="line8491" /><line
             fill="none"
             stroke="#A9CCDB"
             stroke-miterlimit="10"
             x1="416"
             y1="0"
             x2="416"
             y2="512"
             id="line8493" /><line
             fill="none"
             stroke="#A9CCDB"
             stroke-miterlimit="10"
             x1="384"
             y1="0"
             x2="384"
             y2="512"
             id="line8495" /><line
             fill="none"
             stroke="#A9CCDB"
             stroke-miterlimit="10"
             x1="352"
             y1="0"
             x2="352"
             y2="512"
             id="line8497" /><line
             fill="none"
             stroke="#A9CCDB"
             stroke-miterlimit="10"
             x1="320"
             y1="0"
             x2="320"
             y2="512"
             id="line8499" /><line
             fill="none"
             stroke="#A9CCDB"
             stroke-miterlimit="10"
             x1="288"
             y1="0"
             x2="288"
             y2="512"
             id="line8501" /><line
             fill="none"
             stroke="#A9CCDB"
             stroke-miterlimit="10"
             x1="256"
             y1="0"
             x2="256"
             y2="512"
             id="line8503" /><line
             fill="none"
             stroke="#A9CCDB"
             stroke-miterlimit="10"
             x1="224"
             y1="0"
             x2="224"
             y2="512"
             id="line8505" /><line
             fill="none"
             stroke="#A9CCDB"
             stroke-miterlimit="10"
             x1="192"
             y1="0"
             x2="192"
             y2="512"
             id="line8507" /><line
             fill="none"
             stroke="#A9CCDB"
             stroke-miterlimit="10"
             x1="160"
             y1="0"
             x2="160"
             y2="512"
             id="line8509" /><line
             fill="none"
             stroke="#A9CCDB"
             stroke-miterlimit="10"
             x1="128"
             y1="0"
             x2="128"
             y2="512"
             id="line8511" /><line
             fill="none"
             stroke="#A9CCDB"
             stroke-miterlimit="10"
             x1="96"
             y1="0"
             x2="96"
             y2="512"
             id="line8513" /><line
             fill="none"
             stroke="#A9CCDB"
             stroke-miterlimit="10"
             x1="64"
             y1="0"
             x2="64"
             y2="512"
             id="line8515" /><line
             fill="none"
             stroke="#A9CCDB"
             stroke-miterlimit="10"
             x1="32"
             y1="0"
             x2="32"
             y2="512"
             id="line8517" /></g></g></g></g><g
     id="g8528"><g
       id="g8526"><path
         fill="#1D1D1B"
         d="M64,319.001h384c8.833,0,16-7.167,16-16s-7.167-16-16-16H64c-8.833,0-16,7.167-16,16    S55.167,319.001,64,319.001z M448,351.001H64c-8.833,0-16,7.167-16,16s7.167,16,16,16h384c8.833,0,16-7.167,16-16    S456.833,351.001,448,351.001z M448,415.001H64c-8.833,0-16,7.167-16,16s7.167,16,16,16h384c8.833,0,16-7.167,16-16    S456.833,415.001,448,415.001z M205.042,255c-0.333-0.333-0.751-0.542-1.083-0.875c-37.438-37.438-37.438-98.334,0-135.792    c2.562-2.542,5.27-4.958,8.146-7.208c-2.251,35.958,10.729,71.375,37.104,97.729c26.374,26.396,61.79,39.333,97.749,37.083    c-2.667,3.396-5.874,6.125-8.896,9.062h41.521c5.042-8.042,9.25-16.75,12.583-26.063c2.021-5.854,0.542-12.333-3.833-16.667    c-4.291-4.354-10.792-5.854-16.624-3.791c-35.376,12.499-73.646,3.979-99.875-22.25c-26.251-26.25-34.792-64.521-22.251-99.896    c2.083-5.812,0.583-12.271-3.791-16.646c-4.334-4.354-10.813-5.833-16.625-3.771c-18.521,6.542-34.625,16.604-47.833,29.792    C138.125,138.917,132.479,205.479,164.062,255H205.042z"
         id="path8524" /></g></g><path
     style="fill:#ffffff;stroke-width:2.16949153"
     d="m 157.8961,241.19977 c -12.2521,-25.89882 -15.62883,-59.65186 -8.66723,-86.63577 8.73912,-33.87374 33.99558,-65.521991 64.20315,-80.451379 18.76816,-9.27573 26.36589,-9.47393 32.77176,-0.854906 4.20964,5.664018 4.21913,6.087858 0.44809,20.019185 -5.68947,21.0186 -3.70501,46.44454 5.09217,65.24368 17.7343,37.89733 60.27341,61.48906 99.52443,55.19518 30.46515,-4.88507 30.90731,-4.89557 35.38807,-0.84054 5.77039,5.22213 5.41735,14.78638 -1.05927,28.69766 l -5.30274,11.38983 h -18.97439 c -14.75785,0 -18.39585,-0.57853 -16.37099,-2.60339 4.85365,-4.85365 2.63423,-6.07457 -11.04249,-6.07457 -62.75205,0 -120.86259,-58.83671 -120.86259,-122.37292 v -12.98672 l -7.80034,7.47643 c -19.33219,18.52941 -29.55219,42.4786 -29.61423,69.39691 -0.0478,20.72556 4.57798,36.64583 15.60478,53.70643 l 8.69821,13.45783 h -18.23581 -18.23582 z"
     id="path8537"
     inkscape:connector-curvature="0" /><path
     style="fill:#ffffff;stroke-width:2.16949153"
     d="m 54.549949,314.04655 c -6.717511,-5.43951 -6.717511,-16.93156 0,-22.37107 4.720174,-3.82216 13.688589,-4.0009 200.746971,-4.0009 194.80668,0 195.83524,0.0229 201.52237,4.49644 7.25241,5.70474 7.54859,14.72077 0.69512,21.15928 l -5.02118,4.71716 H 255.99204 c -187.733925,0 -196.721629,-0.17851 -201.442091,-4.00091 z"
     id="path8539"
     inkscape:connector-curvature="0" /><path
     style="fill:#ffffff;stroke-width:2.16949153"
     d="m 52.659157,375.24641 c -5.625385,-7.15152 -5.625385,-9.61927 0,-16.77078 l 4.496445,-5.71631 H 255.50661 c 195.45837,0 198.4143,0.0633 202.69,4.33899 5.20136,5.20136 5.56826,12.46596 0.96174,19.04269 l -3.37727,4.82171 H 256.46834 57.155602 Z"
     id="path8541"
     inkscape:connector-curvature="0" /><path
     style="fill:#ffffff;stroke-width:2.16949153"
     d="m 54.549949,442.04655 c -6.717511,-5.43951 -6.717511,-16.93156 0,-22.37107 4.720174,-3.82216 13.688589,-4.0009 200.746971,-4.0009 194.80668,0 195.83524,0.0229 201.52237,4.49644 7.25241,5.70474 7.54859,14.72077 0.69512,21.15928 l -5.02118,4.71716 H 255.99204 c -187.733925,0 -196.721629,-0.17851 -201.442091,-4.00091 z"
     id="path8543"
     inkscape:connector-curvature="0" /></svg>